<svg width="385" height="311" viewBox="0 0 385 311" fill="none" xmlns="http://www.w3.org/2000/svg">
<path d="M168.852 12.6237C169.836 12.6237 170.405 12.0382 170.405 11.0031V2.70648H172.56C173.382 2.70648 173.942 2.24823 173.942 1.45075C173.942 0.653274 173.399 0.195028 172.56 0.195028H165.153C164.305 0.195028 163.762 0.653274 163.762 1.45075C163.762 2.24823 164.322 2.70648 165.153 2.70648H167.3V11.0031C167.3 12.0382 167.868 12.6237 168.852 12.6237ZM176.453 12.632C177.327 12.632 177.955 12.1229 177.955 11.0709V7.22813C177.955 6.19306 178.523 5.47202 179.533 5.47202C180.525 5.47202 181.043 6.11661 181.043 7.16036V11.0709C181.043 12.1229 181.662 12.632 182.545 12.632C183.427 12.632 184.046 12.1229 184.046 11.0709V6.50709C184.046 4.32662 182.901 3.02008 180.839 3.02008C179.431 3.02008 178.422 3.69898 177.947 4.93733H177.887V1.53545C177.887 0.559887 177.353 0 176.419 0C175.486 0 174.943 0.559888 174.943 1.5272V11.0709C174.943 12.1229 175.571 12.632 176.453 12.632ZM189.9 12.6576C191.741 12.6576 193.234 12.0043 193.844 10.9184C193.98 10.6978 194.048 10.4689 194.048 10.2395C194.048 9.57799 193.531 9.18794 192.92 9.18794C192.547 9.18794 192.301 9.28958 191.987 9.58668C191.316 10.2651 190.748 10.5279 189.925 10.5279C188.839 10.5279 188.101 9.76476 188.101 8.64499V8.47516H193.123C193.904 8.47516 194.337 8.05079 194.337 7.28763C194.337 4.79312 192.53 2.97795 189.781 2.97795C186.965 2.97795 185.183 4.86957 185.183 7.86446C185.183 10.8676 186.939 12.6576 189.9 12.6576ZM188.143 6.76163C188.22 5.79431 188.907 5.11585 189.841 5.11585C190.782 5.11585 191.452 5.76043 191.503 6.76163H188.143ZM166.019 33.4728C167.003 33.4728 167.571 32.8873 167.571 31.8522V29.6974H169.573C172.296 29.6974 174.172 27.9921 174.172 25.3794C174.172 22.7494 172.39 21.0441 169.76 21.0441H166.019C165.034 21.0441 164.458 21.6383 164.458 22.673V31.8522C164.458 32.8873 165.034 33.4728 166.019 33.4728ZM167.571 27.3562V23.4283H168.937C170.244 23.4283 171.024 24.1155 171.024 25.3877C171.024 26.669 170.244 27.3562 168.92 27.3562H167.571ZM176.861 33.4811C177.777 33.4811 178.362 32.9381 178.362 31.92V28.3148C178.362 27.2628 178.659 26.8046 179.694 26.7794C180.254 26.7537 180.678 26.6265 180.958 26.3719C181.238 26.1261 181.382 25.7695 181.382 25.2947C181.382 24.7518 181.23 24.37 180.933 24.1493C180.738 23.9882 180.466 23.9117 180.127 23.9117C179.202 23.9117 178.523 24.5733 178.294 25.8203H178.235V25.3625C178.235 24.3869 177.658 23.8522 176.818 23.8522C175.945 23.8522 175.35 24.3869 175.35 25.3538V31.92C175.35 32.9381 175.936 33.4811 176.861 33.4811ZM186.396 33.5067C189.306 33.5067 191.121 31.7506 191.121 28.6623C191.121 25.634 189.281 23.8271 186.396 23.8271C183.528 23.8271 181.671 25.6422 181.671 28.6623C181.671 31.7419 183.486 33.5067 186.396 33.5067ZM186.396 31.301C185.361 31.301 184.725 30.3593 184.725 28.671C184.725 27.0083 185.378 26.0327 186.396 26.0327C187.422 26.0327 188.076 27.0083 188.076 28.671C188.076 30.3593 187.422 31.301 186.396 31.301ZM195.686 33.4215C197.085 33.4215 198.129 32.6753 198.485 31.6741H198.545V31.9374C198.545 32.9807 199.172 33.4811 200.046 33.4811C200.928 33.4811 201.548 32.9807 201.548 31.9374V22.4102C201.548 21.3582 200.928 20.8491 200.046 20.8491C199.164 20.8491 198.545 21.3582 198.545 22.4102V25.6761H198.485C198.078 24.6415 197.06 23.9117 195.72 23.9117C193.412 23.9117 192.004 25.6935 192.004 28.6454C192.004 31.6316 193.387 33.4215 195.686 33.4215ZM196.814 31.0717C195.728 31.0717 195.083 30.1639 195.083 28.671C195.083 27.1864 195.736 26.2616 196.814 26.2616C197.891 26.2616 198.553 27.1864 198.553 28.671C198.553 30.1726 197.9 31.0717 196.814 31.0717ZM206.366 33.4641C207.758 33.4641 208.64 32.7518 209.056 31.5386H209.115V31.9625C209.115 32.9889 209.709 33.4811 210.574 33.4811C211.439 33.4811 212.033 32.9889 212.033 31.9543V25.4133C212.033 24.3613 211.414 23.8522 210.532 23.8522C209.649 23.8522 209.03 24.3613 209.03 25.4133V29.2734C209.03 30.3168 208.436 31.0126 207.503 31.0126C206.562 31.0126 205.993 30.4271 205.993 29.3325V25.4133C205.993 24.3613 205.365 23.8522 204.491 23.8522C203.609 23.8522 202.982 24.3613 202.982 25.4133V29.9858C202.982 32.1663 204.381 33.4641 206.366 33.4641ZM217.904 33.5067C219.719 33.5067 221.348 32.6497 221.959 31.4027C222.112 31.1056 222.171 30.8515 222.171 30.6221C222.171 29.8755 221.586 29.4428 220.916 29.4428C220.279 29.4428 219.948 29.7061 219.558 30.2742C219.21 30.8171 218.744 31.2246 217.98 31.2246C216.877 31.2246 216.258 30.3168 216.258 28.6623C216.258 27.0252 216.894 26.1174 217.997 26.1174C218.676 26.1174 219.16 26.4484 219.592 27.2033C219.881 27.6867 220.245 27.9161 220.822 27.9161C221.509 27.9161 222.112 27.5004 222.112 26.7794C222.112 26.55 222.044 26.2703 221.925 26.0158C221.357 24.6836 219.796 23.8271 217.887 23.8271C215.011 23.8271 213.212 25.6761 213.212 28.6623C213.212 31.6828 215.011 33.5067 217.904 33.5067ZM224.123 30.8089C224.123 32.5224 225.03 33.4046 226.812 33.4046H226.888C228.05 33.4046 229 32.9637 229 32.0898C229 31.3944 228.61 31.0973 227.94 31.0209L227.753 30.9957C227.329 30.9531 227.134 30.7242 227.134 30.1469V26.2703H227.864C228.534 26.2703 228.975 25.829 228.975 25.1588C228.975 24.4886 228.534 24.0473 227.864 24.0473H227.134V23.3093C227.134 22.3337 226.583 21.7487 225.632 21.7487C224.674 21.7487 224.123 22.3337 224.123 23.3093V24.0473H223.792C223.121 24.0473 222.68 24.4803 222.68 25.1588C222.68 25.829 223.121 26.2703 223.792 26.2703H224.123V30.8089ZM166.019 54.3219C167.003 54.3219 167.571 53.7364 167.571 52.7013V49.5709H171.168C171.974 49.5709 172.466 49.13 172.466 48.3834C172.466 47.6285 171.957 47.1872 171.168 47.1872H167.571V44.4047H171.567C172.39 44.4047 172.95 43.9464 172.95 43.149C172.95 42.3515 172.407 41.8932 171.567 41.8932H166.019C165.034 41.8932 164.458 42.4874 164.458 43.5221V52.7013C164.458 53.7364 165.034 54.3219 166.019 54.3219ZM178.184 54.3558C181.094 54.3558 182.91 52.5997 182.91 49.5114C182.91 46.4831 181.068 44.6762 178.184 44.6762C175.317 44.6762 173.459 46.4913 173.459 49.5114C173.459 52.591 175.274 54.3558 178.184 54.3558ZM178.184 52.1501C177.149 52.1501 176.513 51.2084 176.513 49.5201C176.513 47.8574 177.166 46.8818 178.184 46.8818C179.211 46.8818 179.864 47.8574 179.864 49.5201C179.864 51.2084 179.211 52.1501 178.184 52.1501ZM185.632 54.3302C186.506 54.3302 187.134 53.8211 187.134 52.7691V43.2593C187.134 42.2073 186.506 41.6982 185.632 41.6982C184.75 41.6982 184.123 42.2073 184.123 43.2593V52.7691C184.123 53.8211 184.75 54.3302 185.632 54.3302ZM190.197 54.3302C191.071 54.3302 191.698 53.8211 191.698 52.7691V51.3778L192.462 50.6737L194.277 53.2951C194.778 54.0843 195.151 54.3302 195.838 54.3302C196.695 54.3302 197.289 53.779 197.289 52.9476C197.289 52.5571 197.187 52.2943 196.848 51.8278L194.727 49.0197L196.678 47.1872C197.128 46.7715 197.272 46.4831 197.272 46.0166C197.272 45.2612 196.695 44.7013 195.915 44.7013C195.448 44.7013 195.109 44.8881 194.684 45.3207L191.749 48.3408H191.698V43.2593C191.698 42.2073 191.071 41.6982 190.197 41.6982C189.315 41.6982 188.686 42.2073 188.686 43.2593V52.7691C188.686 53.8211 189.315 54.3302 190.197 54.3302ZM202.422 54.3558C204.992 54.3558 206.714 53.1339 206.714 51.1998C206.714 49.8172 205.857 49.0618 203.872 48.6718L202.269 48.3578C201.387 48.1797 201.106 47.9251 201.106 47.5264C201.106 47.026 201.599 46.7037 202.328 46.7037C203.21 46.7037 203.669 47.1785 204.127 47.6367C204.381 47.8743 204.814 48.0098 205.153 48.0098C205.934 48.0098 206.298 47.5859 206.298 47.0091C206.298 46.8649 206.273 46.7207 206.222 46.5765C205.891 45.5583 204.466 44.6762 202.353 44.6762C199.8 44.6762 198.214 45.8381 198.214 47.6962C198.214 49.0957 199.155 50.0544 200.979 50.411L202.591 50.7333C203.431 50.9031 203.728 51.1233 203.728 51.5307C203.728 52.0311 203.227 52.3282 202.447 52.3282C201.607 52.3282 201.03 52.0737 200.521 51.5138C200.088 51.0894 199.69 50.8944 199.215 50.8944C198.536 50.8944 198.044 51.3609 198.044 52.0229C198.044 52.1753 198.086 52.3534 198.154 52.5319C198.587 53.5922 200.063 54.3558 202.422 54.3558Z" fill="#018E98"/>
<path d="M152.713 25.2938C152.025 24.8343 151.34 24.5698 150.772 24.4182L150.769 18.7746C150.768 15.1972 150.191 12.2918 149.362 9.95932C149.339 9.85985 149.305 9.76516 149.261 9.67568C148.38 7.30497 147.242 5.54886 146.204 4.30096C143.887 1.5176 141.52 0.546817 141.42 0.505988C141.096 0.375681 140.735 0.375681 140.411 0.505553C140.311 0.545514 137.945 1.51413 135.632 4.29575C134.595 5.54365 133.457 7.30193 132.579 9.67481C132.538 9.75951 132.506 9.84942 132.483 9.94411C131.656 12.2766 131.081 15.1838 131.084 18.7646L131.086 24.4082C130.519 24.5598 129.834 24.823 129.146 25.2821C127.709 26.2412 125.997 28.2475 126 32.3626L126.001 35.7627C126.002 36.5133 126.61 37.1231 127.36 37.1235L131.888 37.1261L134.886 40.1293C135.141 40.3847 135.486 40.5271 135.846 40.5276L146.028 40.5328C146.388 40.5328 146.733 40.3899 146.988 40.1349L149.983 37.1348L154.511 37.1374C155.261 37.1379 155.868 36.5289 155.868 35.7783L155.867 32.3782C155.864 28.2627 154.15 26.2542 152.713 25.2938ZM131.093 34.4045L128.717 34.4032L128.716 32.3626C128.715 29.127 130.014 27.8157 131.089 27.2845L131.093 34.4045ZM137.617 6.16305C138.911 4.56809 140.223 3.68721 140.917 3.29195C141.615 3.68895 142.925 4.57243 144.221 6.16696C144.899 7.00266 145.486 7.92002 145.985 8.91209L135.855 8.90644C136.354 7.9148 136.939 6.99744 137.617 6.16305ZM148.057 25.5727L148.062 35.2089L145.465 37.8107L136.408 37.8063L133.809 35.2015L133.803 25.5649L133.799 18.7646C133.797 16.1259 134.124 13.7421 134.771 11.6251L147.075 11.6316C147.725 13.7491 148.052 16.1333 148.054 18.772L148.057 25.5727ZM153.153 34.4158L150.777 34.4144L150.773 27.3071C150.945 27.3913 151.123 27.493 151.299 27.6185C152.527 28.4946 153.151 30.0948 153.152 32.3756L153.153 34.4158Z" fill="#018E97"/>
<path d="M140.971 41.2068C140.222 41.2072 139.614 41.8166 139.614 42.5676L139.611 52.7728C139.611 53.5238 140.219 54.1332 140.968 54.1328C141.717 54.1324 142.325 53.523 142.325 52.772L142.327 42.5672C142.327 41.8162 141.72 41.2077 140.971 41.2068Z" fill="#F27B20"/>
<path d="M140.907 13.9937C139.353 13.9941 137.97 14.7473 137.102 15.9096C136.509 16.7049 136.158 17.6905 136.157 18.7577C136.157 19.5087 136.765 20.1181 137.513 20.1176C137.795 20.1172 138.055 20.0321 138.273 19.8844C138.634 19.6394 138.871 19.2255 138.871 18.7559C138.872 18.0527 139.229 17.4307 139.77 17.0632C140.094 16.8435 140.486 16.7145 140.907 16.7136C142.029 16.7136 142.942 17.6283 142.941 18.7538C142.941 19.5048 143.549 20.1142 144.298 20.1142C144.716 20.1137 145.088 19.9248 145.337 19.6277C145.536 19.391 145.655 19.0865 145.655 18.7533C145.656 16.1294 143.527 13.9932 140.907 13.9937Z" fill="#F48222"/>
<path d="M137.47 42.4028C137.47 41.6856 136.889 41.1042 136.172 41.1042C135.455 41.1042 134.873 41.6856 134.873 42.4028V46.7554C134.873 47.4726 135.455 48.0539 136.172 48.0539C136.889 48.0539 137.47 47.4726 137.47 46.7554V42.4028Z" fill="#F27B20"/>
<path d="M146.993 42.4028C146.993 41.6856 146.411 41.1042 145.694 41.1042C144.977 41.1042 144.396 41.6856 144.396 42.4028V46.7554C144.396 47.4726 144.977 48.0539 145.694 48.0539C146.411 48.0539 146.993 47.4726 146.993 46.7554V42.4028Z" fill="#F27B20"/>
<path d="M69.599 111.102C69.599 113.154 69.067 114.953 68.003 116.498H68.041L59.757 129H53.753L59.681 120.336C56.9197 120.311 54.665 119.437 52.917 117.714C51.1943 115.991 50.333 113.787 50.333 111.102C50.333 108.366 51.2197 106.149 52.993 104.452C54.7917 102.729 57.1097 101.868 59.947 101.868C62.7843 101.868 65.1023 102.729 66.901 104.452C68.6997 106.175 69.599 108.391 69.599 111.102ZM55.539 111.102C55.539 112.394 55.957 113.445 56.793 114.256C57.629 115.041 58.6803 115.434 59.947 115.434C61.2643 115.434 62.3283 115.041 63.139 114.256C63.975 113.445 64.393 112.394 64.393 111.102C64.393 109.81 63.975 108.771 63.139 107.986C62.3283 107.201 61.2643 106.808 59.947 106.808C58.6803 106.808 57.629 107.213 56.793 108.024C55.957 108.809 55.539 109.835 55.539 111.102ZM83.3069 113.382H89.5769V117.98H83.3069V124.25H78.7089V117.98H72.4769V113.382H78.7089V107.15H83.3069V113.382Z" fill="#EB1A36"/>
<path d="M12.421 170.273C10.209 170.273 8.375 169.545 6.919 168.089C5.463 166.605 4.735 164.792 4.735 162.65C4.735 160.494 5.463 158.688 6.919 157.232C8.361 155.762 10.195 155.027 12.421 155.027C13.751 155.027 14.976 155.342 16.096 155.972C17.23 156.602 18.112 157.456 18.742 158.534L16.642 159.752C16.25 159.024 15.676 158.45 14.92 158.03C14.178 157.596 13.345 157.379 12.421 157.379C10.867 157.379 9.593 157.876 8.599 158.87C7.633 159.85 7.15 161.11 7.15 162.65C7.15 164.19 7.633 165.45 8.599 166.43C9.593 167.424 10.867 167.921 12.421 167.921C13.345 167.921 14.185 167.711 14.941 167.291C15.697 166.857 16.264 166.276 16.642 165.548L18.742 166.745C18.14 167.809 17.265 168.67 16.117 169.328C15.011 169.958 13.779 170.273 12.421 170.273ZM22.8459 157.505C22.5659 157.785 22.2299 157.925 21.8379 157.925C21.4459 157.925 21.1029 157.785 20.8089 157.505C20.5289 157.211 20.3889 156.868 20.3889 156.476C20.3889 156.084 20.5289 155.748 20.8089 155.468C21.0889 155.174 21.4319 155.027 21.8379 155.027C22.2439 155.027 22.5869 155.174 22.8669 155.468C23.1469 155.748 23.2869 156.084 23.2869 156.476C23.2869 156.868 23.1399 157.211 22.8459 157.505ZM22.9719 170H20.7039V159.5H22.9719V170ZM31.4642 159.5V161.684H28.8602V166.724C28.8602 167.158 28.9582 167.473 29.1542 167.669C29.3502 167.851 29.6372 167.956 30.0152 167.984C30.4072 167.998 30.8902 167.991 31.4642 167.963V170C29.7282 170.21 28.4822 170.063 27.7262 169.559C26.9702 169.041 26.5922 168.096 26.5922 166.724V161.684H24.6602V159.5H26.5922V157.232L28.8602 156.56V159.5H31.4642ZM38.1153 167.123L40.8033 159.5H43.2183L39.1863 170.336C38.1783 173.052 36.4703 174.34 34.0623 174.2V172.079C34.7623 172.121 35.3293 171.974 35.7633 171.638C36.1973 171.302 36.5613 170.763 36.8553 170.021L36.9603 169.811L32.5083 159.5H34.9863L38.1153 167.123ZM56.9845 170.273C54.7725 170.273 52.9385 169.545 51.4825 168.089C50.0265 166.605 49.2985 164.792 49.2985 162.65C49.2985 160.494 50.0265 158.688 51.4825 157.232C52.9245 155.762 54.7585 155.027 56.9845 155.027C58.3145 155.027 59.5395 155.342 60.6595 155.972C61.7935 156.602 62.6755 157.456 63.3055 158.534L61.2055 159.752C60.8135 159.024 60.2395 158.45 59.4835 158.03C58.7415 157.596 57.9085 157.379 56.9845 157.379C55.4305 157.379 54.1565 157.876 53.1625 158.87C52.1965 159.85 51.7135 161.11 51.7135 162.65C51.7135 164.19 52.1965 165.45 53.1625 166.43C54.1565 167.424 55.4305 167.921 56.9845 167.921C57.9085 167.921 58.7485 167.711 59.5045 167.291C60.2605 166.857 60.8275 166.276 61.2055 165.548L63.3055 166.745C62.7035 167.809 61.8285 168.67 60.6805 169.328C59.5745 169.958 58.3425 170.273 56.9845 170.273ZM70.7903 159.227C72.0083 159.227 72.9813 159.619 73.7093 160.403C74.4513 161.173 74.8223 162.223 74.8223 163.553V170H72.5543V163.784C72.5543 163 72.3443 162.398 71.9243 161.978C71.5043 161.558 70.9303 161.348 70.2023 161.348C69.3763 161.348 68.7253 161.607 68.2493 162.125C67.7733 162.629 67.5353 163.378 67.5353 164.372V170H65.2673V155.3H67.5353V160.844C68.2353 159.766 69.3203 159.227 70.7903 159.227ZM85.5804 160.991V159.5H87.8484V170H85.5804V168.488C84.7264 169.678 83.5014 170.273 81.9054 170.273C80.4634 170.273 79.2314 169.741 78.2094 168.677C77.1874 167.613 76.6764 166.304 76.6764 164.75C76.6764 163.196 77.1874 161.887 78.2094 160.823C79.2314 159.759 80.4634 159.227 81.9054 159.227C83.5014 159.227 84.7264 159.815 85.5804 160.991ZM79.8894 167.165C80.5194 167.795 81.3104 168.11 82.2624 168.11C83.2144 168.11 84.0054 167.795 84.6354 167.165C85.2654 166.521 85.5804 165.716 85.5804 164.75C85.5804 163.784 85.2654 162.986 84.6354 162.356C84.0054 161.712 83.2144 161.39 82.2624 161.39C81.3104 161.39 80.5194 161.712 79.8894 162.356C79.2594 162.986 78.9444 163.784 78.9444 164.75C78.9444 165.702 79.2594 166.507 79.8894 167.165ZM96.4349 159.227C97.8629 159.227 99.0949 159.766 100.131 160.844C101.153 161.908 101.664 163.21 101.664 164.75C101.664 166.304 101.153 167.613 100.131 168.677C99.1089 169.741 97.8769 170.273 96.4349 170.273C94.8529 170.273 93.6279 169.685 92.7599 168.509V174.2H90.4919V159.5H92.7599V161.012C93.6139 159.822 94.8389 159.227 96.4349 159.227ZM93.7049 167.165C94.3349 167.795 95.1259 168.11 96.0779 168.11C97.0299 168.11 97.8209 167.795 98.4509 167.165C99.0809 166.521 99.3959 165.716 99.3959 164.75C99.3959 163.784 99.0809 162.986 98.4509 162.356C97.8209 161.712 97.0299 161.39 96.0779 161.39C95.1259 161.39 94.3349 161.712 93.7049 162.356C93.0749 162.986 92.7599 163.784 92.7599 164.75C92.7599 165.702 93.0749 166.507 93.7049 167.165ZM109.373 159.5V161.684H106.769V166.724C106.769 167.158 106.867 167.473 107.063 167.669C107.259 167.851 107.546 167.956 107.924 167.984C108.316 167.998 108.799 167.991 109.373 167.963V170C107.637 170.21 106.391 170.063 105.635 169.559C104.879 169.041 104.501 168.096 104.501 166.724V161.684H102.569V159.5H104.501V157.232L106.769 156.56V159.5H109.373ZM121.143 165.716H112.785C112.953 166.5 113.331 167.109 113.919 167.543C114.521 167.977 115.263 168.194 116.145 168.194C117.335 168.194 118.238 167.76 118.854 166.892L120.723 167.984C119.701 169.51 118.168 170.273 116.124 170.273C114.43 170.273 113.051 169.755 111.987 168.719C110.937 167.669 110.412 166.346 110.412 164.75C110.412 163.196 110.93 161.887 111.966 160.823C112.988 159.759 114.318 159.227 115.956 159.227C117.482 159.227 118.742 159.766 119.736 160.844C120.73 161.922 121.227 163.231 121.227 164.771C121.227 165.051 121.199 165.366 121.143 165.716ZM112.764 163.868H118.938C118.784 163.042 118.434 162.405 117.888 161.957C117.356 161.509 116.705 161.285 115.935 161.285C115.095 161.285 114.395 161.516 113.835 161.978C113.275 162.44 112.918 163.07 112.764 163.868ZM125.49 159.5V161.264C126.064 159.962 127.142 159.311 128.724 159.311V161.768C127.87 161.712 127.114 161.922 126.456 162.398C125.812 162.86 125.49 163.63 125.49 164.708V170H123.222V159.5H125.49ZM132.068 162.398C132.068 162.72 132.236 162.986 132.572 163.196C132.908 163.392 133.398 163.581 134.042 163.763C134.532 163.875 134.959 163.994 135.323 164.12C135.687 164.246 136.072 164.435 136.478 164.687C136.884 164.925 137.192 165.247 137.402 165.653C137.626 166.045 137.731 166.507 137.717 167.039C137.717 168.047 137.325 168.838 136.541 169.412C135.757 169.986 134.784 170.273 133.622 170.273C132.586 170.273 131.697 170.056 130.955 169.622C130.213 169.188 129.674 168.586 129.338 167.816L131.291 166.682C131.641 167.69 132.418 168.194 133.622 168.194C134.812 168.194 135.407 167.802 135.407 167.018C135.407 166.444 134.742 165.996 133.412 165.674C132.908 165.548 132.481 165.422 132.131 165.296C131.795 165.17 131.417 164.988 130.997 164.75C130.591 164.512 130.276 164.197 130.052 163.805C129.842 163.413 129.744 162.958 129.758 162.44C129.758 161.474 130.122 160.697 130.85 160.109C131.592 159.521 132.509 159.227 133.601 159.227C134.469 159.227 135.239 159.423 135.911 159.815C136.597 160.193 137.122 160.725 137.486 161.411L135.575 162.482C135.225 161.684 134.567 161.285 133.601 161.285C133.153 161.285 132.782 161.383 132.488 161.579C132.208 161.775 132.068 162.048 132.068 162.398Z" fill="#757272"/>
<path d="M19.8741 236.87L26.8661 234.4H31.4261V261H26.1821V239.948L21.1661 241.354L19.8741 236.87ZM46.1214 261.532C42.8027 261.532 40.1934 260.278 38.2934 257.77C36.4187 255.211 35.4814 251.855 35.4814 247.7C35.4814 243.545 36.4187 240.201 38.2934 237.668C40.1934 235.135 42.8027 233.868 46.1214 233.868C49.4907 233.868 52.1 235.135 53.9494 237.668C55.824 240.201 56.7614 243.545 56.7614 247.7C56.7614 251.855 55.824 255.211 53.9494 257.77C52.1 260.278 49.4907 261.532 46.1214 261.532ZM51.5554 247.7C51.5554 244.863 51.0867 242.697 50.1494 241.202C49.2374 239.707 47.8947 238.96 46.1214 238.96C44.348 238.96 43.0054 239.707 42.0934 241.202C41.1814 242.697 40.7254 244.863 40.7254 247.7C40.7254 250.537 41.1814 252.703 42.0934 254.198C43.0054 255.667 44.348 256.402 46.1214 256.402C47.8947 256.402 49.2374 255.655 50.1494 254.16C51.0867 252.665 51.5554 250.512 51.5554 247.7ZM70.0569 261.532C66.7382 261.532 64.1289 260.278 62.2289 257.77C60.3542 255.211 59.4169 251.855 59.4169 247.7C59.4169 243.545 60.3542 240.201 62.2289 237.668C64.1289 235.135 66.7382 233.868 70.0569 233.868C73.4262 233.868 76.0356 235.135 77.8849 237.668C79.7596 240.201 80.6969 243.545 80.6969 247.7C80.6969 251.855 79.7596 255.211 77.8849 257.77C76.0356 260.278 73.4262 261.532 70.0569 261.532ZM75.4909 247.7C75.4909 244.863 75.0222 242.697 74.0849 241.202C73.1729 239.707 71.8302 238.96 70.0569 238.96C68.2836 238.96 66.9409 239.707 66.0289 241.202C65.1169 242.697 64.6609 244.863 64.6609 247.7C64.6609 250.537 65.1169 252.703 66.0289 254.198C66.9409 255.667 68.2836 256.402 70.0569 256.402C71.8302 256.402 73.1729 255.655 74.0849 254.16C75.0222 252.665 75.4909 250.512 75.4909 247.7ZM93.9165 251.386L101.782 261H96.0825L89.1665 252.374V261H84.2645V234.4H89.1665V250.36L95.7025 242H101.554L93.9165 251.386ZM113.31 245.382H119.58V249.98H113.31V256.25H108.712V249.98H102.48V245.382H108.712V239.15H113.31V245.382Z" fill="#EB1A36"/>
<path d="M13.755 300.068C12.285 301.538 10.486 302.273 8.358 302.273C6.23 302.273 4.424 301.538 2.94 300.068C1.47 298.584 0.735 296.778 0.735 294.65C0.735 292.522 1.47 290.723 2.94 289.253C4.424 287.769 6.23 287.027 8.358 287.027C10.486 287.027 12.285 287.769 13.755 289.253C15.239 290.723 15.981 292.522 15.981 294.65C15.981 296.778 15.239 298.584 13.755 300.068ZM4.641 298.43C5.663 299.424 6.902 299.921 8.358 299.921C9.828 299.921 11.06 299.424 12.054 298.43C13.062 297.422 13.566 296.162 13.566 294.65C13.566 293.138 13.062 291.885 12.054 290.891C11.06 289.883 9.828 289.379 8.358 289.379C6.888 289.379 5.649 289.883 4.641 290.891C3.647 291.885 3.15 293.138 3.15 294.65C3.15 296.148 3.647 297.408 4.641 298.43ZM20.3049 291.5V293.264C20.8789 291.962 21.9569 291.311 23.5389 291.311V293.768C22.6849 293.712 21.9289 293.922 21.2709 294.398C20.6269 294.86 20.3049 295.63 20.3049 296.708V302H18.0369V291.5H20.3049ZM33.0804 293.054V291.5H35.3064V301.517C35.3064 303.113 34.7814 304.338 33.7314 305.192C32.6954 306.046 31.4214 306.473 29.9094 306.473C27.4874 306.473 25.8284 305.626 24.9324 303.932L26.8854 302.798C27.4314 303.876 28.4534 304.415 29.9514 304.415C30.9314 304.415 31.6944 304.156 32.2404 303.638C32.8004 303.134 33.0804 302.427 33.0804 301.517V300.236C32.2264 301.454 31.0084 302.063 29.4264 302.063C27.9564 302.063 26.7034 301.538 25.6674 300.488C24.6454 299.424 24.1344 298.143 24.1344 296.645C24.1344 295.133 24.6454 293.859 25.6674 292.823C26.6894 291.759 27.9424 291.227 29.4264 291.227C31.0084 291.227 32.2264 291.836 33.0804 293.054ZM27.3474 298.997C27.9914 299.627 28.7894 299.942 29.7414 299.942C30.6934 299.942 31.4844 299.627 32.1144 298.997C32.7584 298.367 33.0804 297.583 33.0804 296.645C33.0804 295.707 32.7584 294.923 32.1144 294.293C31.4844 293.663 30.6934 293.348 29.7414 293.348C28.7894 293.348 27.9914 293.663 27.3474 294.293C26.7174 294.923 26.4024 295.707 26.4024 296.645C26.4024 297.583 26.7174 298.367 27.3474 298.997ZM46.266 292.991V291.5H48.534V302H46.266V300.488C45.412 301.678 44.187 302.273 42.591 302.273C41.149 302.273 39.917 301.741 38.895 300.677C37.873 299.613 37.362 298.304 37.362 296.75C37.362 295.196 37.873 293.887 38.895 292.823C39.917 291.759 41.149 291.227 42.591 291.227C44.187 291.227 45.412 291.815 46.266 292.991ZM40.575 299.165C41.205 299.795 41.996 300.11 42.948 300.11C43.9 300.11 44.691 299.795 45.321 299.165C45.951 298.521 46.266 297.716 46.266 296.75C46.266 295.784 45.951 294.986 45.321 294.356C44.691 293.712 43.9 293.39 42.948 293.39C41.996 293.39 41.205 293.712 40.575 294.356C39.945 294.986 39.63 295.784 39.63 296.75C39.63 297.702 39.945 298.507 40.575 299.165ZM56.7005 291.227C57.9185 291.227 58.8915 291.619 59.6195 292.403C60.3615 293.173 60.7325 294.223 60.7325 295.553V302H58.4645V295.784C58.4645 295 58.2545 294.398 57.8345 293.978C57.4145 293.558 56.8405 293.348 56.1125 293.348C55.2865 293.348 54.6355 293.607 54.1595 294.125C53.6835 294.629 53.4455 295.378 53.4455 296.372V302H51.1775V291.5H53.4455V292.844C54.1455 291.766 55.2305 291.227 56.7005 291.227ZM65.3166 289.505C65.0366 289.785 64.7006 289.925 64.3086 289.925C63.9166 289.925 63.5736 289.785 63.2796 289.505C62.9996 289.211 62.8596 288.868 62.8596 288.476C62.8596 288.084 62.9996 287.748 63.2796 287.468C63.5596 287.174 63.9026 287.027 64.3086 287.027C64.7146 287.027 65.0576 287.174 65.3376 287.468C65.6176 287.748 65.7576 288.084 65.7576 288.476C65.7576 288.868 65.6106 289.211 65.3166 289.505ZM65.4426 302H63.1746V291.5H65.4426V302ZM73.0319 302.273C71.4499 302.273 70.1269 301.741 69.0629 300.677C68.0129 299.599 67.4879 298.29 67.4879 296.75C67.4879 295.182 68.0129 293.873 69.0629 292.823C70.1269 291.759 71.4499 291.227 73.0319 291.227C74.0539 291.227 74.9849 291.472 75.8249 291.962C76.6649 292.452 77.2949 293.11 77.7149 293.936L75.7619 295.07C75.5239 294.566 75.1599 294.174 74.6699 293.894C74.1939 293.6 73.6409 293.453 73.0109 293.453C72.0869 293.453 71.3099 293.768 70.6799 294.398C70.0639 295.042 69.7559 295.826 69.7559 296.75C69.7559 297.674 70.0639 298.458 70.6799 299.102C71.3099 299.732 72.0869 300.047 73.0109 300.047C73.6269 300.047 74.1799 299.907 74.6699 299.627C75.1739 299.333 75.5519 298.934 75.8039 298.43L77.7569 299.543C77.3089 300.383 76.6579 301.048 75.8039 301.538C74.9639 302.028 74.0399 302.273 73.0319 302.273ZM95.8798 302H93.2338L90.1258 296.645H87.2698V302H84.8548V287.3H90.7348C92.0508 287.3 93.1638 287.762 94.0738 288.686C94.9978 289.582 95.4598 290.695 95.4598 292.025C95.4598 292.963 95.1868 293.824 94.6408 294.608C94.1088 295.378 93.4088 295.938 92.5408 296.288L95.8798 302ZM90.7348 289.568H87.2698V294.482H90.7348C91.3788 294.482 91.9248 294.244 92.3728 293.768C92.8208 293.292 93.0448 292.711 93.0448 292.025C93.0448 291.339 92.8208 290.758 92.3728 290.282C91.9248 289.806 91.3788 289.568 90.7348 289.568ZM107.176 297.716H98.818C98.986 298.5 99.364 299.109 99.952 299.543C100.554 299.977 101.296 300.194 102.178 300.194C103.368 300.194 104.271 299.76 104.887 298.892L106.756 299.984C105.734 301.51 104.201 302.273 102.157 302.273C100.463 302.273 99.084 301.755 98.02 300.719C96.97 299.669 96.445 298.346 96.445 296.75C96.445 295.196 96.963 293.887 97.999 292.823C99.021 291.759 100.351 291.227 101.989 291.227C103.515 291.227 104.775 291.766 105.769 292.844C106.763 293.922 107.26 295.231 107.26 296.771C107.26 297.051 107.232 297.366 107.176 297.716ZM98.797 295.868H104.971C104.817 295.042 104.467 294.405 103.921 293.957C103.389 293.509 102.738 293.285 101.968 293.285C101.128 293.285 100.428 293.516 99.868 293.978C99.308 294.44 98.951 295.07 98.797 295.868ZM117.51 292.991V291.5H119.778V302H117.51V300.488C116.656 301.678 115.431 302.273 113.835 302.273C112.393 302.273 111.161 301.741 110.139 300.677C109.117 299.613 108.606 298.304 108.606 296.75C108.606 295.196 109.117 293.887 110.139 292.823C111.161 291.759 112.393 291.227 113.835 291.227C115.431 291.227 116.656 291.815 117.51 292.991ZM111.819 299.165C112.449 299.795 113.24 300.11 114.192 300.11C115.144 300.11 115.935 299.795 116.565 299.165C117.195 298.521 117.51 297.716 117.51 296.75C117.51 295.784 117.195 294.986 116.565 294.356C115.935 293.712 115.144 293.39 114.192 293.39C113.24 293.39 112.449 293.712 111.819 294.356C111.189 294.986 110.874 295.784 110.874 296.75C110.874 297.702 111.189 298.507 111.819 299.165ZM127.378 302.273C125.796 302.273 124.473 301.741 123.409 300.677C122.359 299.599 121.834 298.29 121.834 296.75C121.834 295.182 122.359 293.873 123.409 292.823C124.473 291.759 125.796 291.227 127.378 291.227C128.4 291.227 129.331 291.472 130.171 291.962C131.011 292.452 131.641 293.11 132.061 293.936L130.108 295.07C129.87 294.566 129.506 294.174 129.016 293.894C128.54 293.6 127.987 293.453 127.357 293.453C126.433 293.453 125.656 293.768 125.026 294.398C124.41 295.042 124.102 295.826 124.102 296.75C124.102 297.674 124.41 298.458 125.026 299.102C125.656 299.732 126.433 300.047 127.357 300.047C127.973 300.047 128.526 299.907 129.016 299.627C129.52 299.333 129.898 298.934 130.15 298.43L132.103 299.543C131.655 300.383 131.004 301.048 130.15 301.538C129.31 302.028 128.386 302.273 127.378 302.273ZM139.265 291.227C140.483 291.227 141.456 291.619 142.184 292.403C142.926 293.173 143.297 294.223 143.297 295.553V302H141.029V295.784C141.029 295 140.819 294.398 140.399 293.978C139.979 293.558 139.405 293.348 138.677 293.348C137.851 293.348 137.2 293.607 136.724 294.125C136.248 294.629 136.01 295.378 136.01 296.372V302H133.742V287.3H136.01V292.844C136.71 291.766 137.795 291.227 139.265 291.227Z" fill="#757272"/>
<path d="M251.596 104.87L258.588 102.4H263.148V129H257.904V107.948L252.888 109.354L251.596 104.87ZM277.843 129.532C274.524 129.532 271.915 128.278 270.015 125.77C268.14 123.211 267.203 119.855 267.203 115.7C267.203 111.545 268.14 108.201 270.015 105.668C271.915 103.135 274.524 101.868 277.843 101.868C281.212 101.868 283.822 103.135 285.671 105.668C287.546 108.201 288.483 111.545 288.483 115.7C288.483 119.855 287.546 123.211 285.671 125.77C283.822 128.278 281.212 129.532 277.843 129.532ZM283.277 115.7C283.277 112.863 282.808 110.697 281.871 109.202C280.959 107.707 279.616 106.96 277.843 106.96C276.07 106.96 274.727 107.707 273.815 109.202C272.903 110.697 272.447 112.863 272.447 115.7C272.447 118.537 272.903 120.703 273.815 122.198C274.727 123.667 276.07 124.402 277.843 124.402C279.616 124.402 280.959 123.655 281.871 122.16C282.808 120.665 283.277 118.512 283.277 115.7ZM301.779 129.532C298.46 129.532 295.851 128.278 293.951 125.77C292.076 123.211 291.139 119.855 291.139 115.7C291.139 111.545 292.076 108.201 293.951 105.668C295.851 103.135 298.46 101.868 301.779 101.868C305.148 101.868 307.757 103.135 309.607 105.668C311.481 108.201 312.419 111.545 312.419 115.7C312.419 119.855 311.481 123.211 309.607 125.77C307.757 128.278 305.148 129.532 301.779 129.532ZM307.213 115.7C307.213 112.863 306.744 110.697 305.807 109.202C304.895 107.707 303.552 106.96 301.779 106.96C300.005 106.96 298.663 107.707 297.751 109.202C296.839 110.697 296.383 112.863 296.383 115.7C296.383 118.537 296.839 120.703 297.751 122.198C298.663 123.667 300.005 124.402 301.779 124.402C303.552 124.402 304.895 123.655 305.807 122.16C306.744 120.665 307.213 118.512 307.213 115.7ZM326.588 113.382H332.858V117.98H326.588V124.25H321.99V117.98H315.758V113.382H321.99V107.15H326.588V113.382Z" fill="#EB1A36"/>
<path d="M259.293 163.721V167.69H265.803V170H256.878V155.3H265.698V157.61H259.293V161.432H265.173V163.721H259.293ZM272.066 167.48L274.985 159.5H277.463L273.368 170H270.743L266.648 159.5H269.126L272.066 167.48ZM288.633 165.716H280.275C280.443 166.5 280.821 167.109 281.409 167.543C282.011 167.977 282.753 168.194 283.635 168.194C284.825 168.194 285.728 167.76 286.344 166.892L288.213 167.984C287.191 169.51 285.658 170.273 283.614 170.273C281.92 170.273 280.541 169.755 279.477 168.719C278.427 167.669 277.902 166.346 277.902 164.75C277.902 163.196 278.42 161.887 279.456 160.823C280.478 159.759 281.808 159.227 283.446 159.227C284.972 159.227 286.232 159.766 287.226 160.844C288.22 161.922 288.717 163.231 288.717 164.771C288.717 165.051 288.689 165.366 288.633 165.716ZM280.254 163.868H286.428C286.274 163.042 285.924 162.405 285.378 161.957C284.846 161.509 284.195 161.285 283.425 161.285C282.585 161.285 281.885 161.516 281.325 161.978C280.765 162.44 280.408 163.07 280.254 163.868ZM296.235 159.227C297.453 159.227 298.426 159.619 299.154 160.403C299.896 161.173 300.267 162.223 300.267 163.553V170H297.999V163.784C297.999 163 297.789 162.398 297.369 161.978C296.949 161.558 296.375 161.348 295.647 161.348C294.821 161.348 294.17 161.607 293.694 162.125C293.218 162.629 292.98 163.378 292.98 164.372V170H290.712V159.5H292.98V160.844C293.68 159.766 294.765 159.227 296.235 159.227ZM308.568 159.5V161.684H305.964V166.724C305.964 167.158 306.062 167.473 306.258 167.669C306.454 167.851 306.741 167.956 307.119 167.984C307.511 167.998 307.994 167.991 308.568 167.963V170C306.832 170.21 305.586 170.063 304.83 169.559C304.074 169.041 303.696 168.096 303.696 166.724V161.684H301.764V159.5H303.696V157.232L305.964 156.56V159.5H308.568ZM312.273 162.398C312.273 162.72 312.441 162.986 312.777 163.196C313.113 163.392 313.603 163.581 314.247 163.763C314.737 163.875 315.164 163.994 315.528 164.12C315.892 164.246 316.277 164.435 316.683 164.687C317.089 164.925 317.397 165.247 317.607 165.653C317.831 166.045 317.936 166.507 317.922 167.039C317.922 168.047 317.53 168.838 316.746 169.412C315.962 169.986 314.989 170.273 313.827 170.273C312.791 170.273 311.902 170.056 311.16 169.622C310.418 169.188 309.879 168.586 309.543 167.816L311.496 166.682C311.846 167.69 312.623 168.194 313.827 168.194C315.017 168.194 315.612 167.802 315.612 167.018C315.612 166.444 314.947 165.996 313.617 165.674C313.113 165.548 312.686 165.422 312.336 165.296C312 165.17 311.622 164.988 311.202 164.75C310.796 164.512 310.481 164.197 310.257 163.805C310.047 163.413 309.949 162.958 309.963 162.44C309.963 161.474 310.327 160.697 311.055 160.109C311.797 159.521 312.714 159.227 313.806 159.227C314.674 159.227 315.444 159.423 316.116 159.815C316.802 160.193 317.327 160.725 317.691 161.411L315.78 162.482C315.43 161.684 314.772 161.285 313.806 161.285C313.358 161.285 312.987 161.383 312.693 161.579C312.413 161.775 312.273 162.048 312.273 162.398Z" fill="#757272"/>
<path d="M255.9 236.87L262.892 234.4H267.452V261H262.208V239.948L257.192 241.354L255.9 236.87ZM278.082 244.09H280.818C283.402 244.09 285.555 244.863 287.278 246.408C289.026 247.928 289.9 250.056 289.9 252.792C289.9 255.528 288.975 257.669 287.126 259.214C285.327 260.759 283.085 261.532 280.4 261.532C278.221 261.532 276.308 261.051 274.662 260.088C273.04 259.1 271.862 257.681 271.128 255.832L275.612 253.21C276.245 255.338 277.841 256.402 280.4 256.402C281.742 256.402 282.781 256.085 283.516 255.452C284.276 254.793 284.656 253.907 284.656 252.792C284.656 251.703 284.288 250.829 283.554 250.17C282.819 249.511 281.818 249.182 280.552 249.182H272.496L273.56 234.4H288.646V239.302H278.424L278.082 244.09ZM302.89 251.386L310.756 261H305.056L298.14 252.374V261H293.238V234.4H298.14V250.36L304.676 242H310.528L302.89 251.386ZM322.283 245.382H328.553V249.98H322.283V256.25H317.685V249.98H311.453V245.382H317.685V239.15H322.283V245.382Z" fill="#EB1A36"/>
<path d="M209.421 302.273C207.209 302.273 205.375 301.545 203.919 300.089C202.463 298.605 201.735 296.792 201.735 294.65C201.735 292.494 202.463 290.688 203.919 289.232C205.361 287.762 207.195 287.027 209.421 287.027C210.751 287.027 211.976 287.342 213.096 287.972C214.23 288.602 215.112 289.456 215.742 290.534L213.642 291.752C213.25 291.024 212.676 290.45 211.92 290.03C211.178 289.596 210.345 289.379 209.421 289.379C207.867 289.379 206.593 289.876 205.599 290.87C204.633 291.85 204.15 293.11 204.15 294.65C204.15 296.19 204.633 297.45 205.599 298.43C206.593 299.424 207.867 299.921 209.421 299.921C210.345 299.921 211.185 299.711 211.941 299.291C212.697 298.857 213.264 298.276 213.642 297.548L215.742 298.745C215.14 299.809 214.265 300.67 213.117 301.328C212.011 301.958 210.779 302.273 209.421 302.273ZM226.464 300.677C225.4 301.741 224.091 302.273 222.537 302.273C220.983 302.273 219.674 301.741 218.61 300.677C217.532 299.599 216.993 298.29 216.993 296.75C216.993 295.21 217.532 293.901 218.61 292.823C219.674 291.759 220.983 291.227 222.537 291.227C224.091 291.227 225.4 291.759 226.464 292.823C227.542 293.901 228.081 295.21 228.081 296.75C228.081 298.29 227.542 299.599 226.464 300.677ZM219.261 296.75C219.261 297.702 219.576 298.493 220.206 299.123C220.836 299.753 221.613 300.068 222.537 300.068C223.461 300.068 224.238 299.753 224.868 299.123C225.498 298.493 225.813 297.702 225.813 296.75C225.813 295.798 225.498 295.007 224.868 294.377C224.238 293.747 223.461 293.432 222.537 293.432C221.613 293.432 220.836 293.747 220.206 294.377C219.576 295.007 219.261 295.798 219.261 296.75ZM241.598 291.227C242.788 291.227 243.747 291.612 244.475 292.382C245.203 293.152 245.567 294.188 245.567 295.49V302H243.299V295.637C243.299 294.923 243.117 294.363 242.753 293.957C242.389 293.551 241.892 293.348 241.262 293.348C240.548 293.348 239.988 293.586 239.582 294.062C239.176 294.524 238.973 295.21 238.973 296.12V302H236.705V295.637C236.705 294.909 236.53 294.349 236.18 293.957C235.844 293.551 235.361 293.348 234.731 293.348C234.031 293.348 233.464 293.586 233.03 294.062C232.61 294.538 232.4 295.224 232.4 296.12V302H230.132V291.5H232.4V292.76C233.072 291.738 234.073 291.227 235.403 291.227C236.747 291.227 237.741 291.78 238.385 292.886C239.071 291.78 240.142 291.227 241.598 291.227ZM259.46 291.227C260.65 291.227 261.609 291.612 262.337 292.382C263.065 293.152 263.429 294.188 263.429 295.49V302H261.161V295.637C261.161 294.923 260.979 294.363 260.615 293.957C260.251 293.551 259.754 293.348 259.124 293.348C258.41 293.348 257.85 293.586 257.444 294.062C257.038 294.524 256.835 295.21 256.835 296.12V302H254.567V295.637C254.567 294.909 254.392 294.349 254.042 293.957C253.706 293.551 253.223 293.348 252.593 293.348C251.893 293.348 251.326 293.586 250.892 294.062C250.472 294.538 250.262 295.224 250.262 296.12V302H247.994V291.5H250.262V292.76C250.934 291.738 251.935 291.227 253.265 291.227C254.609 291.227 255.603 291.78 256.247 292.886C256.933 291.78 258.004 291.227 259.46 291.227ZM272.933 297.128V291.5H275.201V302H272.933V300.656C272.233 301.734 271.148 302.273 269.678 302.273C268.46 302.273 267.48 301.888 266.738 301.118C266.01 300.334 265.646 299.277 265.646 297.947V291.5H267.914V297.716C267.914 298.5 268.124 299.102 268.544 299.522C268.964 299.942 269.538 300.152 270.266 300.152C271.092 300.152 271.743 299.9 272.219 299.396C272.695 298.878 272.933 298.122 272.933 297.128ZM283.376 291.227C284.594 291.227 285.567 291.619 286.295 292.403C287.037 293.173 287.408 294.223 287.408 295.553V302H285.14V295.784C285.14 295 284.93 294.398 284.51 293.978C284.09 293.558 283.516 293.348 282.788 293.348C281.962 293.348 281.311 293.607 280.835 294.125C280.359 294.629 280.121 295.378 280.121 296.372V302H277.853V291.5H280.121V292.844C280.821 291.766 281.906 291.227 283.376 291.227ZM291.992 289.505C291.712 289.785 291.376 289.925 290.984 289.925C290.592 289.925 290.249 289.785 289.955 289.505C289.675 289.211 289.535 288.868 289.535 288.476C289.535 288.084 289.675 287.748 289.955 287.468C290.235 287.174 290.578 287.027 290.984 287.027C291.39 287.027 291.733 287.174 292.013 287.468C292.293 287.748 292.433 288.084 292.433 288.476C292.433 288.868 292.286 289.211 291.992 289.505ZM292.118 302H289.85V291.5H292.118V302ZM300.611 291.5V293.684H298.007V298.724C298.007 299.158 298.105 299.473 298.301 299.669C298.497 299.851 298.784 299.956 299.162 299.984C299.554 299.998 300.037 299.991 300.611 299.963V302C298.875 302.21 297.629 302.063 296.873 301.559C296.117 301.041 295.739 300.096 295.739 298.724V293.684H293.807V291.5H295.739V289.232L298.007 288.56V291.5H300.611ZM307.262 299.123L309.95 291.5H312.365L308.333 302.336C307.325 305.052 305.617 306.34 303.209 306.2V304.079C303.909 304.121 304.476 303.974 304.91 303.638C305.344 303.302 305.708 302.763 306.002 302.021L306.107 301.811L301.655 291.5H304.133L307.262 299.123ZM319.18 287.3H324.598C325.984 287.3 327.139 287.762 328.063 288.686C329.001 289.61 329.47 290.758 329.47 292.13C329.47 293.488 329.001 294.636 328.063 295.574C327.139 296.498 325.984 296.96 324.598 296.96H321.595V302H319.18V287.3ZM321.595 294.692H324.598C325.312 294.692 325.9 294.454 326.362 293.978C326.824 293.488 327.055 292.872 327.055 292.13C327.055 291.388 326.824 290.779 326.362 290.303C325.9 289.813 325.312 289.568 324.598 289.568H321.595V294.692ZM340.824 297.716H332.466C332.634 298.5 333.012 299.109 333.6 299.543C334.202 299.977 334.944 300.194 335.826 300.194C337.016 300.194 337.919 299.76 338.535 298.892L340.404 299.984C339.382 301.51 337.849 302.273 335.805 302.273C334.111 302.273 332.732 301.755 331.668 300.719C330.618 299.669 330.093 298.346 330.093 296.75C330.093 295.196 330.611 293.887 331.647 292.823C332.669 291.759 333.999 291.227 335.637 291.227C337.163 291.227 338.423 291.766 339.417 292.844C340.411 293.922 340.908 295.231 340.908 296.771C340.908 297.051 340.88 297.366 340.824 297.716ZM332.445 295.868H338.619C338.465 295.042 338.115 294.405 337.569 293.957C337.037 293.509 336.386 293.285 335.616 293.285C334.776 293.285 334.076 293.516 333.516 293.978C332.956 294.44 332.599 295.07 332.445 295.868ZM351.726 300.677C350.662 301.741 349.353 302.273 347.799 302.273C346.245 302.273 344.936 301.741 343.872 300.677C342.794 299.599 342.255 298.29 342.255 296.75C342.255 295.21 342.794 293.901 343.872 292.823C344.936 291.759 346.245 291.227 347.799 291.227C349.353 291.227 350.662 291.759 351.726 292.823C352.804 293.901 353.343 295.21 353.343 296.75C353.343 298.29 352.804 299.599 351.726 300.677ZM344.523 296.75C344.523 297.702 344.838 298.493 345.468 299.123C346.098 299.753 346.875 300.068 347.799 300.068C348.723 300.068 349.5 299.753 350.13 299.123C350.76 298.493 351.075 297.702 351.075 296.75C351.075 295.798 350.76 295.007 350.13 294.377C349.5 293.747 348.723 293.432 347.799 293.432C346.875 293.432 346.098 293.747 345.468 294.377C344.838 295.007 344.523 295.798 344.523 296.75ZM361.336 291.227C362.764 291.227 363.996 291.766 365.032 292.844C366.054 293.908 366.565 295.21 366.565 296.75C366.565 298.304 366.054 299.613 365.032 300.677C364.01 301.741 362.778 302.273 361.336 302.273C359.754 302.273 358.529 301.685 357.661 300.509V306.2H355.393V291.5H357.661V293.012C358.515 291.822 359.74 291.227 361.336 291.227ZM358.606 299.165C359.236 299.795 360.027 300.11 360.979 300.11C361.931 300.11 362.722 299.795 363.352 299.165C363.982 298.521 364.297 297.716 364.297 296.75C364.297 295.784 363.982 294.986 363.352 294.356C362.722 293.712 361.931 293.39 360.979 293.39C360.027 293.39 359.236 293.712 358.606 294.356C357.976 294.986 357.661 295.784 357.661 296.75C357.661 297.702 357.976 298.507 358.606 299.165ZM370.889 302H368.621V286.67H370.889V302ZM383.665 297.716H375.307C375.475 298.5 375.853 299.109 376.441 299.543C377.043 299.977 377.785 300.194 378.667 300.194C379.857 300.194 380.76 299.76 381.376 298.892L383.245 299.984C382.223 301.51 380.69 302.273 378.646 302.273C376.952 302.273 375.573 301.755 374.509 300.719C373.459 299.669 372.934 298.346 372.934 296.75C372.934 295.196 373.452 293.887 374.488 292.823C375.51 291.759 376.84 291.227 378.478 291.227C380.004 291.227 381.264 291.766 382.258 292.844C383.252 293.922 383.749 295.231 383.749 296.771C383.749 297.051 383.721 297.366 383.665 297.716ZM375.286 295.868H381.46C381.306 295.042 380.956 294.405 380.41 293.957C379.878 293.509 379.227 293.285 378.457 293.285C377.617 293.285 376.917 293.516 376.357 293.978C375.797 294.44 375.44 295.07 375.286 295.868Z" fill="#757272"/>
</svg>
