<svg width="174" height="54" viewBox="0 0 174 54" fill="none" xmlns="http://www.w3.org/2000/svg">
<rect y="7.44287" width="30.5646" height="3.66775" fill="#211E1F"/>
<rect x="12.2261" y="27.0049" width="18.3387" height="3.66775" fill="#211E1F"/>
<rect width="24.4516" height="3.05645" transform="matrix(0 -1 -1 0 3.05664 37.0918)" fill="#211E1F"/>
<rect x="15.2827" y="32.2007" width="18.3387" height="3.05645" transform="rotate(90 15.2827 32.2007)" fill="#211E1F"/>
<rect x="0.000488281" y="38.6191" width="30.5646" height="3.66775" fill="#211E1F"/>
<path d="M51.3992 12.96C50.9893 9.55861 48.4149 7.60265 45.0064 7.60265C41.116 7.60265 38.1461 10.3496 38.1461 15.1676C38.1461 19.9712 41.0657 22.7326 45.0064 22.7326C48.7817 22.7326 51.0612 20.2229 51.3992 17.5119L48.2495 17.4975C47.9547 19.0724 46.7178 19.9784 45.0567 19.9784C42.8203 19.9784 41.303 18.3173 41.303 15.1676C41.303 12.1042 42.7987 10.3568 45.0783 10.3568C46.7826 10.3568 48.0122 11.342 48.2495 12.96H51.3992ZM58.5651 22.747C61.9161 22.747 64.0015 20.453 64.0015 17.0517C64.0015 13.6287 61.9161 11.342 58.5651 11.342C55.2141 11.342 53.1287 13.6287 53.1287 17.0517C53.1287 20.453 55.2141 22.747 58.5651 22.747ZM58.5795 20.3739C57.0334 20.3739 56.2424 18.9573 56.2424 17.0301C56.2424 15.1029 57.0334 13.6791 58.5795 13.6791C60.0968 13.6791 60.8878 15.1029 60.8878 17.0301C60.8878 18.9573 60.0968 20.3739 58.5795 20.3739ZM65.9934 22.5312H69.0568V15.9011C69.0568 14.6786 69.8334 13.866 70.8546 13.866C71.8613 13.866 72.5373 14.5564 72.5373 15.6422V22.5312H75.5072V15.7861C75.5072 14.6427 76.1616 13.866 77.2762 13.866C78.2541 13.866 78.9876 14.4773 78.9876 15.707V22.5312H82.0438V15.1029C82.0438 12.7083 80.62 11.342 78.5634 11.342C76.9454 11.342 75.6869 12.169 75.2339 13.4346H75.1189C74.7665 12.1546 73.6375 11.342 72.1202 11.342C70.6316 11.342 69.5027 12.133 69.0424 13.4346H68.913V11.4858H65.9934V22.5312ZM84.4636 22.5312H87.527V15.9011C87.527 14.6786 88.3036 13.866 89.3248 13.866C90.3315 13.866 91.0075 14.5564 91.0075 15.6422V22.5312H93.9774V15.7861C93.9774 14.6427 94.6317 13.866 95.7464 13.866C96.7243 13.866 97.4578 14.4773 97.4578 15.707V22.5312H100.514V15.1029C100.514 12.7083 99.0902 11.342 97.0335 11.342C95.4156 11.342 94.1571 12.169 93.7041 13.4346H93.589C93.2367 12.1546 92.1077 11.342 90.5904 11.342C89.1018 11.342 87.9728 12.133 87.5126 13.4346H87.3832V11.4858H84.4636V22.5312ZM110.017 17.8283C110.024 19.3097 109.01 20.0863 107.91 20.0863C106.752 20.0863 106.004 19.2737 105.997 17.9721V11.4858H102.934V18.5186C102.941 21.1002 104.451 22.6751 106.673 22.6751C108.334 22.6751 109.528 21.8193 110.024 20.5249H110.139V22.5312H113.08V11.4858H110.017V17.8283ZM118.594 16.1456C118.601 14.7218 119.45 13.8876 120.687 13.8876C121.916 13.8876 122.657 14.693 122.65 16.0449V22.5312H125.713V15.4984C125.713 12.924 124.203 11.342 121.902 11.342C120.262 11.342 119.076 12.1474 118.58 13.4346H118.45V11.4858H115.531V22.5312H118.594V16.1456ZM128.128 22.5312H131.191V11.4858H128.128V22.5312ZM129.666 10.062C130.58 10.062 131.328 9.36446 131.328 8.50872C131.328 7.66018 130.58 6.96265 129.666 6.96265C128.76 6.96265 128.013 7.66018 128.013 8.50872C128.013 9.36446 128.76 10.062 129.666 10.062ZM139.52 11.4858H137.442V8.83951H134.378V11.4858H132.868V13.7869H134.378V19.5398C134.364 21.7043 135.838 22.7757 138.06 22.6823C138.851 22.6535 139.412 22.4953 139.721 22.3946L139.24 20.1151C139.089 20.1438 138.765 20.2157 138.477 20.2157C137.866 20.2157 137.442 19.9856 137.442 19.1371V13.7869H139.52V11.4858ZM143.407 26.6733C145.686 26.6733 146.894 25.5083 147.52 23.725L151.813 11.5002L148.57 11.4858L146.262 19.5973H146.147L143.86 11.4858H140.638L144.6 22.8477L144.421 23.3151C144.018 24.3506 143.249 24.4009 142.17 24.0701L141.48 26.3569C141.918 26.5439 142.63 26.6733 143.407 26.6733ZM38.405 47.5312H41.5187V41.4476H47.5089V38.8804H41.5187V35.3712H48.1561V32.804H38.405V47.5312ZM56.584 42.8283C56.5911 44.3097 55.5772 45.0863 54.477 45.0863C53.3192 45.0863 52.5714 44.2737 52.5642 42.9721V36.4858H49.5008V43.5186C49.508 46.1002 51.0181 47.6751 53.2401 47.6751C54.9012 47.6751 56.095 46.8193 56.5911 45.5249H56.7062V47.5312H59.6473V36.4858H56.584V42.8283ZM65.1611 41.1456C65.1683 39.7218 66.0168 38.8876 67.2537 38.8876C68.4833 38.8876 69.224 39.693 69.2168 41.0449V47.5312H72.2802V40.4984C72.2802 37.924 70.7701 36.342 68.4689 36.342C66.8294 36.342 65.6429 37.1474 65.1467 38.4346H65.0172V36.4858H62.0977V47.5312H65.1611V41.1456ZM78.7647 47.711C80.5481 47.711 81.4757 46.6827 81.9 45.7623H82.0294V47.5312H85.0497V32.804H81.9935V38.3411H81.9C81.4901 37.4422 80.6056 36.342 78.7575 36.342C76.3341 36.342 74.2847 38.226 74.2847 42.0229C74.2847 45.7191 76.2479 47.711 78.7647 47.711ZM79.7355 45.2733C78.2326 45.2733 77.4128 43.9357 77.4128 42.0085C77.4128 40.0957 78.2182 38.7798 79.7355 38.7798C81.2241 38.7798 82.0582 40.0382 82.0582 42.0085C82.0582 43.9789 81.2097 45.2733 79.7355 45.2733Z" fill="#211E1F"/>
<rect x="169.216" width="3.78947" height="53.9999" fill="#211E1F"/>
</svg>
