<svg width="560" height="550" viewBox="0 0 560 550" fill="none" xmlns="http://www.w3.org/2000/svg">
<path d="M554.977 274.989V276.635C554.939 280.769 554.821 284.885 554.621 288.981C551.055 359.093 520.809 425.186 470.082 473.715C419.354 522.244 351.988 549.535 281.787 549.994C211.586 550.453 143.868 524.046 92.5104 476.185C41.1527 428.323 10.0447 362.632 5.56156 292.573C5.1874 286.755 5.00038 280.894 5.00041 274.989C4.90171 218.034 22.5779 162.468 55.5646 116.038C58.2022 112.297 60.9458 108.624 63.7955 105.02C65.7596 102.513 67.7799 100.063 69.819 97.6309C116.239 42.6378 182.365 8.02941 254.009 1.23081C325.653 -5.56779 397.108 15.985 453.044 61.2651C456.355 63.9402 459.61 66.7087 462.79 69.5334C465.334 71.797 467.835 74.1104 470.291 76.4736C518.677 122.756 548.459 185.142 554.023 251.867C554.659 259.5 554.977 267.207 554.977 274.989Z" fill="#ECB4B6" fill-opacity="0.03"/>
<path d="M554.977 274.989V276.635C554.939 280.769 554.821 284.885 554.621 288.981C551.055 359.093 520.809 425.186 470.082 473.715C419.354 522.244 351.988 549.535 281.787 549.994C211.586 550.453 143.868 524.046 92.5104 476.185C41.1527 428.323 10.0447 362.632 5.56156 292.573C5.1874 286.755 5.00038 280.894 5.00041 274.989C4.90171 218.034 22.5779 162.468 55.5646 116.038C58.2022 112.297 60.9458 108.624 63.7955 105.02C65.7596 102.513 67.7799 100.063 69.819 97.6309C116.239 42.6378 182.365 8.02941 254.009 1.23081C325.653 -5.56779 397.108 15.985 453.044 61.2651C456.355 63.9402 459.61 66.7087 462.79 69.5334C465.334 71.797 467.835 74.1104 470.291 76.4736C518.677 122.756 548.459 185.142 554.023 251.867C554.659 259.5 554.977 267.207 554.977 274.989Z" fill="url(#paint0_linear)" fill-opacity="0.06"/>
<path d="M63.7954 105.02C63.9302 105.077 64.0562 105.152 64.1696 105.245C65.6474 106.46 63.7955 108.799 64.02 110.726C64.2819 113.195 67.5742 113.737 70.0621 113.981C72.5501 114.242 75.6929 116.244 74.5144 118.451C68.2664 120.603 61.9435 118.489 55.5645 116.038C22.5779 162.468 4.90173 218.034 5.00041 274.989C5.00041 280.9 5.18742 286.762 5.56156 292.573C6.08459 292.955 6.65736 293.263 7.26389 293.49C9.13456 294.201 11.3045 294.07 13.0256 295.08C14.3911 295.884 15.3078 297.306 16.6734 298.054C20.5831 300.187 26.008 296.09 29.6558 298.634C30.5987 299.493 31.4918 300.405 32.3308 301.365C35.698 304.283 41.2352 302.319 45.1261 304.508C47.6328 305.911 48.9237 308.717 50.2706 311.261C53.619 317.621 59.044 323.869 66.2086 324.374C68.4683 324.271 70.7326 324.346 72.9804 324.599C75.1878 325.104 77.3578 327.031 77.0024 329.257C76.3851 333.092 78.2744 337.282 77.7694 341.117C76.8527 348.132 66.9194 351.2 66.0776 358.215C66.0748 359.759 65.9875 361.301 65.8158 362.835C65.3668 364.669 63.9825 366.165 63.4961 367.998C62.5608 371.459 65.0488 374.92 67.7613 377.24C70.4924 379.578 73.7474 381.598 75.244 384.853C76.8153 388.314 76.0483 392.336 76.5534 396.096C77.6758 404.308 84.7656 410.388 92.0612 414.316C94.3991 415.293 96.4752 416.805 98.1222 418.731C99.9929 421.443 99.8058 425.016 100.442 428.253C101.976 436.166 108.635 442.694 108.822 450.757C108.953 456.5 105.773 461.7 103.865 467.106C101.902 472.774 101.319 478.827 102.163 484.765C112.829 493.812 124.167 502.035 136.078 509.365C136.726 508.407 137.201 507.344 137.481 506.222C137.707 504.982 137.551 503.702 137.033 502.553C136.515 501.404 135.66 500.439 134.582 499.787C136.592 499.027 138.421 497.855 139.95 496.345C140.702 495.572 141.198 494.587 141.372 493.523C141.546 492.46 141.389 491.368 140.923 490.396C144.216 490.808 148.125 491.013 150.295 488.488C152.035 486.468 151.923 483.437 151.23 480.874C150.538 478.293 149.379 475.805 149.36 473.13C156.988 473.501 164.633 473.245 172.219 472.363C171.122 468.663 168.625 465.536 165.26 463.646C168.703 463.066 171.827 458.95 172.912 455.639C173.85 452.261 173.901 448.698 173.061 445.294C172.801 444.42 172.762 443.494 172.949 442.601C173.502 441.414 174.475 440.475 175.68 439.963C181.367 436.689 187.054 433.422 192.741 430.161C193.755 429.649 194.678 428.973 195.472 428.159C197.249 426.045 196.987 422.884 196.07 420.284C195.154 417.683 193.695 415.233 193.339 412.502C192.292 404.327 201.046 398.453 204.002 390.746C205.007 387.669 205.549 384.46 205.611 381.224C205.854 377.745 205.873 373.723 203.216 371.497C200.654 369.345 196.669 369.832 193.994 367.83C191.543 365.997 190.702 362.461 188.027 360.983C185.595 359.637 182.564 360.497 179.852 359.861C175.1 358.757 172.107 353.276 167.243 352.771C164.512 352.472 161.407 353.819 159.162 352.229C157.179 350.807 157.104 347.982 156.73 345.588C156.066 341.858 154.276 338.421 151.601 335.739C148.925 333.057 145.493 331.259 141.765 330.585C138.94 330.136 135.872 330.304 133.459 328.752C131.027 327.18 129.924 324.244 127.997 322.055C124.929 318.557 120.065 317.303 115.519 316.237C109.346 314.797 103.179 313.35 97.0185 311.897C93.7449 311.111 89.5171 310.7 87.74 313.581C87.214 314.676 86.8486 315.842 86.655 317.041C85.9868 319.2 84.6542 321.093 82.8471 322.45C81.0399 323.807 78.8505 324.559 76.5909 324.599C75.0439 321.958 72.5379 320.014 69.5945 319.174C67.6712 318.851 65.7715 318.401 63.9077 317.827C62.9344 317.35 62.0685 316.68 61.3632 315.857C60.6579 315.034 60.1279 314.075 59.8057 313.041C59.4835 312.006 59.3759 310.916 59.4894 309.838C59.6028 308.76 59.935 307.717 60.4657 306.772C61.5264 304.873 61.9344 302.679 61.6269 300.526C61.3193 298.373 60.3132 296.381 58.7633 294.855C55.6206 292.031 51.0749 291.338 46.8472 291.619C45.7435 289.206 47.5955 286.493 49.5784 284.735C51.58 282.995 53.9932 281.274 54.4235 278.655C55.1156 274.54 49.859 271.416 45.8745 272.632C41.89 273.866 39.3458 277.739 37.6622 281.555C36.8457 283.807 35.7322 285.939 34.3512 287.896C33.6436 288.865 32.6819 289.618 31.5726 290.074C30.4633 290.529 29.2496 290.669 28.0658 290.478C24.7734 289.636 23.52 285.726 22.7904 282.434C21.6214 278.034 21.0303 273.5 21.032 268.947C21.0606 264.349 22.8868 259.944 26.1202 256.675C31.5639 251.662 39.9444 252.148 47.2961 252.952C46.5086 251.902 46.1313 250.601 46.2346 249.292C46.3379 247.984 46.9148 246.757 47.8574 245.844C48.8412 244.97 50.0234 244.35 51.3013 244.037C52.5792 243.724 53.9142 243.728 55.1904 244.048C57.4068 244.507 59.4038 245.7 60.8585 247.434C62.9536 249.978 63.5522 253.439 65.1236 256.32C66.7137 259.219 70.268 261.688 73.1675 260.136C75.6929 258.789 76.0857 255.309 75.4684 252.522C74.8324 249.754 73.5042 247.041 73.7286 244.198C74.1589 238.791 79.7897 235.518 84.7469 233.292C89.7042 231.066 95.3723 228.054 96.158 222.666C96.1943 221.619 96.3963 220.583 96.7566 219.598C97.3052 218.72 98.0721 217.998 98.9827 217.503C113.443 207.944 128.165 198.254 144.702 193.035C145.562 192.754 145.656 193.054 146.535 192.848C147.77 192.137 146.947 190.173 145.768 189.387C144.589 188.602 143.018 187.984 142.719 186.6C142.513 185.59 143.112 184.58 143.261 183.551C143.3 182.929 143.187 182.308 142.93 181.741C142.673 181.173 142.28 180.678 141.787 180.298C141.294 179.917 140.716 179.664 140.102 179.559C139.488 179.454 138.858 179.502 138.267 179.697C136.939 177.939 139.557 175.9 141.69 175.301C148.075 173.552 154.628 172.486 161.238 172.121C162.001 171.995 162.785 172.127 163.465 172.495C163.951 172.964 164.239 173.601 164.27 174.276C164.302 174.951 164.074 175.612 163.633 176.124C162.733 177.124 161.737 178.032 160.659 178.837C159.585 179.879 158.819 181.196 158.443 182.644C158.067 184.092 158.096 185.616 158.526 187.049C161.987 188.807 165.728 190.622 169.563 190.005C173.379 189.387 176.765 185.085 174.969 181.661C173.304 178.462 168.272 177.733 167.412 174.235C166.402 170.138 172.201 166.49 170.891 162.487C170.33 160.729 168.571 159.681 167.225 158.428C165.64 156.867 164.561 154.865 164.131 152.683C163.701 150.5 163.938 148.239 164.811 146.193C162.621 146.576 160.372 146.429 158.25 145.766C156.128 145.102 154.196 143.94 152.615 142.377C149.696 139.44 147.377 134.782 143.224 134.932C139.426 135.044 136.153 139.478 132.598 138.131C131.719 137.794 130.803 137.121 129.961 137.514C129.683 137.692 129.45 137.931 129.278 138.213C129.106 138.495 129.001 138.812 128.969 139.141C128.072 143.462 129.624 148.382 127.267 152.123C124.704 156.183 118.774 156.744 115.669 160.411C113.985 162.393 113.331 165.068 111.778 167.164C110.225 169.259 106.952 170.606 105.081 168.772C105.997 166.894 106.248 164.761 105.793 162.722C105.337 160.682 104.202 158.858 102.574 157.548C100.851 156.418 98.9904 155.512 97.0371 154.855C94.8552 153.934 92.7791 152.78 90.8452 151.413C89.8814 150.826 89.0983 149.984 88.5817 148.981C88.1731 147.719 88.2261 146.353 88.7314 145.127C89.6785 142.426 91.3442 140.033 93.5492 138.207C95.7542 136.381 98.4152 135.191 101.246 134.764C103.715 134.427 106.596 134.539 108.242 132.65C109.103 131.658 109.552 130.143 110.824 129.75C111.625 129.583 112.459 129.682 113.2 130.031C116.286 131.116 119.354 132.201 122.441 133.286C123.47 133.758 124.607 133.945 125.733 133.828C126.291 133.757 126.801 133.475 127.159 133.04C127.517 132.606 127.696 132.052 127.66 131.49C127.361 129.956 125.004 129.227 125.228 127.674C125.337 127.167 125.606 126.708 125.995 126.365C129.332 122.816 133.411 120.048 137.942 118.26C142.472 116.471 147.342 115.707 152.203 116.02C153.363 117.946 151.53 120.21 149.977 121.837C148.443 123.484 147.209 126.402 149.079 127.655C149.834 128.051 150.678 128.244 151.53 128.216C153.805 128.522 156.015 129.191 158.077 130.199C161.276 131.584 164.419 133.118 167.487 134.764C167.035 132.758 167.112 130.67 167.711 128.703C168.049 127.737 168.734 126.932 169.634 126.445C170.533 125.957 171.581 125.822 172.575 126.065C174.408 126.776 175.343 129.208 177.308 129.432C179.908 129.732 180.937 125.878 179.852 123.484C178.767 121.089 176.597 119.106 176.428 116.469C176.297 114.71 176.971 112.522 175.568 111.455C175.069 111.125 174.498 110.919 173.903 110.857C162.155 108.705 150.401 106.548 138.641 104.384C136.546 103.991 133.534 104.291 133.44 106.404C133.384 107.602 134.451 108.78 133.983 109.865C133.478 111.025 131.832 110.931 130.634 111.343C129.735 111.751 128.993 112.441 128.52 113.308C128.048 114.176 127.87 115.174 128.015 116.151C128.335 118.096 129.09 119.944 130.223 121.557C127.922 120.603 124.461 120.434 122.16 119.462C121.826 116.797 121.146 114.188 120.14 111.698C120.082 111.302 119.939 110.923 119.719 110.589C119.499 110.254 119.209 109.972 118.868 109.761C118.528 109.551 118.145 109.418 117.748 109.371C117.35 109.324 116.947 109.365 116.567 109.491C113.536 109.959 110.506 110.408 107.475 110.875C106.714 110.911 105.986 111.194 105.399 111.68C104.221 112.933 105.38 114.935 105.343 116.656C105.233 117.618 104.827 118.522 104.18 119.243C103.533 119.964 102.677 120.465 101.733 120.678C99.8286 121.064 97.864 121.039 95.9708 120.603C91.7244 119.948 87.4967 119.293 83.2503 118.639C86.9986 117.444 90.3322 115.213 92.8656 112.204C94.5492 110.221 95.4471 106.517 93.0152 105.581C92.297 105.384 91.5476 105.327 90.8078 105.413C85.0462 105.45 80.5005 100.643 75.113 98.6038C73.4189 97.9719 71.627 97.6426 69.8189 97.6311L63.7954 105.02Z" fill="#463A3E" fill-opacity="0.1"/>
<path d="M554.621 288.981C553.961 289.867 553.095 290.577 552.097 291.05C551.099 291.523 550 291.744 548.897 291.694C543.042 291.189 540.572 282.752 534.773 281.798C534.26 281.667 533.717 281.72 533.239 281.948C532.379 282.415 532.229 283.575 532.173 284.548C531.93 289.374 531.724 294.388 533.614 298.84C536.363 305.35 543.491 310.812 541.994 317.715C533.95 313.992 529.76 304.957 527.871 296.296C525.962 287.635 525.663 278.543 522.258 270.35C519.658 273.661 514.233 270.93 511.876 267.45C509.632 264.158 508.247 260.342 506.077 256.993C503.907 253.663 500.578 250.67 496.612 250.483C492.44 250.296 488.811 253.158 485.631 255.871C482.864 257.914 480.541 260.498 478.803 263.466C476.577 267.955 477.157 273.231 477.045 278.225C476.932 283.613 475.791 289.318 472.106 293.284C468.421 297.231 461.63 298.615 457.571 295.042C455.608 292.996 454.21 290.476 453.512 287.728C449.098 274.867 445.426 261.763 442.512 248.482C441.839 251.512 439.164 255.422 436.619 253.645C436.051 253.161 435.591 252.561 435.272 251.886C430.521 243.861 421.748 239.035 412.862 236.135C403.995 233.254 394.66 231.908 385.887 228.727C380.967 226.941 376.266 224.6 371.876 221.75C370.76 223.393 370.109 225.306 369.991 227.288C369.872 229.27 370.291 231.247 371.202 233.011C372.188 234.737 373.717 236.089 375.55 236.857C377.384 237.625 379.419 237.766 381.341 237.258C383.287 236.622 384.933 235.275 386.86 234.601C388.786 233.947 391.387 234.265 392.228 236.135C393.052 237.912 391.817 240.064 392.434 241.934C393.351 244.759 397.635 244.984 399.131 247.565C399.571 248.587 399.672 249.724 399.42 250.807C399.167 251.891 398.575 252.866 397.728 253.589C396.007 254.992 394.107 256.162 392.079 257.068C385.793 260.566 381.322 266.534 375.823 271.173C370.323 275.831 362.56 279.217 356.012 276.242C357.565 268.329 348.156 262.53 346.416 254.655C345.836 252.055 346.135 249.305 345.331 246.779C344.152 243.113 340.897 240.606 338.241 237.838C335.014 234.439 332.499 230.429 330.844 226.044C329.19 221.658 328.429 216.987 328.607 212.303C328.757 209.048 329.355 205.737 328.607 202.557C327.878 199.395 325.24 196.327 321.985 196.458C314.558 196.795 305.186 197.356 301.295 191.015C299.892 188.751 299.294 185.44 301.314 183.701C302.736 182.485 304.831 182.597 306.683 182.784C312.276 183.326 317.851 183.888 323.444 184.43C327.354 184.804 331.581 185.122 334.949 183.083C338.316 181.044 339.775 175.601 336.651 173.187C334.387 171.429 330.309 171.522 329.636 168.735C329.093 166.397 331.675 163.759 330.272 161.795C329.281 160.411 327.036 160.785 325.67 161.832C324.478 163.07 323.183 164.202 321.798 165.218C319.123 166.603 315.943 165.274 313.062 164.377C310.181 163.479 306.327 163.404 304.943 166.079C303.372 169.053 306.309 172.982 304.775 175.975C302.717 179.922 295.796 177.677 292.915 181.082C289.622 184.973 295.159 190.809 294.056 195.785C292.635 196.49 291.055 196.814 289.471 196.725C287.888 196.637 286.354 196.139 285.02 195.28C283.712 194.39 282.669 193.161 282.003 191.724C281.338 190.288 281.075 188.698 281.242 187.124C281.504 184.879 282.682 182.578 281.896 180.464C281.049 178.832 279.651 177.553 277.949 176.854C272.524 173.842 267.099 170.843 261.674 167.856C260.159 170.662 262.067 174.123 264.462 176.237C266.838 178.332 269.831 179.922 271.402 182.69C272.397 184.609 272.622 186.835 272.031 188.914C271.44 190.993 270.077 192.768 268.222 193.877C267.987 194.039 267.72 194.147 267.439 194.196C267.158 194.244 266.87 194.231 266.594 194.158C266.335 194.005 266.109 193.803 265.929 193.562C265.749 193.321 265.619 193.046 265.547 192.755C262.685 185.403 258.363 178.163 251.479 174.328C244.576 170.475 234.681 171.279 230.154 177.733C229.087 179.267 228.358 181.025 227.423 182.653C222.465 191.277 211.802 195.355 201.85 195.093C200.877 195.155 199.907 194.927 199.063 194.438C197.454 193.334 197.529 190.977 197.772 189.032C198.128 186.282 198.465 183.551 198.82 180.801C198.829 179.122 199.478 177.51 200.635 176.293C202.487 174.834 205.143 175.75 207.5 175.713C209.279 175.633 210.99 175.007 212.399 173.919C213.809 172.831 214.848 171.334 215.375 169.633C215.85 167.917 215.846 166.103 215.364 164.389C214.883 162.675 213.942 161.124 212.644 159.906C211.578 158.896 210.138 157.623 210.699 156.258C210.927 155.882 211.234 155.56 211.599 155.314C211.964 155.069 212.378 154.906 212.813 154.836C217.022 153.62 221.492 153.302 225.627 151.843C229.78 150.403 233.801 147.447 234.793 143.163C235.092 141.854 235.223 140.264 236.402 139.609C236.997 139.37 237.631 139.243 238.272 139.235C240.522 138.912 242.569 137.761 244.012 136.006C245.456 134.251 246.191 132.02 246.073 129.751C248.056 128.366 250.843 129.395 252.77 130.873C254.678 132.351 256.38 134.296 258.719 134.932C263.077 136.13 267.286 132.257 271.813 132.239C273.722 132.239 275.686 132.912 277.463 132.257C279.277 131.602 280.362 129.807 281.747 128.478C283.15 127.132 285.582 126.327 286.872 127.768C286.498 125.055 286.143 122.361 285.769 119.668C287.973 120.223 290.27 120.299 292.506 119.893C294.742 119.486 296.865 118.606 298.732 117.311C294.018 115.721 289.323 114.13 284.609 112.54C284.114 112.418 283.657 112.174 283.281 111.83C282.252 110.726 283.281 109.005 284.104 107.751C286.105 104.74 286.442 99.7825 283.15 98.2859C280.905 97.257 278.342 98.4917 276.191 99.6889C272.749 101.597 269.307 103.524 265.865 105.432C265.547 107.396 267.941 108.518 269.419 109.828C270.32 110.627 270.957 111.68 271.248 112.848C271.539 114.016 271.469 115.245 271.048 116.372C270.627 117.5 269.874 118.474 268.889 119.166C267.903 119.857 266.732 120.234 265.528 120.248C266.206 121.133 266.677 122.158 266.907 123.249C267.137 124.34 267.12 125.468 266.856 126.552C264.555 126.72 262.236 126.888 259.916 127.057C259.531 127.134 259.134 127.133 258.749 127.056C258.364 126.979 257.997 126.827 257.671 126.608C256.923 125.953 257.035 124.793 256.848 123.821C256.54 122.658 255.89 121.614 254.984 120.824C254.077 120.034 252.954 119.533 251.76 119.387C249.377 119.119 246.964 119.342 244.67 120.042C243.673 120.393 242.581 120.367 241.602 119.967C241.047 119.599 240.627 119.061 240.405 118.433C239.998 117.15 239.929 115.784 240.204 114.467C240.479 113.149 241.09 111.925 241.976 110.913C243.773 108.918 245.752 107.096 247.888 105.469C252.728 101.232 256.286 95.7236 258.158 89.5687C261.974 87.9599 265.921 85.7899 269.756 84.1811C272.839 82.7524 276.069 81.6671 279.39 80.9449C282.515 80.4676 285.681 80.3172 288.837 80.4959C293.139 80.5707 297.46 80.6456 301.763 80.7391C305.604 80.5777 309.441 81.1295 313.08 82.3666C316.616 83.8257 319.74 86.9871 319.983 90.8033C320.057 91.2382 320.018 91.6847 319.871 92.1005C319.723 92.5162 319.472 92.8875 319.141 93.179C318.645 93.4537 318.081 93.5833 317.514 93.5532C313.941 93.6654 312.426 94.5633 308.853 94.6943C311.116 97.1075 313.66 99.6515 316.953 100.082C322.752 100.83 326.923 94.8252 329.598 89.6061C329.694 90.9345 330.305 92.173 331.301 93.0573C332.297 93.9415 333.599 94.4014 334.93 94.3388C336.363 94.0924 337.731 93.5579 338.952 92.7675C350.458 86.4793 363.347 83.1495 376.459 83.0774C376.33 82.0848 376.574 81.0797 377.145 80.2571C377.715 79.4344 378.57 78.8529 379.545 78.6253C382.22 78.1015 384.615 80.4024 385.906 82.7968C387.178 85.1913 387.982 87.9599 390.04 89.7557C392.079 91.5515 396.026 91.458 396.83 88.8765C397.616 86.3885 395.016 84.2559 392.864 82.7781C390.694 81.319 388.431 78.6065 389.89 76.4365C400.89 73.9859 411.983 71.5541 423.263 71.0677C425.18 71.1257 427.089 70.7948 428.875 70.0949C429.759 69.7204 430.495 69.0646 430.968 68.2292C431.442 67.3938 431.627 66.4254 431.494 65.4744C429.032 66.0488 426.456 65.8789 424.091 64.9863C421.726 64.0937 419.68 62.5186 418.212 60.461C429.791 59.5069 441.913 58.6652 453.044 61.2654L462.79 69.5337C460.938 71.4605 458.469 73.2751 459.816 75.2018C460.26 75.6443 460.799 75.9803 461.392 76.1844C461.985 76.3886 462.616 76.4555 463.239 76.3804C465.596 76.4178 467.953 76.4739 470.291 76.4739C518.677 122.757 548.459 185.142 554.022 251.868C550.094 251.718 546.484 256.694 546.989 261.034C547.587 266.066 551.216 270.107 553.817 274.447C554.247 275.152 554.634 275.883 554.976 276.635L554.621 288.981Z" fill="#463A3E" fill-opacity="0.1"/>
<path d="M487.075 295.453C486.283 292.83 486.366 290.02 487.311 287.448C488.824 283.531 492.508 280.705 493.804 276.702C496.213 269.267 489.721 262.307 485.739 255.568C482.086 249.316 480.431 242.095 480.996 234.873C481.616 227.12 484.786 219.706 485.028 211.933C485.245 204.689 482.901 197.643 480.587 190.779C478.677 185.105 476.732 179.366 473.501 174.329C467.392 164.804 456.539 158.818 445.38 157.829C440.113 157.359 434.961 159.075 429.785 158.404C422.597 157.475 415.802 155.608 408.474 155.375C401.513 155.169 393.816 156.052 389.073 161.16C385.449 165.072 384.29 170.72 380.973 174.899C376.265 180.83 368.034 182.864 362.827 188.356C360.578 190.783 358.998 193.755 358.244 196.979C357.49 200.203 357.588 203.569 358.528 206.744C359.249 209.086 360.428 211.261 361.194 213.588C364.415 223.31 360.186 233.707 357.631 243.621C357.343 244.431 357.29 245.306 357.479 246.144C357.883 247.356 359.153 247.992 360.206 248.709C363.654 251.061 365.413 255.321 365.751 259.485C366.088 263.649 365.126 267.798 364.178 271.866C361.764 282.209 358.744 293.288 350.786 300.168C349.34 296.717 347.632 293.382 345.675 290.194C340.805 282.29 337.202 272.528 337.141 263.185C337.138 263.156 337.138 263.127 337.141 263.099C337.141 262.594 337.166 262.089 337.197 261.585C337.827 250.561 342.585 239.926 342.479 228.953C342.479 228.064 342.454 227.174 342.403 226.283C341.783 216.889 337.277 208.202 332.111 200.338C328.255 194.468 323.91 188.8 318.345 184.525C309.741 177.968 298.808 175.121 288.067 173.617C277.326 172.113 267.553 170.7 256.726 169.973C245.082 169.19 232.269 168.751 223.065 175.929C211.064 185.287 210.399 203.362 201.25 215.526C195.807 222.764 187.137 228.357 184.269 236.579C183.493 234.562 182.847 232.496 182.334 230.396C182.303 230.255 182.273 230.119 182.243 229.977C185.702 220.056 186.506 209.401 184.577 199.072C184.804 197.399 184.92 195.712 184.924 194.024C184.981 192.187 184.782 190.35 184.335 188.568C183.039 183.651 179.465 179.719 176.013 175.989C174.756 174.565 173.391 173.241 171.93 172.027C162.894 161.065 150.261 153.675 136.287 151.179C122.313 148.683 107.908 151.243 95.6448 158.401C83.3815 165.559 74.0584 176.85 69.3408 190.256C64.6232 203.663 64.8182 218.312 69.891 231.587C69.4474 235.03 68.1167 238.376 65.6721 240.804C64.5582 241.91 63.1166 243.293 63.3586 244.706C63.2835 245.108 63.3401 245.524 63.5198 245.892C63.7675 246.333 64.1123 246.711 64.5279 246.997C68.0542 249.696 72.4458 251.007 76.872 250.682C80.607 261.675 87.9293 271.087 97.6589 277.404C97.6589 277.74 97.6471 278.066 97.6236 278.383C97.6236 278.943 97.5782 279.498 97.553 280.064C97.553 280.19 97.553 280.316 97.553 280.442C97.553 280.397 97.553 280.346 97.553 280.296C97.553 280.245 80.0021 303.206 63.782 304.059C55.1224 304.514 47.5668 310.364 41.8408 317.052C34.9657 325.077 30.7216 334.304 30.3587 336.858C29.6883 341.542 25.0108 364.306 25.0108 364.306H159.762C158.17 372.503 156.022 382.947 156.022 382.947H374.168C373.664 375.925 373.105 369.434 372.586 363.938H400.011L399.98 364.104H526.496L534.52 352.046C532.529 316.91 511.833 297.594 487.075 295.453ZM172.096 256.204C174.942 257.738 178 258.84 181.169 259.475C182.545 259.758 184.083 259.934 185.257 259.162C186.035 258.573 186.611 257.756 186.905 256.825L186.966 256.976C190.368 265.557 193.518 274.41 194.128 283.627C194.184 284.495 194.219 285.363 194.224 286.237C194.238 291.494 193.154 296.697 191.043 301.51C179.647 295.509 168.657 288.765 158.144 281.32L157.434 281.018C157.434 281.073 157.681 281.704 157.973 282.769C158.044 283.026 158.119 283.309 158.195 283.612C157.474 281.28 156.819 278.898 156.244 276.47C156.179 276.182 156.113 275.894 156.048 275.607C162.912 270.562 168.424 263.897 172.096 256.204Z" fill="url(#paint1_linear)"/>
<path d="M406.453 157.162C399.603 156.955 392.022 157.829 387.359 162.856C383.791 166.702 382.652 172.264 379.385 176.378C374.753 182.218 366.653 184.217 361.522 189.623C359.307 192.012 357.752 194.937 357.01 198.111C356.267 201.285 356.363 204.598 357.288 207.723C357.999 210.025 359.158 212.17 359.914 214.456C363.084 224.047 358.946 234.258 356.386 244.014C356.1 244.814 356.049 245.68 356.24 246.508C356.633 247.699 357.888 248.325 358.921 249.032C362.313 251.348 364.047 255.538 364.355 259.631C364.662 263.725 363.74 267.813 362.807 271.816C360.332 282.416 357.207 293.828 348.613 300.506C344.984 303.358 340.135 305.669 339.188 310.212C338.079 315.532 343.149 320.055 348.013 322.462C362.293 329.529 378.871 329.63 394.492 332.78C408.247 335.556 421.967 340.815 435.889 339.018C442.094 338.221 448.026 336.035 453.898 333.87L490.462 320.378C491.495 320.062 492.466 319.572 493.335 318.929C495.538 317.092 495.613 313.599 494.414 310.99C493.214 308.38 491.036 306.381 489.121 304.241C484.948 299.562 481.772 292.955 484.05 287.11C485.563 283.254 489.166 280.472 490.442 276.51C492.811 269.191 486.409 262.337 482.528 255.704C478.938 249.557 477.309 242.458 477.861 235.358C478.471 227.726 481.591 220.427 481.818 212.775C482.029 205.648 479.726 198.713 477.447 191.955C475.567 186.372 473.652 180.724 470.471 175.762C464.458 166.389 453.777 160.499 442.789 159.519C437.603 159.06 432.537 160.746 427.441 160.09C420.359 159.217 413.665 157.379 406.453 157.162Z" fill="#F7D6C8"/>
<path d="M416.68 357.452C416.68 357.452 375.227 331.427 391.346 301.425C395.076 294.489 396.724 287.928 397.062 281.936C397.151 280.358 397.151 278.775 397.062 277.197C397.062 277.121 397.062 277.045 397.062 276.97C397.008 276.155 396.936 275.354 396.845 274.567C394.925 258.728 384.763 248.406 384.763 248.406C384.763 248.406 453.52 228.312 442.008 246.427C436.665 254.836 438.263 263.084 441.842 271.619C442.22 272.518 442.623 273.426 443.041 274.33C447.174 283.329 452.91 292.652 454.513 302.762C457.8 323.517 416.68 357.452 416.68 357.452Z" fill="#EFB7B9"/>
<path opacity="0.1" d="M442.008 246.427C436.665 254.836 438.263 263.084 441.842 271.619C435.208 275.902 427.595 278.422 419.72 278.941C411.845 279.46 403.967 277.962 396.83 274.587C394.925 258.728 384.763 248.406 384.763 248.406C384.763 248.406 453.525 228.307 442.008 246.427Z" fill="black"/>
<path d="M416.675 278.055C442.294 278.055 463.062 257.257 463.062 231.603C463.062 205.948 442.294 185.151 416.675 185.151C391.055 185.151 370.287 205.948 370.287 231.603C370.287 257.257 391.055 278.055 416.675 278.055Z" fill="#EFB7B9"/>
<path opacity="0.1" d="M397.062 277.212C397.062 277.138 397.062 277.063 397.062 276.988L397.117 276.899C397.087 277.008 397.067 277.113 397.062 277.212Z" fill="black"/>
<path opacity="0.1" d="M416.68 357.452C416.68 357.452 375.227 331.427 391.346 301.425C395.076 294.489 396.724 287.928 397.062 281.936C398.005 289.346 403.111 298.558 412.405 311.308C416.438 316.86 418.172 324.623 418.721 332.381L419.643 333.052L424.18 330.306C424.684 321.726 426.418 313.054 430.521 306.906C441.302 290.754 443.863 282.678 443.066 274.309C447.2 283.309 452.936 292.632 454.538 302.742C457.8 323.517 416.68 357.452 416.68 357.452Z" fill="black"/>
<path d="M483.133 294.939C458.435 293.142 442.809 273.941 442.809 273.941C444.125 282.936 441.988 290.986 430.47 308.264C426.393 314.392 424.664 323.048 424.16 331.649L419.623 334.395L418.701 333.723C418.151 325.97 416.423 318.197 412.385 312.65C400.873 296.836 395.752 286.459 397.087 278.221C397.087 278.221 384.421 298.81 359.748 300.46C335.075 302.111 314.348 319.57 312.367 351.526L320.261 362.398H398.121L398.09 362.565H522.59L530.513 350.688C528.532 315.8 507.831 296.735 483.133 294.939Z" fill="#FF2C48"/>
<path opacity="0.05" d="M483.133 294.939C458.435 293.142 442.809 273.941 442.809 273.941C444.125 282.936 441.988 290.986 430.47 308.264C426.393 314.392 424.664 323.048 424.16 331.649L419.623 334.395L418.701 333.723C418.151 325.97 416.423 318.197 412.385 312.65C400.873 296.836 395.752 286.459 397.087 278.221C397.087 278.221 384.421 298.81 359.748 300.46C335.075 302.111 314.348 319.57 312.367 351.526L320.261 362.398H398.121L398.09 362.565H522.59L530.513 350.688C528.532 315.8 507.831 296.735 483.133 294.939Z" fill="black"/>
<path opacity="0.1" d="M448.036 209.151C446.02 214.148 442.441 218.368 438.53 222.073C433.127 227.196 426.332 231.709 418.902 231.36C422.953 227.582 425.885 222.758 427.375 217.419C422.688 220.155 419.144 224.486 414.668 227.57C410.193 230.654 403.867 232.244 399.492 229.023C407.438 225.023 414.04 218.777 418.479 211.059C407.854 213.82 402.4 225.803 392.828 231.184C388.342 233.707 383.095 234.656 377.954 234.545C374.299 234.47 370.227 233.617 368.19 230.578C367.001 228.811 366.724 226.59 366.678 224.455C366.456 214.774 370.393 205.275 376.457 197.739C382.52 190.203 390.57 184.474 399.179 180.027C402.244 178.442 405.439 176.999 408.852 176.494C413.096 175.878 417.421 176.782 421.584 177.741C426.997 178.983 432.441 180.345 437.426 182.788C448.067 188.063 452.714 197.623 448.036 209.151Z" fill="black"/>
<path d="M448.036 208.49C446.02 213.487 442.441 217.707 438.53 221.412C433.127 226.535 426.332 231.047 418.902 230.699C422.953 226.921 425.885 222.097 427.375 216.758C422.688 219.494 419.144 223.824 414.668 226.908C410.193 229.992 403.867 231.582 399.492 228.362C407.438 224.361 414.04 218.116 418.479 210.398C407.854 213.159 402.4 225.142 392.828 230.522C388.342 233.046 383.095 233.995 377.954 233.884C374.299 233.808 370.227 232.955 368.19 229.917C367.001 228.15 366.724 225.929 366.678 223.794C366.456 214.113 370.393 204.614 376.457 197.078C382.52 189.542 390.57 183.813 399.179 179.366C402.244 177.781 405.439 176.338 408.852 175.833C413.096 175.217 417.421 176.121 421.584 177.08C426.997 178.321 432.441 179.684 437.426 182.127C448.067 187.392 452.714 196.962 448.036 208.49Z" fill="#F7D6C8"/>
<path d="M128.189 270.019C160.712 270.019 187.077 243.617 187.077 211.049C187.077 178.481 160.712 152.079 128.189 152.079C95.6662 152.079 69.3013 178.481 69.3013 211.049C69.3013 243.617 95.6662 270.019 128.189 270.019Z" fill="#C3705A"/>
<path d="M180.993 324.542C180.993 324.542 127.06 338.377 125.724 339.685C124.388 340.992 80.3247 343.309 93.1527 316.294C97.8655 306.376 99.8263 292.904 100.421 279.826C100.446 279.271 100.471 278.721 100.492 278.171C101.303 256.25 98.42 235.908 98.42 235.908C98.42 235.908 160.922 211.175 156.32 248.759C155.171 258.107 156.123 267.5 158.21 276.333C158.906 279.281 159.722 282.163 160.629 284.96C167.928 307.492 180.993 324.542 180.993 324.542Z" fill="#ECB4B6"/>
<path opacity="0.1" d="M158.205 276.344C149.915 282.498 139.947 285.972 129.633 286.3C119.318 286.629 109.15 283.796 100.487 278.181C101.298 256.26 98.415 235.918 98.415 235.918C98.415 235.918 160.917 211.186 156.315 248.769C155.171 258.122 156.123 267.516 158.205 276.344Z" fill="black"/>
<path d="M128.023 285.333C156.002 285.333 178.684 262.62 178.684 234.601C178.684 206.582 156.002 183.869 128.023 183.869C100.043 183.869 77.361 206.582 77.361 234.601C77.361 262.62 100.043 285.333 128.023 285.333Z" fill="#ECB4B6"/>
<path opacity="0.1" d="M180.993 324.542C180.993 324.542 127.06 338.377 125.724 339.685C124.388 340.992 80.3247 343.309 93.1527 316.294C97.8655 306.376 99.8263 292.904 100.421 279.826C100.925 286.661 104.826 303.211 105.325 308.718C105.357 309.04 105.421 309.358 105.517 309.667C106.248 312.115 108.854 314.937 111.994 317.612L112.18 317.768C116.087 321.049 120.934 323.001 126.02 323.341C131.107 323.682 136.17 322.393 140.478 319.661C144.961 316.833 149.263 313.728 153.361 310.364C159.228 305.513 161.058 298.977 161.285 293.202C161.379 290.43 161.159 287.657 160.629 284.934C167.928 307.492 180.993 324.542 180.993 324.542Z" fill="black"/>
<path d="M249.094 362.762H28.9877C28.9877 362.762 33.5947 340.361 34.2499 335.747C34.6078 333.224 38.7863 324.138 45.5557 316.249C51.1909 309.687 58.6256 303.908 67.149 303.459C83.102 302.621 100.376 280.069 100.376 280.069C100.759 286.63 104.801 303.767 105.31 309.389C105.342 309.711 105.406 310.029 105.502 310.338C106.233 312.786 108.839 315.608 111.979 318.283L112.165 318.44C116.07 321.722 120.917 323.675 126.004 324.016C131.091 324.357 136.155 323.069 140.462 320.337C144.945 317.508 149.247 314.403 153.346 311.04C159.213 306.189 161.043 299.653 161.269 293.879C161.385 290.047 160.921 286.22 159.893 282.527C159.606 281.477 159.389 280.861 159.359 280.806L160.06 281.103C160.06 281.103 189.864 302.808 217.168 311.681C220.368 312.724 223.388 314.257 226.12 316.224C228.333 317.826 230.371 319.658 232.199 321.69C235.895 325.876 238.952 330.585 241.272 335.667C247.602 349.103 249.094 362.762 249.094 362.762Z" fill="#FF2C48"/>
<path opacity="0.05" d="M249.094 362.762H28.9877C28.9877 362.762 33.5947 340.361 34.2499 335.747C34.6078 333.224 38.7863 324.138 45.5557 316.249C51.1909 309.687 58.6256 303.908 67.149 303.459C83.102 302.621 100.376 280.069 100.376 280.069C100.759 286.63 104.801 303.767 105.31 309.389C105.342 309.711 105.406 310.029 105.502 310.338C106.233 312.786 108.839 315.608 111.979 318.283L112.165 318.44C116.07 321.722 120.917 323.675 126.004 324.016C131.091 324.357 136.155 323.069 140.462 320.337C144.945 317.508 149.247 314.403 153.346 311.04C159.213 306.189 161.043 299.653 161.269 293.879C161.385 290.047 160.921 286.22 159.893 282.527C159.606 281.477 159.389 280.861 159.359 280.806L160.06 281.103C160.06 281.103 189.864 302.808 217.168 311.681C220.368 312.724 223.388 314.257 226.12 316.224C228.333 317.826 230.371 319.658 232.199 321.69C235.895 325.876 238.952 330.585 241.272 335.667C247.602 349.103 249.094 362.762 249.094 362.762Z" fill="black"/>
<path opacity="0.1" d="M152.378 217.566C153.689 222.613 155.402 228.221 159.904 230.851C160.507 231.14 161.062 231.52 161.552 231.976C162.661 233.182 162.323 235.065 162.157 236.701C161.582 242.313 163.991 248.002 167.943 252.025C171.895 256.048 177.243 258.506 182.762 259.636C184.113 259.914 185.63 260.091 186.794 259.328C187.581 258.73 188.16 257.898 188.448 256.951C189.985 252.858 189.335 248.259 188.049 244.08C186.764 239.901 184.869 235.913 183.896 231.648C181.583 221.528 184.647 211.069 186.028 200.778C186.487 197.355 186.754 193.827 185.872 190.491C184.597 185.655 181.078 181.779 177.681 178.109C175.852 176.136 173.981 174.127 171.633 172.835C164.707 169.044 155.79 172.411 148.396 169.65C145.437 168.544 142.922 166.525 140.105 165.107C134.122 162.079 127.03 161.912 120.472 163.29C113.914 164.668 107.77 167.5 101.686 170.306L97.0339 172.416C90.4813 175.444 83.4599 178.866 79.9316 185.201C76.1765 191.945 77.2198 200.576 73.4647 207.319C72.3256 209.338 70.7378 211.276 70.4404 213.598C70.2388 215.274 70.7529 216.95 71.2318 218.57C72.4012 222.512 73.4193 226.565 73.3286 230.684C73.2379 234.803 71.9274 239.022 69.014 241.92C67.7841 243.141 66.1409 244.706 66.897 246.266C67.145 246.702 67.49 247.075 67.9051 247.356C70.2978 249.175 73.1105 250.361 76.0825 250.802C79.0545 251.243 82.0896 250.926 84.9065 249.88C87.1143 249.037 89.201 247.684 90.451 245.69C91.282 244.23 91.8838 242.65 92.2354 241.006C93.8281 235.065 95.431 229.023 95.305 222.87C95.2344 219.337 94.5893 215.774 95.1034 212.271C95.6175 208.768 97.6589 205.159 101.061 204.195C103.581 203.473 106.278 204.346 108.909 204.321C112.7 204.291 117.347 200.081 120.86 201.318C123.884 202.388 126.279 208.182 128.779 210.403C135.12 216.072 143.971 219.034 152.378 217.566Z" fill="black"/>
<path d="M152.378 216.904C153.689 221.952 155.402 227.56 159.904 230.189C160.498 230.473 161.047 230.844 161.532 231.29C162.64 232.496 162.303 234.379 162.136 236.014C161.562 241.627 163.971 247.315 167.923 251.338C171.875 255.361 177.223 257.819 182.742 258.95C184.093 259.228 185.61 259.404 186.774 258.642C187.561 258.043 188.14 257.211 188.427 256.265C189.965 252.171 189.315 247.573 188.029 243.394C186.744 239.214 184.849 235.227 183.876 230.962C181.562 220.841 184.627 210.383 186.008 200.091C186.467 196.669 186.734 193.141 185.852 189.804C184.577 184.969 181.058 181.092 177.661 177.423C175.831 175.449 173.961 173.44 171.612 172.148C164.687 168.358 155.77 171.724 148.376 168.963C145.417 167.858 142.902 165.839 140.084 164.421C134.101 161.392 127.009 161.226 120.452 162.603C113.894 163.981 107.75 166.813 101.666 169.619L97.0742 171.739C90.5216 174.768 83.5002 178.19 79.9719 184.525C76.2168 191.268 77.2601 199.899 73.505 206.643C72.3659 208.662 70.7781 210.6 70.4807 212.922C70.2791 214.598 70.7932 216.273 71.2721 217.894C72.4415 221.836 73.4596 225.889 73.3689 230.008C73.2782 234.126 71.9677 238.346 69.0543 241.243C67.8244 242.465 66.1812 244.03 66.9373 245.589C67.1853 246.025 67.5303 246.398 67.9454 246.679C70.3381 248.499 73.1508 249.684 76.1228 250.126C79.0948 250.567 82.1299 250.25 84.9468 249.203C87.1546 248.36 89.2413 247.008 90.4913 245.014C91.3223 243.553 91.9241 241.973 92.2757 240.33C93.8684 234.389 95.4713 228.347 95.3453 222.194C95.2747 218.661 94.6296 215.097 95.1437 211.594C95.6578 208.091 97.6992 204.482 101.102 203.518C103.622 202.797 106.318 203.67 108.95 203.645C112.74 203.614 117.387 199.405 120.9 200.641C123.925 201.711 126.319 207.506 128.819 209.727C135.12 215.415 143.971 218.378 152.378 216.904Z" fill="#C3705A"/>
<path d="M321.143 238.452H205.666V337.615H321.143V238.452Z" fill="#463A3E"/>
<path opacity="0.05" d="M321.143 238.452H205.666V337.615H321.143V238.452Z" fill="black"/>
<path d="M304.585 381.104H205.792C207.067 373.901 210.797 366.007 218.065 357.497C223.804 350.807 228.498 343.285 231.987 335.187C232.925 333.023 233.765 330.855 234.507 328.681C236.691 322.226 238.176 315.556 238.938 308.784C238.938 308.592 238.983 308.4 239.003 308.208C239.513 303.529 239.718 298.822 239.618 294.116C239.618 293.778 239.618 293.449 239.618 293.106C239.265 281.559 237.358 270.112 233.948 259.076L233.822 258.682C232.748 255.296 231.962 253.393 231.962 253.393C231.962 253.393 233.923 252.328 237.159 250.758L237.431 250.627C249.331 244.903 277.502 232.96 289.922 241.47L290.124 241.607C294.469 244.706 296.807 250.394 295.709 259.869C295.709 259.904 295.709 259.944 295.709 259.98C295.709 260.156 295.668 260.328 295.653 260.484C294.988 267.014 294.673 273.575 294.711 280.139C294.711 280.467 294.711 280.795 294.711 281.149C294.711 282.687 294.727 284.245 294.761 285.823C294.761 286.035 294.761 286.247 294.761 286.459C294.862 291.557 295.089 296.821 295.406 302.161C295.845 309.566 296.47 317.107 297.19 324.507C297.498 327.671 297.831 330.816 298.199 333.91C298.239 334.274 298.279 334.647 298.32 335.005C298.743 338.776 299.181 342.471 299.63 346.054L299.66 346.287C301.374 360.52 303.269 372.947 304.585 381.104Z" fill="#C17174"/>
<path opacity="0.1" d="M295.668 259.889C295.668 259.924 295.668 259.964 295.668 260C294.958 266.706 294.621 273.446 294.66 280.19C294.66 280.518 294.66 280.846 294.66 281.199C288.027 288.909 279.124 294.317 269.231 296.645C259.338 298.974 248.962 298.105 239.593 294.161C239.593 293.823 239.593 293.495 239.593 293.152C239.238 281.466 237.288 269.884 233.797 258.728C232.723 255.341 231.937 253.438 231.937 253.438C231.937 253.438 233.897 252.373 237.133 250.803C248.918 245.1 277.674 232.784 290.083 241.627C294.423 244.726 296.762 250.415 295.668 259.889Z" fill="black"/>
<path d="M258.248 296.897C284.783 296.897 306.294 275.356 306.294 248.784C306.294 222.212 284.783 200.672 258.248 200.672C231.713 200.672 210.202 222.212 210.202 248.784C210.202 275.356 231.713 296.897 258.248 296.897Z" fill="#C17174"/>
<path opacity="0.1" d="M260.793 380.776H158.296C158.296 380.776 162.903 358.375 163.558 353.762C163.916 351.238 168.094 342.153 174.864 334.264C183.558 327.318 194.327 323.492 205.449 323.396C225.051 323.104 230.757 329.862 232.305 334.859C232.845 336.535 232.983 338.314 232.708 340.053L236.418 345.434L260.793 380.776Z" fill="black"/>
<path d="M260.466 381.104H157.968C157.968 381.104 162.575 358.703 163.23 354.09C163.588 351.566 167.767 342.481 174.536 334.592C183.231 327.646 194 323.82 205.121 323.724C224.724 323.432 230.43 330.19 231.977 335.187C232.518 336.863 232.656 338.642 232.38 340.381L236.09 345.762L260.466 381.104Z" fill="#FF2C48"/>
<path opacity="0.1" d="M372.354 380.776H264.962C270.083 369.864 283.506 340.77 284.252 334.041C284.539 331.437 287.311 328.994 290.981 326.919C292.14 326.255 293.332 325.652 294.554 325.112L294.776 325.011C295.448 324.715 296.129 324.441 296.817 324.189C306.107 320.783 316.314 320.864 325.548 324.416C334.364 327.772 345.71 332.295 354.541 336.53L354.611 336.565C356.88 337.655 358.992 338.72 360.852 339.745C364.571 341.789 367.288 343.657 368.332 345.151C368.81 345.837 369.34 348.932 369.919 353.732C370.69 360.223 371.532 369.853 372.354 380.776Z" fill="black"/>
<path d="M372.681 381.104H265.289C270.41 370.192 283.833 341.098 284.579 334.37C284.867 331.765 287.639 329.322 291.308 327.248C292.467 326.583 293.66 325.98 294.882 325.441L295.104 325.34C295.776 325.043 296.456 324.769 297.145 324.517C306.434 321.112 316.641 321.192 325.876 324.744C334.691 328.101 346.038 332.623 354.868 336.858L354.939 336.893C357.207 337.984 359.319 339.049 361.179 340.073C364.899 342.117 367.616 343.985 368.659 345.479C369.138 346.166 369.667 349.26 370.247 354.06C371.023 360.551 371.86 370.187 372.681 381.104Z" fill="#FF2C48"/>
<path opacity="0.1" d="M355.398 328.333C355.398 329.884 355.356 331.437 355.272 332.992C355.225 333.749 355.168 334.506 355.1 335.263C355.055 335.808 355 336.348 354.944 336.888L354.874 337.514C354.052 344.853 352.535 352.152 352.353 359.526C352.353 359.874 352.353 360.223 352.353 360.571C352.318 367.496 353.437 374.315 354.954 381.104H293.108C293.007 379.847 292.957 378.58 292.972 377.334C292.972 376.208 293.042 375.083 293.158 373.952C294.111 364.659 298.854 355.963 299.57 346.731L299.6 346.307C299.645 345.615 299.67 344.919 299.66 344.222C299.66 344.162 299.66 344.101 299.66 344.035C299.582 340.983 299.113 337.953 298.264 335.021C298.224 334.874 298.183 334.728 298.143 334.581C297.279 331.672 296.27 328.809 295.119 326.001L294.897 325.44C293.219 321.241 291.454 317.077 290.26 312.903C289.31 309.794 288.82 306.563 288.803 303.312C288.803 302.732 288.838 302.151 288.884 301.571C288.924 301.096 288.98 300.622 289.05 300.142C289.16 299.393 289.308 298.651 289.494 297.917C290.502 293.939 292.654 290.209 294.716 286.514C297.009 282.401 299.197 278.332 299.59 274.007C299.639 273.46 299.658 272.91 299.645 272.361C299.63 271.654 299.562 270.949 299.444 270.251C298.914 267.182 297.337 264.421 296.041 261.59C295.91 261.302 295.779 261.014 295.653 260.722C295.653 260.676 295.613 260.631 295.598 260.585C293.078 254.755 291.616 248.537 290.078 242.349C290.013 242.081 289.947 241.814 289.877 241.551C289.499 240.037 289.111 238.523 288.697 237.008C286.439 228.751 283.223 220.407 277.104 214.446C270.985 208.485 261.227 205.467 253.565 209.262C246.937 212.569 243.348 219.968 241.73 227.196C240.112 234.424 239.981 241.97 237.879 249.077C237.728 249.595 237.56 250.112 237.375 250.627C237.285 250.889 237.194 251.131 237.103 251.419C236.201 253.993 235.087 256.542 233.887 259.076L233.761 259.344C229.931 267.505 225.48 275.526 225.339 283.728V283.834C225.339 284.056 225.339 284.273 225.339 284.495C225.365 286.445 225.66 288.381 226.216 290.249C227.224 293.611 229.049 296.544 231.176 299.335C231.596 299.883 232.026 300.427 232.466 300.965C234.583 303.57 236.881 306.093 238.893 308.779L238.958 308.865C240.487 310.848 241.778 313.004 242.804 315.29C244.02 318.153 244.655 321.229 244.672 324.34C244.69 327.451 244.089 330.534 242.905 333.41C242.334 334.74 241.679 336.031 240.944 337.277C239.649 339.518 238.222 341.698 237.098 344.03C236.72 344.813 236.382 345.61 236.09 346.418C233.57 352.919 233.025 360.112 230.969 366.82C229.376 371.97 226.898 376.802 223.645 381.099H158.119C158.88 377.369 162.656 358.89 163.25 354.741C163.608 352.217 167.787 343.132 174.556 335.243C173.987 335.692 173.437 336.146 172.908 336.6C168.639 340.243 164.94 344.507 161.935 349.249C162.081 348.795 162.232 348.336 162.383 347.882C163.306 345.126 164.304 342.395 165.317 339.7C168.251 331.937 171.517 324.017 177.364 318.132C180.665 314.81 184.682 312.251 187.828 308.784C193.372 302.681 195.666 294.227 195.6 285.939C195.6 285.081 195.565 284.228 195.509 283.375C194.91 274.289 191.81 265.592 188.453 257.128C186.648 252.585 184.733 247.81 184.819 242.995C184.824 242.319 184.873 241.645 184.965 240.976C186.351 230.997 196.432 225.021 202.485 216.97C211.488 204.992 212.143 187.19 223.953 177.993C233.025 170.927 245.627 171.361 257.084 172.128C267.739 172.845 277.356 174.233 287.931 175.717C298.506 177.201 309.237 179.987 317.72 186.513C323.199 190.723 327.474 196.301 331.269 202.08C336.35 209.823 340.79 218.373 341.4 227.615C341.446 228.276 341.471 228.933 341.471 229.584C341.577 240.385 336.894 250.854 336.274 261.701C336.249 262.206 336.229 262.71 336.224 263.215C336.221 263.242 336.221 263.269 336.224 263.296C336.113 272.699 339.717 282.572 344.621 290.552C351.589 301.925 355.316 314.99 355.398 328.333Z" fill="black"/>
<path d="M355.398 328.333C355.398 329.665 355.347 331.003 355.272 332.33C355.225 333.087 355.168 333.845 355.1 334.602C355.033 335.359 354.958 336.109 354.874 336.853C354.052 344.192 352.535 351.491 352.353 358.865C352.353 359.43 352.353 360.001 352.353 360.566C352.389 367.486 353.558 374.31 355.1 381.099H293.163C293.047 379.842 292.977 378.575 292.967 377.329C292.953 375.98 293.016 374.632 293.153 373.291C294.106 363.998 298.849 355.301 299.565 346.07C299.615 345.393 299.65 344.717 299.655 344.051C299.655 343.894 299.655 343.733 299.655 343.576C299.591 340.309 299.084 337.066 298.148 333.935C297.284 331.026 296.275 328.163 295.124 325.355C293.38 320.968 291.51 316.612 290.26 312.231C289.379 309.326 288.889 306.317 288.803 303.282C288.789 302.48 288.816 301.678 288.884 300.879C288.924 300.405 288.98 299.93 289.05 299.451C289.16 298.702 289.308 297.959 289.494 297.225C290.502 293.248 292.654 289.518 294.716 285.823C297.014 281.704 299.212 277.626 299.6 273.295C299.63 272.967 299.645 272.634 299.655 272.285C299.679 271.357 299.612 270.429 299.454 269.514C298.924 266.445 297.347 263.684 296.051 260.853C295.92 260.565 295.789 260.277 295.663 259.985C293.108 254.119 291.631 247.871 290.089 241.612C289.645 239.825 289.191 238.038 288.712 236.267C286.454 228.009 283.239 219.665 277.119 213.704C271 207.743 261.257 204.785 253.601 208.601C246.972 211.907 243.384 219.307 241.766 226.535C240.148 233.763 240.017 241.309 237.915 248.416C237.683 249.198 237.411 249.981 237.154 250.758C236.216 253.418 235.047 256.058 233.817 258.682C229.88 267.056 225.298 275.294 225.394 283.728V283.834C225.42 285.783 225.716 287.72 226.271 289.588C227.279 292.95 229.104 295.882 231.231 298.674C231.651 299.222 232.081 299.766 232.521 300.304C234.664 302.939 236.987 305.488 239.014 308.203C240.543 310.187 241.834 312.343 242.859 314.629C244.075 317.492 244.71 320.568 244.728 323.679C244.745 326.79 244.144 329.873 242.96 332.749C242.389 334.078 241.734 335.37 240.999 336.616C239.704 338.857 238.278 341.037 237.154 343.369C236.776 344.152 236.438 344.949 236.145 345.757C233.625 352.258 233.081 359.45 231.024 366.159C229.347 371.574 226.694 376.636 223.197 381.094H157.968C157.968 381.094 162.575 358.693 163.23 354.08C163.558 351.773 167.091 343.985 172.888 336.6C173.392 335.924 173.966 335.248 174.536 334.581C169.796 338.333 165.688 342.822 162.368 347.877L161.92 348.583C162.968 345.358 164.122 342.173 165.307 339.033C168.24 331.27 171.507 323.351 177.354 317.465C180.655 314.144 184.672 311.585 187.818 308.117C193.201 302.177 195.529 293.985 195.59 285.909C195.59 284.828 195.59 283.753 195.499 282.683C194.899 273.598 191.8 264.901 188.443 256.436C186.724 252.085 184.914 247.553 184.808 242.939C184.785 242.05 184.834 241.161 184.955 240.279C186.346 230.356 196.427 224.405 202.48 216.329C211.483 204.351 212.138 186.549 223.948 177.352C233.02 170.286 245.622 170.72 257.079 171.487C267.734 172.204 277.351 173.592 287.926 175.076C298.501 176.56 309.247 179.341 317.72 185.847C323.199 190.082 327.474 195.634 331.269 201.419C336.35 209.162 340.79 217.712 341.4 226.954C341.461 227.832 341.484 228.709 341.471 229.584C341.385 240.148 336.879 250.415 336.274 261.045C336.234 261.761 336.214 262.473 336.224 263.195C336.221 263.222 336.221 263.249 336.224 263.276C336.284 272.482 339.833 282.083 344.621 289.861C351.711 301.434 355.443 314.755 355.398 328.333Z" fill="#463A3E"/>
<defs>
<linearGradient id="paint0_linear" x1="279.988" y1="0" x2="279.988" y2="550" gradientUnits="userSpaceOnUse">
<stop stop-color="#ECB4B6" stop-opacity="0"/>
<stop offset="1" stop-color="#ECB4B6" stop-opacity="0.4"/>
</linearGradient>
<linearGradient id="paint1_linear" x1="279.755" y1="382.936" x2="279.755" y2="150.247" gradientUnits="userSpaceOnUse">
<stop stop-color="#808080" stop-opacity="0.25"/>
<stop offset="0.54" stop-color="#808080" stop-opacity="0.12"/>
<stop offset="1" stop-color="#808080" stop-opacity="0.1"/>
</linearGradient>
</defs>
</svg>
