<svg width="64" height="64" viewBox="0 0 64 64" fill="none" xmlns="http://www.w3.org/2000/svg">
<rect width="64" height="64" fill="url(#paint0_linear)"/>
<path d="M4 23.9687H10.4633V41.4001H14.8753V23.9687H21.3386V20.2886H4V23.9687Z" fill="white"/>
<path d="M42.8212 27.6797C42.2336 22.8039 38.5432 20 33.6571 20C28.0803 20 23.8229 23.9378 23.8229 30.8444C23.8229 37.7303 28.0081 41.6887 33.6571 41.6887C39.0689 41.6887 42.3367 38.0911 42.8212 34.2049L38.3061 34.1843C37.8835 36.4418 36.1104 37.7406 33.7292 37.7406C30.5233 37.7406 28.3483 35.3594 28.3483 30.8444C28.3483 26.453 30.4924 23.9481 33.7601 23.9481C36.2032 23.9481 37.9659 25.3603 38.3061 27.6797H42.8212Z" fill="white"/>
<path d="M46.0219 41.4001H50.4854V32.6792H59.0723V28.9992H50.4854V23.9687H60V20.2886H46.0219V41.4001Z" fill="white"/>
<defs>
<linearGradient id="paint0_linear" x1="0" y1="32" x2="64" y2="32" gradientUnits="userSpaceOnUse">
<stop stop-color="#F51936"/>
<stop offset="1" stop-color="#FF334E"/>
</linearGradient>
</defs>
</svg>
