<svg width="32" height="32" viewBox="0 0 32 32" fill="none" xmlns="http://www.w3.org/2000/svg">
<rect width="32" height="32" fill="url(#paint0_linear)"/>
<path d="M2 11.9844H5.23166V20.7H7.43764V11.9844H10.6693V10.1443H2V11.9844Z" fill="white"/>
<path d="M21.4106 13.8399C21.1168 11.4019 19.2716 10 16.8285 10C14.0401 10 11.9115 11.9689 11.9115 15.4222C11.9115 18.8652 14.004 20.8444 16.8285 20.8444C19.5345 20.8444 21.1683 19.0456 21.4106 17.1024L19.1531 17.0921C18.9417 18.2209 18.0552 18.8703 16.8646 18.8703C15.2617 18.8703 14.1741 17.6797 14.1741 15.4222C14.1741 13.2265 15.2462 11.974 16.8801 11.974C18.1016 11.974 18.983 12.6802 19.1531 13.8399H21.4106Z" fill="white"/>
<path d="M23.011 20.7H25.2427V16.3396H29.5361V14.4996H25.2427V11.9844H30V10.1443H23.011V20.7Z" fill="white"/>
<defs>
<linearGradient id="paint0_linear" x1="0" y1="16" x2="32" y2="16" gradientUnits="userSpaceOnUse">
<stop stop-color="#F51936"/>
<stop offset="1" stop-color="#FF334E"/>
</linearGradient>
</defs>
</svg>
