<svg width="16" height="16" viewBox="0 0 16 16" fill="none" xmlns="http://www.w3.org/2000/svg">
<rect width="16" height="16" fill="url(#paint0_linear)"/>
<path d="M1 5.99218H2.61583V10.35H3.71882V5.99218H5.33465V5.07216H1V5.99218Z" fill="white"/>
<path d="M10.7053 6.91993C10.5584 5.70097 9.6358 5 8.41427 5C7.02006 5 5.95573 5.98445 5.95573 7.71109C5.95573 9.43258 7.00202 10.4222 8.41427 10.4222C9.76723 10.4222 10.5842 9.52278 10.7053 8.55122L9.57653 8.54607C9.47087 9.11045 9.02761 9.43516 8.43231 9.43516C7.63083 9.43516 7.08707 8.83985 7.08707 7.71109C7.08707 6.61325 7.6231 5.98702 8.44004 5.98702C9.05081 5.98702 9.49149 6.34008 9.57653 6.91993H10.7053Z" fill="white"/>
<path d="M11.5055 10.35H12.6214V8.16981H14.7681V7.24979H12.6214V5.99218H15V5.07216H11.5055V10.35Z" fill="white"/>
<defs>
<linearGradient id="paint0_linear" x1="0" y1="7.99999" x2="16" y2="7.99999" gradientUnits="userSpaceOnUse">
<stop stop-color="#F51936"/>
<stop offset="1" stop-color="#FF334E"/>
</linearGradient>
</defs>
</svg>
