<svg width="606" height="388" viewBox="0 0 606 388" fill="none" xmlns="http://www.w3.org/2000/svg">
<g clip-path="url(#clip0)">
<path d="M605.357 0.337891H0.253967V387.995H605.357V0.337891Z" fill="#E6E6E6"/>
<path d="M588.058 48.965H17.5611V365.066H588.058V48.965Z" fill="white"/>
<path d="M605.103 0H0V25.7151H605.103V0Z" fill="#FF2C48"/>
<path d="M19.1034 17.913C21.7348 17.913 23.868 15.7792 23.868 13.1469C23.868 10.5147 21.7348 8.38086 19.1034 8.38086C16.472 8.38086 14.3388 10.5147 14.3388 13.1469C14.3388 15.7792 16.472 17.913 19.1034 17.913Z" fill="white"/>
<path d="M37.1885 17.913C39.82 17.913 41.9531 15.7792 41.9531 13.1469C41.9531 10.5147 39.82 8.38086 37.1885 8.38086C34.5571 8.38086 32.424 10.5147 32.424 13.1469C32.424 15.7792 34.5571 17.913 37.1885 17.913Z" fill="white"/>
<path d="M55.2737 17.913C57.9051 17.913 60.0383 15.7792 60.0383 13.1469C60.0383 10.5147 57.9051 8.38086 55.2737 8.38086C52.6423 8.38086 50.5092 10.5147 50.5092 13.1469C50.5092 15.7792 52.6423 17.913 55.2737 17.913Z" fill="white"/>
<path d="M199.335 74.9642H87.7544V196.057H199.335V74.9642Z" fill="#E6E6E6"/>
<path d="M358.599 74.9642H247.018V196.057H358.599V74.9642Z" fill="#E6E6E6"/>
<path d="M517.862 74.9642H406.282V196.057H517.862V74.9642Z" fill="#E6E6E6"/>
<path d="M199.335 217.976H87.7544V339.069H199.335V217.976Z" fill="#E6E6E6"/>
<path d="M358.599 217.976H247.018V339.069H358.599V217.976Z" fill="#E6E6E6"/>
<path d="M517.862 217.976H406.282V339.069H517.862V217.976Z" fill="#E6E6E6"/>
<path d="M131.096 148.186C141.513 148.186 149.958 139.738 149.958 129.318C149.958 118.898 141.513 110.451 131.096 110.451C120.679 110.451 112.235 118.898 112.235 129.318C112.235 139.738 120.679 148.186 131.096 148.186Z" fill="#FFB9B9"/>
<path d="M123.728 143.764C123.728 143.764 126.086 154.966 126.086 156.145C126.086 157.324 137.285 162.631 137.285 162.631L147.305 160.862L150.842 150.249C150.842 150.249 144.947 141.405 144.947 137.867L123.728 143.764Z" fill="#FFB9B9"/>
<path d="M114.739 114.117C114.739 114.117 120.728 101.138 132.206 104.133C143.684 107.129 150.171 111.621 150.67 116.114C151.169 120.607 150.421 127.346 150.421 127.346C150.421 127.346 149.173 118.111 141.188 120.108C133.204 122.104 120.728 120.607 120.728 120.607L118.732 138.578C118.732 138.578 116.486 135.333 113.991 137.33C111.496 139.327 106.755 118.111 114.739 114.117Z" fill="#2F2E41"/>
<path d="M190.92 191.523L186.209 170.293C183.846 163.217 177.957 157.326 177.957 157.326L148.889 147.1H148.882C148.825 149.67 147.959 152.157 146.407 154.206C144.855 156.255 142.696 157.762 140.237 158.511C131.393 161.453 125.304 151.539 125.304 151.539L100.733 170.293C100.733 170.293 93.0731 176.784 93.6657 189.166L92.8508 196.057H193.187L190.92 191.523Z" fill="#FF2C48"/>
<path d="M289.934 157.588C304.072 157.588 315.534 145.417 315.534 130.403C315.534 115.389 304.072 103.218 289.934 103.218C275.795 103.218 264.333 115.389 264.333 130.403C264.333 145.417 275.795 157.588 289.934 157.588Z" fill="#2F2E41"/>
<path d="M312.648 171.541C320.087 171.541 326.116 165.51 326.116 158.069C326.116 150.629 320.087 144.597 312.648 144.597C305.21 144.597 299.181 150.629 299.181 158.069C299.181 165.51 305.21 171.541 312.648 171.541Z" fill="#2F2E41"/>
<path d="M303.269 140.026L310.484 158.791L292.206 166.49L290.601 162.851L284.991 150.131L303.269 140.026Z" fill="#9F616A"/>
<path d="M288.839 152.295C297.738 152.295 304.952 145.079 304.952 136.177C304.952 127.275 297.738 120.058 288.839 120.058C279.94 120.058 272.726 127.275 272.726 136.177C272.726 145.079 279.94 152.295 288.839 152.295Z" fill="#9F616A"/>
<path d="M275.668 134.409C285.796 127.649 288.824 126.033 300.433 128.644L301.129 111.703L271.13 117.998L275.668 134.409Z" fill="#2F2E41"/>
<path d="M340.784 172.738L340.339 172.79C340.328 172.774 340.316 172.759 340.302 172.746C338.539 170.982 330.124 167.774 323.85 165.551H323.842C319.857 164.135 316.738 163.12 316.738 163.12L309.153 155.318C307.242 157.467 303.205 159.126 299.368 160.297C296.43 161.187 293.442 161.899 290.419 162.431H290.412L288.841 167.448C288.841 167.448 271.041 180.926 269.604 182.364H269.596V182.379C269.482 182.543 269.434 182.744 269.463 182.942V182.979C268.565 187.281 268.104 191.663 268.085 196.057H345.598V191.508C345.598 185.254 340.784 172.738 340.784 172.738Z" fill="#575A89"/>
<path d="M483.321 196.057H444.994L442.883 175.228L442.757 173.961L442.497 171.449L441.438 160.949L440.112 172.227L437.312 196.057H430.349L430.608 188.64L430.868 181.119L430.979 178.088L432.408 136.859C432.299 130.326 434.365 123.942 438.282 118.712C440.457 115.88 443.264 113.595 446.478 112.04C449.692 110.484 453.224 109.702 456.794 109.754C460.436 109.742 464.032 110.574 467.299 112.185C470.566 113.796 473.415 116.142 475.624 119.038C479.673 124.32 481.84 130.804 481.78 137.46L482.439 162.416L483.321 196.057Z" fill="#2F2E41"/>
<path d="M456.794 151.613C466.105 151.613 473.653 144.063 473.653 134.75C473.653 125.436 466.105 117.886 456.794 117.886C447.484 117.886 439.936 125.436 439.936 134.75C439.936 144.063 447.484 151.613 456.794 151.613Z" fill="#FBBEBE"/>
<path d="M448.365 146.795C448.365 146.795 453.182 163.056 448.365 167.874C443.549 172.693 442.344 174.499 442.344 174.499L456.192 193.17L480.276 163.659C480.276 163.659 463.417 158.84 467.632 145.59L448.365 146.795Z" fill="#FBBEBE"/>
<path d="M500.373 196.057H486.15L485.913 193.62L485.698 191.367L492.247 190.544L500.143 189.559L500.232 192.086L500.373 196.057Z" fill="#FBBEBE"/>
<path d="M501.348 191.965C501.348 191.965 498.94 176.908 497.134 170.886C495.328 164.863 493.521 164.863 493.521 164.863H493.521L493.521 164.862C491.395 162.735 486.284 162.357 482.439 162.416C479.743 162.446 477.669 162.683 477.669 162.683L456.194 185.343L445.379 170.96V170.953C444.405 171.028 443.441 171.194 442.497 171.449C441.686 171.656 440.889 171.916 440.112 172.227C436.763 173.659 433.676 175.64 430.979 178.088H430.971C429.416 179.489 428.497 180.519 428.497 180.519C426.115 185.472 424.32 190.687 423.149 196.057H491.965L492.121 192.96V192.954L501.348 191.965Z" fill="#FF2C48"/>
<path d="M442.646 132.039C453.534 126.167 458.006 126.416 471.545 132.039L475.158 123.235C475.156 121.578 474.497 119.988 473.325 118.816C472.153 117.644 470.564 116.985 468.907 116.983H444.682C443.024 116.985 441.436 117.644 440.264 118.816C439.092 119.988 438.433 121.578 438.431 123.235L442.646 132.039Z" fill="#2F2E41"/>
<path d="M142.069 247.286C141.172 247.212 140.274 247.413 139.494 247.861C138.753 248.493 138.159 249.277 137.751 250.161C135.867 253.472 133.315 256.356 130.258 258.629C128.031 260.26 125.2 262.295 125.581 265.303C125.782 266.297 126.149 267.249 126.667 268.121C128.721 272.269 134.326 275.474 133.775 280.207C135.816 276.789 133.086 275.099 135.127 271.682C136.099 270.054 137.787 268.217 139.254 269.239C139.745 269.582 140.068 270.195 140.58 270.496C141.8 271.212 143.099 269.842 144.179 268.872C147.905 265.526 153.204 266.403 157.84 267.445C160.029 267.937 162.433 268.583 163.727 270.676C165.429 273.427 162.111 276.399 161.273 279.51C161.204 279.775 161.201 280.052 161.263 280.319C161.326 280.586 161.451 280.833 161.63 281.04C161.809 281.248 162.035 281.409 162.29 281.51C162.544 281.61 162.819 281.648 163.091 281.619C164.483 281.482 166.131 281.369 166.213 280.759C167.963 280.821 170.108 280.623 170.858 278.8C171.087 278.078 171.208 277.327 171.217 276.57C171.493 273.508 172.792 270.714 173.653 267.799C174.514 264.884 174.888 261.468 173.435 258.884C172.917 258.024 172.276 257.244 171.532 256.57C163.288 248.59 152.45 247.274 142.069 247.286Z" fill="#2F2E41"/>
<path d="M135.568 286.185C135.568 286.185 137.36 301.13 130.787 302.326C124.213 303.521 136.763 323.847 136.763 323.847L166.644 327.434L159.472 303.521C159.472 303.521 154.691 301.728 157.679 289.772C160.667 277.816 135.568 286.185 135.568 286.185Z" fill="#9F616A"/>
<path d="M149.014 296.049C158.916 296.049 166.942 288.019 166.942 278.115C166.942 268.21 158.916 260.18 149.014 260.18C139.112 260.18 131.085 268.21 131.085 278.115C131.085 288.019 139.112 296.049 149.014 296.049Z" fill="#9F616A"/>
<path d="M118.155 339.069C121.326 326.598 125.704 309.8 125.704 309.8C125.704 309.8 127.407 310.148 130.089 310.541C134.006 311.125 137.953 311.483 141.911 311.616C146.978 311.756 152.312 311.423 156.438 309.993C157.993 309.493 159.446 308.718 160.727 307.703C161.266 307.269 161.749 306.768 162.164 306.214C169.334 296.648 172.32 333.112 172.32 333.112L172.875 339.069L118.155 339.069Z" fill="#FF2C48"/>
<path d="M175.438 377.601C175.201 377.601 174.964 377.609 174.727 377.623L175.068 376.986C175.186 377.186 175.305 377.394 175.438 377.601Z" fill="#FFB8B8"/>
<path d="M142.943 251.978C142.22 251.924 141.496 252.065 140.846 252.385C140.258 252.814 139.774 253.37 139.428 254.011C137.834 256.409 135.756 258.448 133.328 259.995C131.515 261.149 129.211 262.586 129.521 264.713C129.689 265.426 129.989 266.101 130.404 266.704C132.082 269.665 132.75 273.093 132.307 276.468L137.291 269.221C138.082 268.071 139.457 266.772 140.651 267.495C141.051 267.737 141.314 268.17 141.73 268.383C142.724 268.889 143.781 267.921 144.66 267.235C147.693 264.87 152.007 265.49 155.781 266.227C157.563 266.575 159.52 267.031 160.573 268.51C162.324 270.968 160.496 274.52 161.517 277.359C161.803 277.159 162.046 276.903 162.232 276.607C162.417 276.311 162.541 275.981 162.597 275.637C164.021 275.681 165.767 275.54 166.378 274.252C166.563 273.747 166.662 273.214 166.67 272.676C166.895 270.511 167.952 268.537 168.653 266.477C169.354 264.417 169.658 262.002 168.476 260.176C168.043 259.557 167.521 259.006 166.927 258.54C160.216 252.9 151.393 251.97 142.943 251.978Z" fill="#2F2E41"/>
<path d="M141.245 310.393C137.156 305.717 134.726 298.9 134.615 298.596V298.589C134.615 298.589 128.096 294.854 126.304 298.441C124.511 302.027 107.777 310.993 105.985 310.993C105.97 310.999 105.955 311.004 105.94 311.008C105.229 311.245 96.325 314.483 94.0361 326.539C93.4144 330.688 93.0828 334.875 93.0435 339.069H141.778C142.282 333.786 142.66 328.844 142.808 324.575C143.023 318.625 142.815 314.001 141.911 311.615C141.767 311.17 141.541 310.755 141.245 310.393Z" fill="#2F2E41"/>
<path d="M183.15 313.757C183.12 313.616 183.098 313.498 183.076 313.387C182.996 313.069 182.861 312.768 182.676 312.497C182.672 312.491 182.669 312.483 182.668 312.475C179.216 307.125 157.016 299.76 157.016 299.76L156.186 302.627C156.186 302.627 156.29 305.458 156.438 309.993C156.586 314.239 156.764 319.974 156.934 326.273C157.053 330.385 157.156 334.742 157.253 339.069H190.461C188.6 330.476 186.157 322.019 183.15 313.757Z" fill="#2F2E41"/>
<path d="M493.854 339.069L496.395 326.65L498.758 325.65L498.773 325.657C498.988 325.739 501.558 326.828 501.558 330.955C501.558 331.785 501.432 334.772 501.225 339.069H493.854Z" fill="#575A89"/>
<path d="M467.167 295.691C478.563 295.691 487.801 286.45 487.801 275.05C487.801 263.651 478.563 254.409 467.167 254.409C455.771 254.409 446.532 263.651 446.532 275.05C446.532 286.45 455.771 295.691 467.167 295.691Z" fill="#FFB8B8"/>
<path d="M480.063 287.091L478.343 322.352L451.691 306.872L455.129 287.091H480.063Z" fill="#FFB8B8"/>
<path d="M487.802 324.072L486.054 339.069H472.061L456.875 309.882L452.594 301.664L450.542 300.323L452.92 299.782L454.794 301.138L475.765 316.336L479.128 306.236L479.217 305.977L480.061 303.435L487.802 324.072Z" fill="#FF2C48"/>
<path d="M454.7 254.839C454.7 254.839 457.279 241.939 471.895 244.519L470.176 245.379C470.176 245.379 483.932 243.659 482.213 251.399C482.213 251.399 493.39 258.28 490.81 266.02C489.294 270.506 488.143 275.108 487.371 279.78L484.792 277.2C484.792 277.2 482.213 260 466.737 261.72C455.13 263.01 450.401 268.493 449.192 272.443C448.636 274.301 447.925 276.109 447.068 277.849L446.102 278.06C446.102 278.06 440.944 259.14 454.7 254.839Z" fill="#2F2E41"/>
<path d="M498.773 325.657L498.758 325.65L487.802 315.469V308.592L479.343 301.923L479.217 305.977L478.343 333.534L464.276 314.179L454.794 301.138L453.09 298.804L453.505 296.618L448.253 302.568L429.245 316.832L427.616 318.055C425.746 319.926 424.022 321.937 422.46 324.072C421.949 324.835 419.623 330.911 416.593 339.069H501.225C501.432 334.772 501.558 331.785 501.558 330.955C501.558 326.828 498.988 325.739 498.773 325.657Z" fill="#2F2E41"/>
<path d="M301.11 252.378C287.128 252.378 275.793 264.961 275.793 280.483V300.205H281.856L285.367 292.898L284.489 300.205H323.463L326.654 293.562L325.856 300.205H330.244V284.72C330.244 266.858 317.201 252.378 301.11 252.378Z" fill="#2F2E41"/>
<path d="M280.678 339.069H264.211L264.056 325.635C264.048 325.494 264.048 325.361 264.048 325.22L267.345 321.508L267.404 321.441L279.989 329.414L280.678 339.069Z" fill="#D0CDE1"/>
<path d="M298.87 297.449C308.824 297.449 316.894 289.377 316.894 279.42C316.894 269.462 308.824 261.391 298.87 261.391C288.916 261.391 280.847 269.462 280.847 279.42C280.847 289.377 288.916 297.449 298.87 297.449Z" fill="#FBBEBE"/>
<path d="M288.537 290.237C288.537 290.237 293.824 317.642 291.421 320.526C289.017 323.411 316.894 315.238 316.894 315.238C316.894 315.238 307.762 296.487 312.568 285.91L288.537 290.237Z" fill="#FBBEBE"/>
<path d="M337.435 308.77H337.428C337.003 307.872 336.27 307.157 335.361 306.755C331.828 305.265 328.783 304.124 326.279 303.257C321.851 301.737 317.02 301.887 312.694 303.679C312.272 303.85 311.857 304.035 311.449 304.243C311.449 304.243 293.827 307.599 291.73 307.177C291.575 307.147 291.412 307.125 291.256 307.11C290.94 307.065 290.621 307.038 290.301 307.029C286.2 306.838 282.133 307.848 278.597 309.933C272.811 313.29 264.233 319.24 264.056 325.035L263.893 325.22L264.056 339.069H341.406C341.561 325.798 341.65 315.824 341.65 315.15C341.65 313.053 337.435 308.77 337.435 308.77Z" fill="#FF2C48"/>
<path d="M308.308 260.12C307.089 258.483 305.511 257.15 303.694 256.222C301.877 255.295 299.871 254.798 297.831 254.772H297.334C287.75 254.772 279.981 263.447 279.981 274.148V274.148H283.193L283.711 270.199L284.472 274.148H303.517L305.113 270.807L304.714 274.148H308.461C310.209 282.833 307.697 291.519 300.924 300.205H307.307L310.498 293.523L309.7 300.205H321.867L324.261 284.838C324.261 273.329 317.576 263.57 308.308 260.12Z" fill="#2F2E41"/>
<path d="M311.806 261.738C317.043 261.738 321.288 257.491 321.288 252.252C321.288 247.014 317.043 242.767 311.806 242.767C306.569 242.767 302.323 247.014 302.323 252.252C302.323 257.491 306.569 261.738 311.806 261.738Z" fill="#2F2E41"/>
</g>
<defs>
<clipPath id="clip0">
<rect width="605.361" height="388" fill="white"/>
</clipPath>
</defs>
</svg>
