<svg width="311" height="54" viewBox="0 0 311 54" fill="none" xmlns="http://www.w3.org/2000/svg">
<rect x="0.000976562" y="7.44307" width="30.5646" height="3.66775" fill="#211E1F"/>
<rect x="12.226" y="27.0052" width="18.3387" height="3.66775" fill="#211E1F"/>
<rect width="24.4516" height="3.05646" transform="matrix(0 -1 -1 0 3.05658 37.0917)" fill="#211E1F"/>
<rect x="15.2826" y="32.2014" width="18.3387" height="3.05646" transform="rotate(90 15.2826 32.2014)" fill="#211E1F"/>
<rect x="0.000244141" y="38.6189" width="30.5646" height="3.66775" fill="#211E1F"/>
<path d="M51.3993 12.9598C50.9894 9.55848 48.415 7.60251 45.0064 7.60251C41.1161 7.60251 38.1462 10.3495 38.1462 15.1675C38.1462 19.9711 41.0658 22.7325 45.0064 22.7325C48.7817 22.7325 51.0613 20.2228 51.3993 17.5118L48.2496 17.4974C47.9548 19.0722 46.7179 19.9783 45.0568 19.9783C42.8204 19.9783 41.3031 18.3172 41.3031 15.1675C41.3031 12.1041 42.7988 10.3567 45.0784 10.3567C46.7826 10.3567 48.0123 11.3419 48.2496 12.9598H51.3993ZM58.5651 22.7468C61.9162 22.7468 64.0016 20.4529 64.0016 17.0515C64.0016 13.6286 61.9162 11.3419 58.5651 11.3419C55.2141 11.3419 53.1287 13.6286 53.1287 17.0515C53.1287 20.4529 55.2141 22.7468 58.5651 22.7468ZM58.5795 20.3738C57.0335 20.3738 56.2424 18.9572 56.2424 17.03C56.2424 15.1028 57.0335 13.6789 58.5795 13.6789C60.0968 13.6789 60.8879 15.1028 60.8879 17.03C60.8879 18.9572 60.0968 20.3738 58.5795 20.3738ZM65.9935 22.5311H69.0569V15.901C69.0569 14.6785 69.8335 13.8659 70.8546 13.8659C71.8614 13.8659 72.5373 14.5562 72.5373 15.6421V22.5311H75.5072V15.7859C75.5072 14.6425 76.1616 13.8659 77.2762 13.8659C78.2542 13.8659 78.9877 14.4771 78.9877 15.7068V22.5311H82.0439V15.1028C82.0439 12.7082 80.6201 11.3419 78.5634 11.3419C76.9454 11.3419 75.687 12.1688 75.234 13.4344H75.1189C74.7666 12.1544 73.6376 11.3419 72.1203 11.3419C70.6317 11.3419 69.5027 12.1329 69.0425 13.4344H68.9131V11.4857H65.9935V22.5311ZM84.4637 22.5311H87.5271V15.901C87.5271 14.6785 88.3037 13.8659 89.3248 13.8659C90.3316 13.8659 91.0075 14.5562 91.0075 15.6421V22.5311H93.9774V15.7859C93.9774 14.6425 94.6318 13.8659 95.7464 13.8659C96.7244 13.8659 97.4579 14.4771 97.4579 15.7068V22.5311H100.514V15.1028C100.514 12.7082 99.0903 11.3419 97.0336 11.3419C95.4156 11.3419 94.1572 12.1688 93.7042 13.4344H93.5891C93.2367 12.1544 92.1078 11.3419 90.5904 11.3419C89.1019 11.3419 87.9729 12.1329 87.5127 13.4344H87.3832V11.4857H84.4637V22.5311ZM110.017 17.8282C110.024 19.3095 109.01 20.0862 107.91 20.0862C106.752 20.0862 106.004 19.2736 105.997 17.972V11.4857H102.934V18.5185C102.941 21.1001 104.451 22.6749 106.673 22.6749C108.334 22.6749 109.528 21.8192 110.024 20.5248H110.139V22.5311H113.08V11.4857H110.017V17.8282ZM118.594 16.1455C118.601 14.7216 119.45 13.8875 120.687 13.8875C121.916 13.8875 122.657 14.6929 122.65 16.0448V22.5311H125.713V15.4983C125.713 12.9239 124.203 11.3419 121.902 11.3419C120.262 11.3419 119.076 12.1472 118.58 13.4344H118.45V11.4857H115.531V22.5311H118.594V16.1455ZM128.128 22.5311H131.191V11.4857H128.128V22.5311ZM129.667 10.0618C130.58 10.0618 131.328 9.36432 131.328 8.50858C131.328 7.66004 130.58 6.96251 129.667 6.96251C128.76 6.96251 128.013 7.66004 128.013 8.50858C128.013 9.36432 128.76 10.0618 129.667 10.0618ZM139.52 11.4857H137.442V8.83937H134.378V11.4857H132.868V13.7868H134.378V19.5396C134.364 21.7041 135.838 22.7756 138.06 22.6821C138.851 22.6534 139.412 22.4952 139.721 22.3945L139.24 20.1149C139.089 20.1437 138.765 20.2156 138.477 20.2156C137.866 20.2156 137.442 19.9855 137.442 19.1369V13.7868H139.52V11.4857ZM143.407 26.6732C145.686 26.6732 146.894 25.5082 147.52 23.7248L151.813 11.5001L148.57 11.4857L146.262 19.5972H146.147L143.86 11.4857H140.638L144.601 22.8475L144.421 23.3149C144.018 24.3504 143.249 24.4008 142.17 24.07L141.48 26.3567C141.918 26.5437 142.63 26.6732 143.407 26.6732ZM38.4051 47.5311H41.5188V41.4475H47.5089V38.8803H41.5188V35.3711H48.1561V32.8039H38.4051V47.5311ZM56.584 42.8282C56.5912 44.3095 55.5773 45.0862 54.477 45.0862C53.3193 45.0862 52.5714 44.2736 52.5642 42.972V36.4857H49.5008V43.5185C49.508 46.1001 51.0182 47.6749 53.2402 47.6749C54.9013 47.6749 56.095 46.8192 56.5912 45.5248H56.7063V47.5311H59.6474V36.4857H56.584V42.8282ZM65.1611 41.1455C65.1683 39.7216 66.0169 38.8875 67.2537 38.8875C68.4834 38.8875 69.2241 39.6929 69.2169 41.0448V47.5311H72.2803V40.4983C72.2803 37.9239 70.7701 36.3419 68.469 36.3419C66.8295 36.3419 65.6429 37.1472 65.1467 38.4344H65.0173V36.4857H62.0977V47.5311H65.1611V41.1455ZM78.7648 47.7109C80.5482 47.7109 81.4758 46.6826 81.9001 45.7621H82.0295V47.5311H85.0498V32.8039H81.9936V38.341H81.9001C81.4902 37.4421 80.6057 36.3419 78.7576 36.3419C76.3342 36.3419 74.2848 38.2259 74.2848 42.0228C74.2848 45.719 76.2479 47.7109 78.7648 47.7109ZM79.7356 45.2731C78.2326 45.2731 77.4129 43.9356 77.4129 42.0084C77.4129 40.0956 78.2183 38.7796 79.7356 38.7796C81.2241 38.7796 82.0583 40.038 82.0583 42.0084C82.0583 43.9787 81.2097 45.2731 79.7356 45.2731Z" fill="#211E1F"/>
<rect x="169.216" width="3.78947" height="53.9999" fill="#211E1F"/>
<path d="M191.261 10H192.648V7.41354H194.113C195.881 7.41354 196.83 6.35205 196.83 4.87941C196.83 3.41799 195.892 2.34528 194.132 2.34528H191.261V10ZM192.648 6.27356V3.50395H193.919C194.958 3.50395 195.417 4.0646 195.417 4.87941C195.417 5.69422 194.958 6.27356 193.926 6.27356H192.648ZM200.397 10.1121C202.079 10.1121 203.148 8.92729 203.148 7.15191C203.148 5.37278 202.079 4.18421 200.397 4.18421C198.715 4.18421 197.646 5.37278 197.646 7.15191C197.646 8.92729 198.715 10.1121 200.397 10.1121ZM200.404 9.02821C199.474 9.02821 199.018 8.19845 199.018 7.14817C199.018 6.09789 199.474 5.25691 200.404 5.25691C201.32 5.25691 201.776 6.09789 201.776 7.14817C201.776 8.19845 201.32 9.02821 200.404 9.02821ZM205.327 10H206.74L207.816 6.12031H207.895L208.971 10H210.38L212.006 4.25896H210.623L209.629 8.2732H209.573L208.541 4.25896H207.177L206.145 8.29563H206.093L205.084 4.25896H203.705L205.327 10ZM215.338 10.1121C216.676 10.1121 217.596 9.45804 217.835 8.46009L216.572 8.31805C216.388 8.80395 215.94 9.05811 215.357 9.05811C214.482 9.05811 213.903 8.48251 213.892 7.49951H217.891V7.08463C217.891 5.07003 216.68 4.18421 215.267 4.18421C213.623 4.18421 212.55 5.39147 212.55 7.16312C212.55 8.96467 213.608 10.1121 215.338 10.1121ZM213.895 6.58752C213.936 5.85494 214.478 5.23823 215.286 5.23823C216.063 5.23823 216.586 5.80635 216.594 6.58752H213.895ZM219.036 10H220.389V6.6249C220.389 5.89605 220.938 5.38026 221.682 5.38026C221.91 5.38026 222.194 5.42137 222.31 5.45875V4.21411C222.186 4.19168 221.973 4.17673 221.824 4.17673C221.166 4.17673 220.617 4.5505 220.407 5.2158H220.347V4.25896H219.036V10ZM225.514 10.1121C226.852 10.1121 227.771 9.45804 228.011 8.46009L226.747 8.31805C226.564 8.80395 226.116 9.05811 225.533 9.05811C224.658 9.05811 224.079 8.48251 224.067 7.49951H228.067V7.08463C228.067 5.07003 226.856 4.18421 225.443 4.18421C223.798 4.18421 222.726 5.39147 222.726 7.16312C222.726 8.96467 223.783 10.1121 225.514 10.1121ZM224.071 6.58752C224.112 5.85494 224.654 5.23823 225.462 5.23823C226.239 5.23823 226.762 5.80635 226.77 6.58752H224.071ZM231.342 10.1009C232.329 10.1009 232.773 9.5141 232.986 9.09549H233.069V10H234.399V2.34528H233.042V5.20832H232.986C232.781 4.79344 232.358 4.18421 231.346 4.18421C230.019 4.18421 228.976 5.22327 228.976 7.13695C228.976 9.02821 229.989 10.1009 231.342 10.1009ZM231.719 8.99083C230.826 8.99083 230.355 8.20592 230.355 7.12948C230.355 6.06051 230.819 5.29429 231.719 5.29429C232.59 5.29429 233.069 6.01566 233.069 7.12948C233.069 8.2433 232.583 8.99083 231.719 8.99083ZM238.512 10H239.842V9.09549H239.921C240.134 9.5141 240.579 10.1009 241.565 10.1009C242.918 10.1009 243.931 9.02821 243.931 7.13695C243.931 5.22327 242.888 4.18421 241.562 4.18421C240.549 4.18421 240.126 4.79344 239.921 5.20832H239.865V2.34528H238.512V10ZM239.838 7.12948C239.838 6.01566 240.317 5.29429 241.188 5.29429C242.089 5.29429 242.552 6.06051 242.552 7.12948C242.552 8.20592 242.081 8.99083 241.188 8.99083C240.324 8.99083 239.838 8.2433 239.838 7.12948ZM245.727 12.1529C246.781 12.1529 247.39 11.6109 247.716 10.6952L250.022 4.26643L248.575 4.25896L247.248 8.59464H247.189L245.865 4.25896H244.43L246.512 10.1196L246.396 10.4298C246.146 11.0839 245.75 11.1288 245.159 10.9568L244.845 12.0109C245.028 12.0856 245.357 12.1529 245.727 12.1529Z" fill="#211E1F"/>
<path d="M217.718 33.4007C218.573 33.4007 219.067 32.8919 219.067 31.9922V24.7801H220.939C221.654 24.7801 222.141 24.3819 222.141 23.6887C222.141 22.9955 221.669 22.5973 220.939 22.5973H214.504C213.767 22.5973 213.295 22.9955 213.295 23.6887C213.295 24.3819 213.781 24.7801 214.504 24.7801H216.369V31.9922C216.369 32.8919 216.863 33.4007 217.718 33.4007ZM224.323 33.4081C225.082 33.4081 225.627 32.9656 225.627 32.0512V28.7106C225.627 27.811 226.122 27.1841 226.999 27.1841C227.861 27.1841 228.311 27.7446 228.311 28.6517V32.0512C228.311 32.9656 228.849 33.4081 229.616 33.4081C230.382 33.4081 230.92 32.9656 230.92 32.0512V28.0838C230.92 26.1886 229.925 25.053 228.134 25.053C226.91 25.053 226.033 25.6429 225.62 26.7196H225.569V23.7624C225.569 22.9144 225.104 22.4277 224.293 22.4277C223.483 22.4277 223.011 22.9144 223.011 23.7551V32.0512C223.011 32.9656 223.556 33.4081 224.323 33.4081ZM236.006 33.4302C237.606 33.4302 238.904 32.8624 239.434 31.9185C239.552 31.7267 239.611 31.5277 239.611 31.3285C239.611 30.7533 239.161 30.4141 238.631 30.4141C238.306 30.4141 238.092 30.5026 237.82 30.7607C237.238 31.3507 236.744 31.5793 236.029 31.5793C235.085 31.5793 234.444 30.9156 234.444 29.9421V29.7947H238.808C239.486 29.7947 239.862 29.4259 239.862 28.7622C239.862 26.5942 238.292 25.0161 235.903 25.0161C233.456 25.0161 231.908 26.6606 231.908 29.2637C231.908 31.8742 233.434 33.4302 236.006 33.4302ZM234.481 28.305C234.547 27.4644 235.144 26.8744 235.955 26.8744C236.773 26.8744 237.355 27.4349 237.4 28.305H234.481ZM215.256 51.5241C216.111 51.5241 216.605 51.0151 216.605 50.1154V48.2422H218.344C220.711 48.2422 222.34 46.7599 222.34 44.4888C222.34 42.2027 220.792 40.7205 218.507 40.7205H215.256C214.401 40.7205 213.9 41.2367 213.9 42.1362V50.1154C213.9 51.0151 214.401 51.5241 215.256 51.5241ZM216.605 46.2072V42.7928H217.792C218.927 42.7928 219.605 43.3901 219.605 44.496C219.605 45.6098 218.927 46.2072 217.777 46.2072H216.605ZM224.677 51.5312C225.473 51.5312 225.982 51.0593 225.982 50.1743V47.0404C225.982 46.126 226.239 45.7276 227.139 45.7057C227.625 45.6835 227.994 45.5728 228.237 45.3516C228.48 45.1379 228.606 44.8279 228.606 44.4152C228.606 43.9433 228.473 43.6114 228.215 43.4196C228.045 43.2795 227.809 43.2131 227.515 43.2131C226.711 43.2131 226.122 43.7881 225.922 44.8721H225.871V44.4741C225.871 43.6261 225.37 43.1613 224.64 43.1613C223.88 43.1613 223.364 43.6261 223.364 44.4666V50.1743C223.364 51.0593 223.873 51.5312 224.677 51.5312ZM232.962 51.5535C235.491 51.5535 237.068 50.027 237.068 47.3425C237.068 44.7101 235.468 43.1394 232.962 43.1394C230.471 43.1394 228.856 44.7173 228.856 47.3425C228.856 50.0195 230.434 51.5535 232.962 51.5535ZM232.962 49.6362C232.063 49.6362 231.51 48.8177 231.51 47.3501C231.51 45.9047 232.078 45.0567 232.962 45.0567C233.854 45.0567 234.422 45.9047 234.422 47.3501C234.422 48.8177 233.854 49.6362 232.962 49.6362ZM241.034 51.4795C242.25 51.4795 243.157 50.8308 243.467 49.9605H243.518V50.1894C243.518 51.0963 244.064 51.5312 244.823 51.5312C245.59 51.5312 246.128 51.0963 246.128 50.1894V41.9078C246.128 40.9934 245.59 40.5509 244.823 40.5509C244.056 40.5509 243.518 40.9934 243.518 41.9078V44.7467H243.467C243.113 43.8474 242.228 43.2131 241.064 43.2131C239.058 43.2131 237.835 44.7618 237.835 47.3278C237.835 49.9236 239.036 51.4795 241.034 51.4795ZM242.014 49.4369C241.071 49.4369 240.511 48.6477 240.511 47.3501C240.511 46.0595 241.078 45.2557 242.014 45.2557C242.951 45.2557 243.525 46.0595 243.525 47.3501C243.525 48.6553 242.958 49.4369 242.014 49.4369ZM250.314 51.5165C251.523 51.5165 252.29 50.8973 252.651 49.8427H252.703V50.2113C252.703 51.1034 253.219 51.5312 253.971 51.5312C254.723 51.5312 255.239 51.1034 255.239 50.2041V44.5183C255.239 43.6038 254.7 43.1613 253.934 43.1613C253.167 43.1613 252.629 43.6038 252.629 44.5183V47.8737C252.629 48.7807 252.113 49.3855 251.302 49.3855C250.484 49.3855 249.99 48.8766 249.99 47.9251V44.5183C249.99 43.6038 249.445 43.1613 248.685 43.1613C247.919 43.1613 247.373 43.6038 247.373 44.5183V48.4929C247.373 50.3883 248.59 51.5165 250.314 51.5165ZM260.34 51.5535C261.917 51.5535 263.332 50.8086 263.863 49.7246C263.996 49.4663 264.048 49.2454 264.048 49.0461C264.048 48.397 263.539 48.021 262.956 48.021C262.404 48.021 262.116 48.2498 261.777 48.7437C261.475 49.2156 261.069 49.5698 260.406 49.5698C259.448 49.5698 258.91 48.7807 258.91 47.3425C258.91 45.9195 259.463 45.1303 260.421 45.1303C261.01 45.1303 261.431 45.418 261.806 46.0743C262.057 46.4945 262.374 46.6938 262.876 46.6938C263.473 46.6938 263.996 46.3325 263.996 45.7057C263.996 45.5064 263.937 45.2632 263.834 45.042C263.34 43.884 261.983 43.1394 260.325 43.1394C257.826 43.1394 256.263 44.7467 256.263 47.3425C256.263 49.9681 257.826 51.5535 260.34 51.5535ZM265.743 49.2084C265.743 50.6979 266.532 51.4648 268.08 51.4648H268.146C269.156 51.4648 269.982 51.0815 269.982 50.3219C269.982 49.7174 269.642 49.4591 269.06 49.3927L268.898 49.3708C268.529 49.3338 268.36 49.1348 268.36 48.633V45.2632H268.994C269.576 45.2632 269.959 44.8796 269.959 44.297C269.959 43.7145 269.576 43.3309 268.994 43.3309H268.36V42.6894C268.36 41.8413 267.881 41.3326 267.055 41.3326C266.222 41.3326 265.743 41.8413 265.743 42.6894V43.3309H265.455C264.873 43.3309 264.49 43.7073 264.49 44.297C264.49 44.8796 264.873 45.2632 265.455 45.2632H265.743V49.2084ZM275.348 51.5241C276.203 51.5241 276.697 51.0151 276.697 50.1154V47.3942H279.822C280.523 47.3942 280.95 47.011 280.95 46.362C280.95 45.7057 280.508 45.3221 279.822 45.3221H276.697V42.9034H280.169C280.884 42.9034 281.37 42.5051 281.37 41.8119C281.37 41.1187 280.898 40.7205 280.169 40.7205H275.348C274.493 40.7205 273.992 41.2367 273.992 42.1362V50.1154C273.992 51.0151 274.493 51.5241 275.348 51.5241ZM285.919 51.5535C288.447 51.5535 290.024 50.027 290.024 47.3425C290.024 44.7101 288.425 43.1394 285.919 43.1394C283.427 43.1394 281.813 44.7173 281.813 47.3425C281.813 50.0195 283.39 51.5535 285.919 51.5535ZM285.919 49.6362C285.019 49.6362 284.467 48.8177 284.467 47.3501C284.467 45.9047 285.034 45.0567 285.919 45.0567C286.81 45.0567 287.378 45.9047 287.378 47.3501C287.378 48.8177 286.81 49.6362 285.919 49.6362ZM292.391 51.5312C293.15 51.5312 293.696 51.0887 293.696 50.1743V41.9078C293.696 40.9934 293.15 40.5509 292.391 40.5509C291.624 40.5509 291.079 40.9934 291.079 41.9078V50.1743C291.079 51.0887 291.624 51.5312 292.391 51.5312ZM296.356 51.5312C297.116 51.5312 297.661 51.0887 297.661 50.1743V48.9649L298.325 48.3529L299.902 50.6315C300.337 51.3175 300.662 51.5312 301.259 51.5312C302.003 51.5312 302.519 51.0521 302.519 50.3294C302.519 49.99 302.431 49.7616 302.136 49.3561L300.293 46.9151L301.988 45.3221C302.379 44.9608 302.505 44.7101 302.505 44.3046C302.505 43.648 302.003 43.1613 301.325 43.1613C300.919 43.1613 300.625 43.3237 300.256 43.6997L297.706 46.325H297.661V41.9078C297.661 40.9934 297.116 40.5509 296.356 40.5509C295.59 40.5509 295.044 40.9934 295.044 41.9078V50.1743C295.044 51.0887 295.59 51.5312 296.356 51.5312ZM306.979 51.5535C309.212 51.5535 310.709 50.4914 310.709 48.8101C310.709 47.6083 309.964 46.9517 308.239 46.6127L306.846 46.3397C306.079 46.1849 305.836 45.9636 305.836 45.617C305.836 45.1821 306.264 44.9019 306.898 44.9019C307.664 44.9019 308.062 45.3146 308.461 45.7129C308.682 45.9195 309.058 46.0373 309.352 46.0373C310.031 46.0373 310.348 45.6687 310.348 45.1673C310.348 45.042 310.325 44.9166 310.281 44.7913C309.994 43.9063 308.755 43.1394 306.92 43.1394C304.701 43.1394 303.322 44.1494 303.322 45.7646C303.322 46.9812 304.141 47.8145 305.726 48.1244L307.126 48.4046C307.856 48.5522 308.114 48.7436 308.114 49.0978C308.114 49.5328 307.679 49.791 307.001 49.791C306.271 49.791 305.77 49.5698 305.328 49.0831C304.952 48.7142 304.605 48.5447 304.192 48.5447C303.603 48.5447 303.175 48.9502 303.175 49.5256C303.175 49.6581 303.212 49.8129 303.271 49.9681C303.647 50.8897 304.929 51.5535 306.979 51.5535Z" fill="#018E98"/>
<path d="M205.716 36.9704C205.307 36.6992 204.899 36.5429 204.562 36.4533L204.56 33.121C204.559 31.0087 204.217 29.2933 203.725 27.916C203.71 27.8572 203.69 27.8012 203.664 27.7485C203.141 26.3486 202.465 25.3116 201.848 24.5749C200.472 22.9314 199.065 22.3581 199.005 22.3341C198.813 22.2572 198.598 22.2573 198.406 22.3338C198.347 22.3575 196.941 22.9293 195.567 24.5718C194.95 25.3087 194.274 26.3468 193.753 27.7479C193.728 27.7981 193.709 27.851 193.695 27.9069C193.204 29.2841 192.863 31.0007 192.864 33.1151L192.866 36.4475C192.528 36.5369 192.122 36.6925 191.713 36.9635C190.859 37.5297 189.842 38.7145 189.844 41.1443L189.844 43.1521C189.845 43.5953 190.206 43.9552 190.651 43.9555L193.342 43.9571L195.123 45.7301C195.275 45.8811 195.48 45.9653 195.694 45.9653L201.744 45.9687C201.958 45.9687 202.163 45.8842 202.314 45.7339L204.093 43.9623L206.784 43.9638C207.229 43.9638 207.59 43.6044 207.59 43.1611L207.589 41.1534C207.588 38.7235 206.569 37.5375 205.716 36.9704ZM192.87 42.3498L191.458 42.349L191.458 41.1443C191.457 39.2338 192.229 38.4596 192.867 38.1458L192.87 42.3498ZM196.746 25.6744C197.515 24.7327 198.294 24.2123 198.707 23.979C199.121 24.2135 199.9 24.7351 200.67 25.6768C201.073 26.1701 201.422 26.7119 201.718 27.2977L195.699 27.2943C195.996 26.7087 196.343 26.167 196.746 25.6744ZM202.949 37.1351L202.952 42.8251L201.409 44.3614L196.028 44.3588L194.483 42.8206L194.48 37.1306L194.478 33.1153C194.476 31.5572 194.67 30.1497 195.055 28.8997L202.365 28.9033C202.751 30.1536 202.946 31.5615 202.947 33.1196L202.949 37.1351ZM205.977 42.3565L204.565 42.3558L204.563 38.1593C204.665 38.2089 204.771 38.2689 204.875 38.343C205.605 38.8605 205.976 39.8052 205.976 41.1519L205.977 42.3565Z" fill="#018E97"/>
<path d="M198.738 46.3677C198.293 46.3677 197.932 46.7275 197.932 47.1711L197.931 53.1967C197.931 53.64 198.292 54.0002 198.737 53.9998C199.182 53.9998 199.543 53.6396 199.543 53.1964L199.544 47.1708C199.545 46.7271 199.184 46.3681 198.738 46.3677Z" fill="#F27B20"/>
<path d="M198.701 30.2981C197.777 30.2983 196.955 30.7432 196.44 31.4295C196.088 31.899 195.879 32.481 195.878 33.111C195.878 33.5544 196.239 33.9143 196.684 33.9141C196.851 33.914 197.006 33.8637 197.135 33.7765C197.35 33.6318 197.491 33.3874 197.491 33.11C197.491 32.6949 197.703 32.3275 198.025 32.1107C198.218 31.9809 198.451 31.9047 198.7 31.9042C199.367 31.9041 199.91 32.4442 199.909 33.1089C199.909 33.5523 200.27 33.9121 200.715 33.912C200.964 33.9119 201.185 33.8002 201.333 33.6248C201.451 33.485 201.522 33.3051 201.522 33.1085C201.523 31.5591 200.257 30.2978 198.701 30.2981Z" fill="#F48222"/>
<path d="M195.887 46.3043H195.887C195.461 46.3043 195.116 46.6499 195.116 47.0761V49.636C195.116 50.0623 195.461 50.4078 195.887 50.4078H195.887C196.313 50.4078 196.659 50.0623 196.659 49.636V47.0761C196.659 46.6499 196.313 46.3043 195.887 46.3043Z" fill="#F27B20"/>
<path d="M201.545 46.3043H201.545C201.119 46.3043 200.774 46.6499 200.774 47.0761V49.636C200.774 50.0623 201.119 50.4078 201.545 50.4078H201.545C201.972 50.4078 202.317 50.0623 202.317 49.636V47.0761C202.317 46.6499 201.972 46.3043 201.545 46.3043Z" fill="#F27B20"/>
</svg>
