<svg width="375" height="50" viewBox="0 0 375 50" fill="none" xmlns="http://www.w3.org/2000/svg">
<rect x="0.000671387" y="5.44295" width="30.5646" height="3.66775" fill="#211E1F"/>
<rect x="12.2257" y="25.0052" width="18.3388" height="3.66775" fill="#211E1F"/>
<rect width="24.4517" height="3.05646" transform="matrix(0 -1 -1 0 3.0564 35.0913)" fill="#211E1F"/>
<rect x="15.2823" y="30.2009" width="18.3388" height="3.05646" transform="rotate(90 15.2823 30.2009)" fill="#211E1F"/>
<rect y="36.6188" width="30.5646" height="3.66775" fill="#211E1F"/>
<path d="M39.8439 8.37118H44.3527V20.5312H47.4305V8.37118H51.9393V5.80398H39.8439V8.37118ZM56.9371 14.1456C56.9442 12.7218 57.8144 11.8876 59.0656 11.8876C60.3097 11.8876 61.0431 12.6858 61.0359 14.0449V20.5312H64.0993V13.4984C64.1065 10.9096 62.582 9.34197 60.2809 9.34197C58.6054 9.34197 57.4836 10.133 56.9802 11.4346H56.8508V5.80398H53.8737V20.5312H56.9371V14.1456ZM71.5439 20.747C74.2765 20.747 76.1174 19.4166 76.5488 17.3672L73.7156 17.1802C73.4064 18.0216 72.6153 18.4602 71.5942 18.4602C70.0625 18.4602 69.0917 17.4463 69.0917 15.7995V15.7923H76.6136V14.951C76.6136 11.1973 74.3412 9.34197 71.4216 9.34197C68.1713 9.34197 66.0643 11.6503 66.0643 15.0589C66.0643 18.5609 68.1425 20.747 71.5439 20.747ZM69.0917 13.8939C69.1564 12.6355 70.1129 11.6287 71.472 11.6287C72.8023 11.6287 73.7228 12.5779 73.73 13.8939H69.0917ZM96.3512 10.96C95.9413 7.55859 93.3669 5.60263 89.9584 5.60263C86.068 5.60263 83.0981 8.34961 83.0981 13.1676C83.0981 17.9712 86.0177 20.7326 89.9584 20.7326C93.7337 20.7326 96.0132 18.2229 96.3512 15.5119L93.2015 15.4975C92.9067 17.0724 91.6698 17.9784 90.0087 17.9784C87.7723 17.9784 86.255 16.3173 86.255 13.1676C86.255 10.1042 87.7507 8.3568 90.0303 8.3568C91.7345 8.3568 92.9642 9.34197 93.2015 10.96H96.3512ZM103.517 20.747C106.868 20.747 108.954 18.453 108.954 15.0517C108.954 11.6287 106.868 9.34197 103.517 9.34197C100.166 9.34197 98.0806 11.6287 98.0806 15.0517C98.0806 18.453 100.166 20.747 103.517 20.747ZM103.531 18.3739C101.985 18.3739 101.194 16.9573 101.194 15.0301C101.194 13.1029 101.985 11.6791 103.531 11.6791C105.049 11.6791 105.84 13.1029 105.84 15.0301C105.84 16.9573 105.049 18.3739 103.531 18.3739ZM110.945 20.5312H114.009V13.9011C114.009 12.6786 114.785 11.866 115.807 11.866C116.813 11.866 117.489 12.5564 117.489 13.6422V20.5312H120.459V13.786C120.459 12.6427 121.114 11.866 122.228 11.866C123.206 11.866 123.94 12.4773 123.94 13.7069V20.5312H126.996V13.1029C126.996 10.7083 125.572 9.34197 123.515 9.34197C121.897 9.34197 120.639 10.1689 120.186 11.4346H120.071C119.719 10.1546 118.59 9.34197 117.072 9.34197C115.584 9.34197 114.455 10.133 113.994 11.4346H113.865V9.4858H110.945V20.5312ZM129.416 20.5312H132.479V13.9011C132.479 12.6786 133.256 11.866 134.277 11.866C135.284 11.866 135.96 12.5564 135.96 13.6422V20.5312H138.929V13.786C138.929 12.6427 139.584 11.866 140.698 11.866C141.676 11.866 142.41 12.4773 142.41 13.7069V20.5312H145.466V13.1029C145.466 10.7083 144.042 9.34197 141.986 9.34197C140.368 9.34197 139.109 10.1689 138.656 11.4346H138.541C138.189 10.1546 137.06 9.34197 135.542 9.34197C134.054 9.34197 132.925 10.133 132.465 11.4346H132.335V9.4858H129.416V20.5312ZM154.969 15.8283C154.976 17.3097 153.962 18.0863 152.862 18.0863C151.704 18.0863 150.956 17.2737 150.949 15.9721V9.4858H147.886V16.5186C147.893 19.1002 149.403 20.6751 151.625 20.6751C153.286 20.6751 154.48 19.8193 154.976 18.5249H155.091V20.5312H158.032V9.4858H154.969V15.8283ZM163.546 14.1456C163.553 12.7218 164.402 11.8876 165.639 11.8876C166.868 11.8876 167.609 12.693 167.602 14.0449V20.5312H170.665V13.4984C170.665 10.924 169.155 9.34197 166.854 9.34197C165.215 9.34197 164.028 10.1474 163.532 11.4346H163.402V9.4858H160.483V20.5312H163.546V14.1456ZM173.08 20.5312H176.143V9.4858H173.08V20.5312ZM174.619 8.06197C175.532 8.06197 176.28 7.36444 176.28 6.5087C176.28 5.66016 175.532 4.96262 174.619 4.96262C173.713 4.96262 172.965 5.66016 172.965 6.5087C172.965 7.36444 173.713 8.06197 174.619 8.06197ZM184.472 9.4858H182.394V6.83949H179.331V9.4858H177.82V11.7869H179.331V17.5398C179.316 19.7043 180.79 20.7757 183.012 20.6823C183.803 20.6535 184.364 20.4953 184.673 20.3946L184.192 18.1151C184.041 18.1438 183.717 18.2157 183.429 18.2157C182.818 18.2157 182.394 17.9856 182.394 17.1371V11.7869H184.472V9.4858ZM188.359 24.6733C190.638 24.6733 191.847 23.5083 192.472 21.725L196.765 9.50018L193.522 9.4858L191.214 17.5973H191.099L188.812 9.4858H185.59L189.553 20.8477L189.373 21.3151C188.97 22.3506 188.201 22.4009 187.122 22.0701L186.432 24.3569C186.87 24.5439 187.582 24.6733 188.359 24.6733ZM40.4048 45.5312H43.5185V39.4476H49.5087V36.8804H43.5185V33.3712H50.1559V30.804H40.4048V45.5312ZM58.5838 40.8283C58.591 42.3097 57.5771 43.0863 56.4768 43.0863C55.3191 43.0863 54.5712 42.2737 54.564 40.9721V34.4858H51.5006V41.5186C51.5078 44.1002 53.0179 45.6751 55.24 45.6751C56.9011 45.6751 58.0948 44.8193 58.591 43.5249H58.706V45.5312H61.6472V34.4858H58.5838V40.8283ZM67.1609 39.1456C67.1681 37.7218 68.0167 36.8876 69.2535 36.8876C70.4832 36.8876 71.2239 37.693 71.2167 39.0449V45.5312H74.2801V38.4984C74.2801 35.924 72.7699 34.342 70.4688 34.342C68.8293 34.342 67.6427 35.1474 67.1465 36.4346H67.0171V34.4858H64.0975V45.5312H67.1609V39.1456ZM80.7646 45.711C82.548 45.711 83.4756 44.6827 83.8999 43.7623H84.0293V45.5312H87.0496V30.804H83.9934V36.3411H83.8999C83.49 35.4422 82.6055 34.342 80.7574 34.342C78.334 34.342 76.2846 36.226 76.2846 40.0229C76.2846 43.7191 78.2477 45.711 80.7646 45.711ZM81.7354 43.2733C80.2325 43.2733 79.4127 41.9357 79.4127 40.0085C79.4127 38.0957 80.2181 36.7797 81.7354 36.7797C83.2239 36.7797 84.0581 38.0382 84.0581 40.0085C84.0581 41.9789 83.2096 43.2733 81.7354 43.2733Z" fill="#211E1F"/>
<rect x="223" y="1" width="4" height="48" fill="#211E1F"/>
<path d="M254.755 11H256.142V8.41354H257.607C259.375 8.41354 260.324 7.35204 260.324 5.8794C260.324 4.41798 259.386 3.34527 257.626 3.34527H254.755V11ZM256.142 7.27355V4.50394H257.412C258.452 4.50394 258.911 5.06459 258.911 5.8794C258.911 6.69421 258.452 7.27355 257.42 7.27355H256.142ZM268.868 7.17263C268.868 4.6983 267.358 3.24061 265.351 3.24061C263.34 3.24061 261.834 4.6983 261.834 7.17263C261.834 9.64323 263.34 11.1047 265.351 11.1047C267.358 11.1047 268.868 9.64697 268.868 7.17263ZM267.474 7.17263C267.474 8.91438 266.6 9.86001 265.351 9.86001C264.107 9.86001 263.228 8.91438 263.228 7.17263C263.228 5.43088 264.107 4.48525 265.351 4.48525C266.6 4.48525 267.474 5.43088 267.474 7.17263ZM272.095 11H273.463L274.999 5.62898H275.059L276.592 11H277.959L280.12 3.34527H278.629L277.249 8.97419H277.182L275.706 3.34527H274.349L272.876 8.97045H272.805L271.426 3.34527H269.935L272.095 11ZM281.581 11H286.59V9.83759H282.968V7.74823H286.302V6.58582H282.968V4.50768H286.56V3.34527H281.581V11ZM288.475 11H289.861V8.19675H291.274L292.777 11H294.324L292.668 7.96502C293.569 7.60246 294.044 6.83251 294.044 5.79344C294.044 4.33201 293.102 3.34527 291.345 3.34527H288.475V11ZM289.861 7.04555V4.50394H291.132C292.167 4.50394 292.631 4.97863 292.631 5.79344C292.631 6.60825 292.167 7.04555 291.14 7.04555H289.861ZM295.82 11H300.829V9.83759H297.207V7.74823H300.541V6.58582H297.207V4.50768H300.799V3.34527H295.82V11ZM305.307 11C307.64 11 309.023 9.55726 309.023 7.16516C309.023 4.78053 307.64 3.34527 305.36 3.34527H302.713V11H305.307ZM304.1 9.80021V4.54506H305.281C306.836 4.54506 307.647 5.41219 307.647 7.16516C307.647 8.9256 306.836 9.80021 305.24 9.80021H304.1ZM313.951 11H317.049C318.802 11 319.662 10.1067 319.662 8.91438C319.662 7.75571 318.84 7.07545 318.025 7.03434V6.95959C318.772 6.78392 319.363 6.26064 319.363 5.32997C319.363 4.18998 318.541 3.34527 316.881 3.34527H313.951V11ZM315.338 9.84132V7.59873H316.866C317.722 7.59873 318.253 8.122 318.253 8.80599C318.253 9.41523 317.834 9.84132 316.829 9.84132H315.338ZM315.338 6.60077V4.48899H316.739C317.554 4.48899 317.976 4.91882 317.976 5.50937C317.976 6.18215 317.431 6.60077 316.709 6.60077H315.338ZM320.845 3.34527L323.63 8.14443V11H325.013V8.14443L327.797 3.34527H326.231L324.359 6.73159H324.284L322.411 3.34527H320.845Z" fill="#211E1F"/>
<path d="M281.749 29.4006C282.605 29.4006 283.098 28.8918 283.098 27.9921V20.78H284.971C285.686 20.78 286.172 20.3818 286.172 19.6886C286.172 18.9954 285.701 18.5972 284.971 18.5972H278.535C277.798 18.5972 277.326 18.9954 277.326 19.6886C277.326 20.3818 277.813 20.78 278.535 20.78H280.4V27.9921C280.4 28.8918 280.894 29.4006 281.749 29.4006ZM288.354 29.408C289.114 29.408 289.659 28.9655 289.659 28.0511V24.7105C289.659 23.8109 290.153 23.184 291.03 23.184C291.892 23.184 292.342 23.7445 292.342 24.6516V28.0511C292.342 28.9655 292.88 29.408 293.647 29.408C294.414 29.408 294.952 28.9655 294.952 28.0511V24.0837C294.952 22.1885 293.957 21.0528 292.165 21.0528C290.942 21.0528 290.064 21.6428 289.652 22.7195H289.6V19.7623C289.6 18.9143 289.135 18.4276 288.325 18.4276C287.514 18.4276 287.042 18.9143 287.042 19.755V28.0511C287.042 28.9655 287.588 29.408 288.354 29.408ZM300.038 29.4301C301.637 29.4301 302.935 28.8623 303.466 27.9184C303.584 27.7267 303.643 27.5276 303.643 27.3284C303.643 26.7532 303.193 26.414 302.662 26.414C302.338 26.414 302.124 26.5025 301.851 26.7606C301.269 27.3506 300.775 27.5792 300.06 27.5792C299.117 27.5792 298.475 26.9155 298.475 25.942V25.7946H302.839C303.517 25.7946 303.893 25.4258 303.893 24.7621C303.893 22.5941 302.323 21.016 299.935 21.016C297.487 21.016 295.94 22.6605 295.94 25.2636C295.94 27.8741 297.465 29.4301 300.038 29.4301ZM298.512 24.3049C298.578 23.4643 299.175 22.8743 299.986 22.8743C300.804 22.8743 301.387 23.4348 301.431 24.3049H298.512ZM279.287 47.524C280.142 47.524 280.636 47.015 280.636 46.1153V44.2422H282.376C284.742 44.2422 286.371 42.7598 286.371 40.4888C286.371 38.2026 284.823 36.7204 282.538 36.7204H279.287C278.432 36.7204 277.931 37.2366 277.931 38.1362V46.1153C277.931 47.015 278.432 47.524 279.287 47.524ZM280.636 42.2071V38.7927H281.823C282.958 38.7927 283.636 39.3901 283.636 40.496C283.636 41.6098 282.958 42.2071 281.808 42.2071H280.636ZM288.708 47.5312C289.504 47.5312 290.013 47.0592 290.013 46.1742V43.0404C290.013 42.1259 290.271 41.7276 291.17 41.7057C291.657 41.6834 292.025 41.5728 292.268 41.3515C292.512 41.1378 292.637 40.8278 292.637 40.4152C292.637 39.9432 292.504 39.6113 292.246 39.4195C292.077 39.2794 291.841 39.213 291.546 39.213C290.742 39.213 290.153 39.788 289.954 40.872H289.902V40.4741C289.902 39.626 289.401 39.1612 288.671 39.1612C287.912 39.1612 287.396 39.626 287.396 40.4665V46.1742C287.396 47.0592 287.905 47.5312 288.708 47.5312ZM296.994 47.5534C299.522 47.5534 301.1 46.0269 301.1 43.3424C301.1 40.71 299.5 39.1394 296.994 39.1394C294.502 39.1394 292.888 40.7172 292.888 43.3424C292.888 46.0194 294.465 47.5534 296.994 47.5534ZM296.994 45.6362C296.094 45.6362 295.541 44.8176 295.541 43.35C295.541 41.9047 296.109 41.0566 296.994 41.0566C297.885 41.0566 298.453 41.9047 298.453 43.35C298.453 44.8176 297.885 45.6362 296.994 45.6362ZM305.065 47.4794C306.282 47.4794 307.188 46.8308 307.498 45.9605H307.549V46.1893C307.549 47.0962 308.095 47.5312 308.854 47.5312C309.621 47.5312 310.159 47.0962 310.159 46.1893V37.9077C310.159 36.9933 309.621 36.5508 308.854 36.5508C308.087 36.5508 307.549 36.9933 307.549 37.9077V40.7467H307.498C307.144 39.8473 306.26 39.213 305.095 39.213C303.09 39.213 301.866 40.7618 301.866 43.3277C301.866 45.9235 303.067 47.4794 305.065 47.4794ZM306.046 45.4368C305.102 45.4368 304.542 44.6477 304.542 43.35C304.542 42.0595 305.11 41.2556 306.046 41.2556C306.982 41.2556 307.557 42.0595 307.557 43.35C307.557 44.6552 306.989 45.4368 306.046 45.4368ZM314.346 47.5164C315.555 47.5164 316.322 46.8972 316.683 45.8427H316.734V46.2112C316.734 47.1034 317.25 47.5312 318.002 47.5312C318.754 47.5312 319.27 47.1034 319.27 46.204V40.5182C319.27 39.6038 318.732 39.1612 317.965 39.1612C317.199 39.1612 316.661 39.6038 316.661 40.5182V43.8737C316.661 44.7806 316.145 45.3855 315.334 45.3855C314.515 45.3855 314.022 44.8765 314.022 43.925V40.5182C314.022 39.6038 313.476 39.1612 312.717 39.1612C311.95 39.1612 311.405 39.6038 311.405 40.5182V44.4929C311.405 46.3883 312.621 47.5164 314.346 47.5164ZM324.371 47.5534C325.948 47.5534 327.364 46.8085 327.895 45.7245C328.027 45.4662 328.079 45.2454 328.079 45.046C328.079 44.397 327.57 44.0209 326.988 44.0209C326.435 44.0209 326.148 44.2497 325.808 44.7436C325.506 45.2155 325.101 45.5697 324.438 45.5697C323.479 45.5697 322.941 44.7806 322.941 43.3424C322.941 41.9194 323.494 41.1303 324.452 41.1303C325.042 41.1303 325.462 41.418 325.838 42.0742C326.089 42.4944 326.406 42.6938 326.907 42.6938C327.504 42.6938 328.027 42.3324 328.027 41.7057C328.027 41.5063 327.968 41.2632 327.865 41.0419C327.371 39.8839 326.015 39.1394 324.356 39.1394C321.858 39.1394 320.295 40.7467 320.295 43.3424C320.295 45.968 321.858 47.5534 324.371 47.5534ZM329.774 45.2084C329.774 46.6979 330.563 47.4647 332.111 47.4647H332.177C333.187 47.4647 334.013 47.0815 334.013 46.3218C334.013 45.7173 333.674 45.4591 333.091 45.3926L332.93 45.3707C332.561 45.3337 332.391 45.1347 332.391 44.633V41.2632H333.025C333.607 41.2632 333.991 40.8796 333.991 40.297C333.991 39.7144 333.607 39.3308 333.025 39.3308H332.391V38.6893C332.391 37.8413 331.912 37.3325 331.087 37.3325C330.254 37.3325 329.774 37.8413 329.774 38.6893V39.3308H329.487C328.905 39.3308 328.521 39.7072 328.521 40.297C328.521 40.8796 328.905 41.2632 329.487 41.2632H329.774V45.2084ZM339.379 47.524C340.234 47.524 340.729 47.015 340.729 46.1153V43.3942H343.854C344.554 43.3942 344.982 43.0109 344.982 42.3619C344.982 41.7057 344.539 41.3221 343.854 41.3221H340.729V38.9034H344.2C344.915 38.9034 345.402 38.505 345.402 37.8118C345.402 37.1186 344.93 36.7204 344.2 36.7204H339.379C338.524 36.7204 338.023 37.2366 338.023 38.1362V46.1153C338.023 47.015 338.524 47.524 339.379 47.524ZM349.95 47.5534C352.478 47.5534 354.056 46.0269 354.056 43.3424C354.056 40.71 352.456 39.1394 349.95 39.1394C347.459 39.1394 345.844 40.7172 345.844 43.3424C345.844 46.0194 347.422 47.5534 349.95 47.5534ZM349.95 45.6362C349.051 45.6362 348.498 44.8176 348.498 43.35C348.498 41.9047 349.065 41.0566 349.95 41.0566C350.842 41.0566 351.409 41.9047 351.409 43.35C351.409 44.8176 350.842 45.6362 349.95 45.6362ZM356.422 47.5312C357.181 47.5312 357.727 47.0887 357.727 46.1742V37.9077C357.727 36.9933 357.181 36.5508 356.422 36.5508C355.655 36.5508 355.11 36.9933 355.11 37.9077V46.1742C355.11 47.0887 355.655 47.5312 356.422 47.5312ZM360.388 47.5312C361.147 47.5312 361.693 47.0887 361.693 46.1742V44.9648L362.356 44.3528L363.934 46.6314C364.369 47.3175 364.693 47.5312 365.29 47.5312C366.034 47.5312 366.551 47.052 366.551 46.3294C366.551 45.9899 366.462 45.7615 366.167 45.356L364.324 42.915L366.02 41.3221C366.41 40.9607 366.536 40.71 366.536 40.3045C366.536 39.6479 366.034 39.1612 365.357 39.1612C364.951 39.1612 364.656 39.3236 364.288 39.6997L361.737 42.3249H361.693V37.9077C361.693 36.9933 361.147 36.5508 360.388 36.5508C359.621 36.5508 359.076 36.9933 359.076 37.9077V46.1742C359.076 47.0887 359.621 47.5312 360.388 47.5312ZM371.01 47.5534C373.244 47.5534 374.74 46.4913 374.74 44.81C374.74 43.6082 373.996 42.9516 372.271 42.6126L370.877 42.3396C370.111 42.1848 369.868 41.9636 369.868 41.617C369.868 41.182 370.295 40.9018 370.929 40.9018C371.696 40.9018 372.094 41.3145 372.492 41.7129C372.713 41.9194 373.089 42.0372 373.384 42.0372C374.062 42.0372 374.379 41.6687 374.379 41.1673C374.379 41.0419 374.357 40.9166 374.313 40.7912C374.025 39.9062 372.787 39.1394 370.951 39.1394C368.733 39.1394 367.354 40.1493 367.354 41.7646C367.354 42.9811 368.172 43.8144 369.757 44.1244L371.158 44.4045C371.887 44.5522 372.146 44.7436 372.146 45.0977C372.146 45.5327 371.71 45.791 371.033 45.791C370.303 45.791 369.801 45.5697 369.359 45.083C368.983 44.7141 368.637 44.5446 368.224 44.5446C367.634 44.5446 367.207 44.9501 367.207 45.5255C367.207 45.6581 367.244 45.8129 367.303 45.968C367.678 46.8897 368.961 47.5534 371.01 47.5534Z" fill="#018E98"/>
<path d="M269.747 32.9706C269.338 32.6994 268.931 32.5431 268.593 32.4535L268.592 29.1211C268.591 27.0088 268.248 25.2934 267.756 23.9162C267.742 23.8574 267.722 23.8014 267.695 23.7486C267.172 22.3488 266.496 21.3118 265.879 20.5751C264.503 18.9315 263.096 18.3582 263.037 18.3342C262.844 18.2574 262.63 18.2574 262.437 18.334C262.378 18.3577 260.972 18.9295 259.598 20.572C258.981 21.3089 258.305 22.3469 257.784 23.7481C257.76 23.7983 257.74 23.8512 257.727 23.9071C257.235 25.2843 256.894 27.0009 256.895 29.1153L256.897 32.4477C256.56 32.5371 256.153 32.6927 255.744 32.9637C254.89 33.5299 253.873 34.7147 253.875 37.1445L253.876 39.1523C253.876 39.5955 254.237 39.9554 254.683 39.9557L257.373 39.9573L259.155 41.7303C259.306 41.8813 259.511 41.9655 259.725 41.9655L265.775 41.9689C265.989 41.9689 266.194 41.8844 266.345 41.7341L268.124 39.9625L270.815 39.9641C271.26 39.9641 271.621 39.6046 271.621 39.1613L271.62 37.1536C271.619 34.7237 270.6 33.5377 269.747 32.9706ZM256.901 38.35L255.489 38.3492L255.489 37.1445C255.488 35.234 256.26 34.4598 256.899 34.146L256.901 38.35ZM260.777 21.6745C261.546 20.7328 262.325 20.2125 262.738 19.9792C263.153 20.2137 263.931 20.7353 264.701 21.677C265.104 22.1703 265.453 22.7121 265.749 23.2979L259.73 23.2945C260.027 22.7089 260.374 22.1672 260.777 21.6745ZM266.98 33.1353L266.984 38.8253L265.44 40.3616L260.059 40.359L258.514 38.8208L258.511 33.1308L258.509 29.1155C258.508 27.5574 258.702 26.1499 259.086 24.8998L266.397 24.9035C266.783 26.1538 266.977 27.5617 266.978 29.1198L266.98 33.1353ZM270.008 38.3567L268.597 38.356L268.594 34.1594C268.696 34.2091 268.802 34.2691 268.907 34.3432C269.636 34.8607 270.007 35.8054 270.008 37.1521L270.008 38.3567Z" fill="#018E97"/>
<path d="M262.77 42.3676C262.325 42.3676 261.964 42.7274 261.964 43.1711L261.962 49.1967C261.962 49.6399 262.323 50.0001 262.768 49.9998C263.213 49.9998 263.575 49.6396 263.575 49.1963L263.576 43.1707C263.576 42.7271 263.215 42.368 262.77 42.3676Z" fill="#F27B20"/>
<path d="M262.732 26.298C261.809 26.2982 260.987 26.7431 260.471 27.4294C260.119 27.8989 259.91 28.4809 259.91 29.1109C259.91 29.5543 260.271 29.9141 260.716 29.914C260.883 29.9139 261.038 29.8636 261.167 29.7764C261.381 29.6317 261.522 29.3873 261.522 29.1099C261.523 28.6948 261.735 28.3274 262.056 28.1105C262.249 27.9808 262.482 27.9046 262.732 27.9041C263.399 27.904 263.941 28.4441 263.941 29.1088C263.941 29.5522 264.302 29.912 264.747 29.9119C264.995 29.9118 265.216 29.8 265.364 29.6247C265.482 29.4849 265.553 29.305 265.553 29.1084C265.554 27.559 264.289 26.2977 262.732 26.298Z" fill="#F48222"/>
<path d="M259.919 42.3042H259.919C259.493 42.3042 259.147 42.6498 259.147 43.0761V45.6359C259.147 46.0622 259.493 46.4078 259.919 46.4078H259.919C260.345 46.4078 260.69 46.0622 260.69 45.6359V43.0761C260.69 42.6498 260.345 42.3042 259.919 42.3042Z" fill="#F27B20"/>
<path d="M265.577 42.3042H265.577C265.151 42.3042 264.805 42.6498 264.805 43.0761V45.6359C264.805 46.0622 265.151 46.4078 265.577 46.4078H265.577C266.003 46.4078 266.348 46.0622 266.348 45.6359V43.0761C266.348 42.6498 266.003 42.3042 265.577 42.3042Z" fill="#F27B20"/>
</svg>
