<svg width="273" height="54" viewBox="0 0 273 54" fill="none" xmlns="http://www.w3.org/2000/svg">
<path d="M15.2479 12.1167C14.838 8.71533 12.2636 6.75937 8.85503 6.75937C4.96467 6.75937 1.99476 9.50635 1.99476 14.3244C1.99476 19.128 4.91433 21.8893 8.85503 21.8893C12.6303 21.8893 14.9099 19.3797 15.2479 16.6686L12.0982 16.6543C11.8034 18.2291 10.5665 19.1352 8.90536 19.1352C6.66895 19.1352 5.15163 17.474 5.15163 14.3244C5.15163 11.261 6.64737 9.51354 8.92694 9.51354C10.6312 9.51354 11.8609 10.4987 12.0982 12.1167H15.2479ZM22.4138 21.9037C25.7648 21.9037 27.8502 19.6098 27.8502 16.2084C27.8502 12.7855 25.7648 10.4987 22.4138 10.4987C19.0627 10.4987 16.9773 12.7855 16.9773 16.2084C16.9773 19.6098 19.0627 21.9037 22.4138 21.9037ZM22.4281 19.5307C20.8821 19.5307 20.091 18.114 20.091 16.1868C20.091 14.2596 20.8821 12.8358 22.4281 12.8358C23.9454 12.8358 24.7365 14.2596 24.7365 16.1868C24.7365 18.114 23.9454 19.5307 22.4281 19.5307ZM29.8421 21.688H32.9055V15.0578C32.9055 13.8354 33.6821 13.0228 34.7033 13.0228C35.71 13.0228 36.386 13.7131 36.386 14.799V21.688H39.3559V14.9428C39.3559 13.7994 40.0103 13.0228 41.1249 13.0228C42.1028 13.0228 42.8363 13.634 42.8363 14.8637V21.688H45.8925V14.2596C45.8925 11.865 44.4687 10.4987 42.4121 10.4987C40.7941 10.4987 39.5356 11.3257 39.0826 12.5913H38.9676C38.6152 11.3113 37.4862 10.4987 35.9689 10.4987C34.4803 10.4987 33.3513 11.2897 32.8911 12.5913H32.7617V10.6425H29.8421V21.688ZM48.3123 21.688H51.3757V15.0578C51.3757 13.8354 52.1523 13.0228 53.1735 13.0228C54.1802 13.0228 54.8562 13.7131 54.8562 14.799V21.688H57.8261V14.9428C57.8261 13.7994 58.4805 13.0228 59.5951 13.0228C60.5731 13.0228 61.3066 13.634 61.3066 14.8637V21.688H64.3627V14.2596C64.3627 11.865 62.9389 10.4987 60.8823 10.4987C59.2643 10.4987 58.0059 11.3257 57.5528 12.5913H57.4378C57.0854 11.3113 55.9564 10.4987 54.4391 10.4987C52.9506 10.4987 51.8216 11.2897 51.3613 12.5913H51.2319V10.6425H48.3123V21.688ZM73.8657 16.985C73.8729 18.4664 72.859 19.243 71.7587 19.243C70.601 19.243 69.8531 18.4304 69.8459 17.1289V10.6425H66.7825V17.6754C66.7897 20.257 68.2998 21.8318 70.5219 21.8318C72.183 21.8318 73.3767 20.9761 73.8729 19.6817H73.988V21.688H76.9291V10.6425H73.8657V16.985ZM82.4428 15.3023C82.45 13.8785 83.2986 13.0443 84.5354 13.0443C85.7651 13.0443 86.5058 13.8497 86.4986 15.2017V21.688H89.562V14.6551C89.562 12.0807 88.0519 10.4987 85.7507 10.4987C84.1112 10.4987 82.9246 11.3041 82.4285 12.5913H82.299V10.6425H79.3795V21.688H82.4428V15.3023ZM91.9764 21.688H95.0398V10.6425H91.9764V21.688ZM93.5153 9.21871C94.4285 9.21871 95.1764 8.52117 95.1764 7.66544C95.1764 6.81689 94.4285 6.11936 93.5153 6.11936C92.6092 6.11936 91.8613 6.81689 91.8613 7.66544C91.8613 8.52117 92.6092 9.21871 93.5153 9.21871ZM103.369 10.6425H101.291V7.99623H98.2272V10.6425H96.7171V12.9437H98.2272V18.6965C98.2128 20.861 99.687 21.9325 101.909 21.839C102.7 21.8102 103.261 21.652 103.57 21.5514L103.088 19.2718C102.937 19.3006 102.614 19.3725 102.326 19.3725C101.715 19.3725 101.291 19.1424 101.291 18.2938V12.9437H103.369V10.6425ZM107.256 25.83C109.535 25.83 110.743 24.6651 111.369 22.8817L115.662 10.6569L112.419 10.6425L110.11 18.754H109.995L107.709 10.6425H104.487L108.449 22.0044L108.27 22.4718C107.867 23.5073 107.097 23.5577 106.019 23.2269L105.328 25.5136C105.767 25.7006 106.479 25.83 107.256 25.83ZM2.25364 46.688H5.36737V40.6044H11.3575V38.0372H5.36737V34.5279H12.0047V31.9607H2.25364V46.688ZM20.4326 41.985C20.4398 43.4664 19.4259 44.243 18.3256 44.243C17.1679 44.243 16.42 43.4304 16.4128 42.1289V35.6425H13.3494V42.6754C13.3566 45.257 14.8667 46.8318 17.0888 46.8318C18.7499 46.8318 19.9436 45.9761 20.4398 44.6817H20.5549V46.688H23.496V35.6425H20.4326V41.985ZM29.0097 40.3023C29.0169 38.8785 29.8655 38.0443 31.1023 38.0443C32.332 38.0443 33.0727 38.8497 33.0655 40.2017V46.688H36.1289V39.6551C36.1289 37.0807 34.6188 35.4987 32.3176 35.4987C30.6781 35.4987 29.4915 36.3041 28.9954 37.5913H28.8659V35.6425H25.9464V46.688H29.0097V40.3023ZM42.6134 46.8678C44.3968 46.8678 45.3244 45.8394 45.7487 44.919H45.8782V46.688H48.8984V31.9607H45.8422V37.4978H45.7487C45.3388 36.5989 44.4543 35.4987 42.6062 35.4987C40.1828 35.4987 38.1334 37.3828 38.1334 41.1796C38.1334 44.8758 40.0965 46.8678 42.6134 46.8678ZM43.5842 44.43C42.0813 44.43 41.2615 43.0925 41.2615 41.1653C41.2615 39.2524 42.0669 37.9365 43.5842 37.9365C45.0728 37.9365 45.9069 39.1949 45.9069 41.1653C45.9069 43.1356 45.0584 44.43 43.5842 44.43Z" fill="#211E1F"/>
<rect x="130.534" width="3.78947" height="54" fill="#211E1F"/>
<path d="M152.578 10H153.964V7.41354H155.43C157.198 7.41354 158.147 6.35204 158.147 4.8794C158.147 3.41798 157.209 2.34527 155.448 2.34527H152.578V10ZM153.964 6.27355V3.50394H155.235C156.274 3.50394 156.734 4.06459 156.734 4.8794C156.734 5.69421 156.274 6.27355 155.243 6.27355H153.964ZM161.714 10.1121C163.395 10.1121 164.464 8.92729 164.464 7.1519C164.464 5.37277 163.395 4.1842 161.714 4.1842C160.032 4.1842 158.963 5.37277 158.963 7.1519C158.963 8.92729 160.032 10.1121 161.714 10.1121ZM161.721 9.02821C160.79 9.02821 160.334 8.19845 160.334 7.14816C160.334 6.09788 160.79 5.25691 161.721 5.25691C162.637 5.25691 163.093 6.09788 163.093 7.14816C163.093 8.19845 162.637 9.02821 161.721 9.02821ZM166.644 10H168.056L169.133 6.12031H169.211L170.288 10H171.697L173.323 4.25895H171.94L170.946 8.2732H170.89L169.858 4.25895H168.494L167.462 8.29563H167.41L166.401 4.25895H165.021L166.644 10ZM176.655 10.1121C177.993 10.1121 178.912 9.45804 179.152 8.46008L177.888 8.31805C177.705 8.80395 177.257 9.05811 176.674 9.05811C175.799 9.05811 175.22 8.48251 175.208 7.4995H179.208V7.08462C179.208 5.07002 177.997 4.1842 176.584 4.1842C174.939 4.1842 173.867 5.39146 173.867 7.16311C173.867 8.96467 174.924 10.1121 176.655 10.1121ZM175.212 6.58751C175.253 5.85493 175.795 5.23822 176.603 5.23822C177.38 5.23822 177.903 5.80634 177.911 6.58751H175.212ZM180.352 10H181.705V6.62489C181.705 5.89605 182.255 5.38025 182.999 5.38025C183.227 5.38025 183.511 5.42136 183.627 5.45874V4.2141C183.503 4.19167 183.29 4.17672 183.141 4.17672C182.483 4.17672 181.933 4.55049 181.724 5.21579H181.664V4.25895H180.352V10ZM186.831 10.1121C188.169 10.1121 189.088 9.45804 189.327 8.46008L188.064 8.31805C187.881 8.80395 187.432 9.05811 186.849 9.05811C185.975 9.05811 185.395 8.48251 185.384 7.4995H189.383V7.08462C189.383 5.07002 188.172 4.1842 186.76 4.1842C185.115 4.1842 184.042 5.39146 184.042 7.16311C184.042 8.96467 185.1 10.1121 186.831 10.1121ZM185.388 6.58751C185.429 5.85493 185.971 5.23822 186.778 5.23822C187.556 5.23822 188.079 5.80634 188.086 6.58751H185.388ZM192.659 10.1009C193.645 10.1009 194.09 9.5141 194.303 9.09549H194.385V10H195.716V2.34527H194.359V5.20832H194.303C194.098 4.79344 193.675 4.1842 192.662 4.1842C191.335 4.1842 190.293 5.22327 190.293 7.13695C190.293 9.02821 191.306 10.1009 192.659 10.1009ZM193.036 8.99083C192.143 8.99083 191.672 8.20592 191.672 7.12947C191.672 6.0605 192.135 5.29428 193.036 5.29428C193.907 5.29428 194.385 6.01565 194.385 7.12947C194.385 8.2433 193.899 8.99083 193.036 8.99083ZM199.828 10H201.159V9.09549H201.237C201.451 9.5141 201.895 10.1009 202.882 10.1009C204.235 10.1009 205.248 9.02821 205.248 7.13695C205.248 5.22327 204.205 4.1842 202.878 4.1842C201.865 4.1842 201.443 4.79344 201.237 5.20832H201.181V2.34527H199.828V10ZM201.155 7.12947C201.155 6.01565 201.634 5.29428 202.505 5.29428C203.405 5.29428 203.869 6.0605 203.869 7.12947C203.869 8.20592 203.398 8.99083 202.505 8.99083C201.641 8.99083 201.155 8.2433 201.155 7.12947ZM207.044 12.1529C208.098 12.1529 208.707 11.6109 209.032 10.6952L211.338 4.26643L209.892 4.25895L208.565 8.59464H208.505L207.182 4.25895H205.747L207.829 10.1196L207.713 10.4298C207.463 11.0839 207.066 11.1288 206.476 10.9568L206.162 12.0109C206.345 12.0856 206.674 12.1529 207.044 12.1529Z" fill="#211E1F"/>
<path d="M179.034 33.4003C179.89 33.4003 180.383 32.8915 180.383 31.9918V24.7797H182.256C182.971 24.7797 183.457 24.3815 183.457 23.6882C183.457 22.9951 182.985 22.5968 182.256 22.5968H175.82C175.083 22.5968 174.611 22.9951 174.611 23.6882C174.611 24.3815 175.098 24.7797 175.82 24.7797H177.685V31.9918C177.685 32.8915 178.179 33.4003 179.034 33.4003ZM185.639 33.4077C186.398 33.4077 186.944 32.9652 186.944 32.0508V28.7102C186.944 27.8105 187.438 27.1837 188.315 27.1837C189.177 27.1837 189.627 27.7442 189.627 28.6512V32.0508C189.627 32.9652 190.165 33.4077 190.932 33.4077C191.699 33.4077 192.237 32.9652 192.237 32.0508V28.0834C192.237 26.1882 191.242 25.0525 189.45 25.0525C188.227 25.0525 187.349 25.6425 186.937 26.7191H186.885V23.762C186.885 22.9139 186.42 22.4272 185.61 22.4272C184.799 22.4272 184.327 22.9139 184.327 23.7546V32.0508C184.327 32.9652 184.873 33.4077 185.639 33.4077ZM197.323 33.4298C198.922 33.4298 200.22 32.862 200.751 31.918C200.869 31.7263 200.928 31.5272 200.928 31.3281C200.928 30.7529 200.478 30.4137 199.947 30.4137C199.623 30.4137 199.409 30.5022 199.136 30.7603C198.554 31.3502 198.06 31.5788 197.345 31.5788C196.402 31.5788 195.76 30.9152 195.76 29.9417V29.7942H200.124C200.802 29.7942 201.178 29.4255 201.178 28.7618C201.178 26.5937 199.608 25.0157 197.22 25.0157C194.772 25.0157 193.224 26.6601 193.224 29.2633C193.224 31.8738 194.75 33.4298 197.323 33.4298ZM195.797 28.3046C195.863 27.4639 196.46 26.874 197.271 26.874C198.089 26.874 198.672 27.4344 198.716 28.3046H195.797ZM176.572 51.5237C177.427 51.5237 177.921 51.0147 177.921 50.115V48.2418H179.661C182.027 48.2418 183.656 46.7595 183.656 44.4884C183.656 42.2023 182.108 40.7201 179.823 40.7201H176.572C175.717 40.7201 175.216 41.2363 175.216 42.1358V50.115C175.216 51.0147 175.717 51.5237 176.572 51.5237ZM177.921 46.2068V42.7924H179.108C180.243 42.7924 180.921 43.3897 180.921 44.4956C180.921 45.6094 180.243 46.2068 179.093 46.2068H177.921ZM185.993 51.5308C186.789 51.5308 187.298 51.0589 187.298 50.1739V47.04C187.298 46.1256 187.556 45.7272 188.455 45.7053C188.942 45.6831 189.31 45.5724 189.553 45.3512C189.797 45.1375 189.922 44.8275 189.922 44.4148C189.922 43.9429 189.789 43.611 189.531 43.4192C189.362 43.2791 189.126 43.2126 188.831 43.2126C188.027 43.2126 187.438 43.7877 187.239 44.8717H187.187V44.4737C187.187 43.6257 186.686 43.1609 185.956 43.1609C185.197 43.1609 184.681 43.6257 184.681 44.4662V50.1739C184.681 51.0589 185.19 51.5308 185.993 51.5308ZM194.279 51.5531C196.807 51.5531 198.385 50.0266 198.385 47.3421C198.385 44.7097 196.785 43.139 194.279 43.139C191.787 43.139 190.173 44.7169 190.173 47.3421C190.173 50.0191 191.75 51.5531 194.279 51.5531ZM194.279 49.6358C193.379 49.6358 192.826 48.8173 192.826 47.3496C192.826 45.9043 193.394 45.0563 194.279 45.0563C195.17 45.0563 195.738 45.9043 195.738 47.3496C195.738 48.8173 195.17 49.6358 194.279 49.6358ZM202.35 51.4791C203.567 51.4791 204.473 50.8304 204.783 49.9601H204.834V50.189C204.834 51.0959 205.38 51.5308 206.139 51.5308C206.906 51.5308 207.444 51.0959 207.444 50.189V41.9074C207.444 40.993 206.906 40.5505 206.139 40.5505C205.372 40.5505 204.834 40.993 204.834 41.9074V44.7463H204.783C204.429 43.847 203.545 43.2126 202.38 43.2126C200.375 43.2126 199.151 44.7614 199.151 47.3274C199.151 49.9232 200.352 51.4791 202.35 51.4791ZM203.331 49.4365C202.387 49.4365 201.827 48.6473 201.827 47.3496C201.827 46.0591 202.395 45.2553 203.331 45.2553C204.267 45.2553 204.842 46.0591 204.842 47.3496C204.842 48.6549 204.274 49.4365 203.331 49.4365ZM211.631 51.5161C212.84 51.5161 213.607 50.8969 213.968 49.8423H214.019V50.2109C214.019 51.103 214.535 51.5308 215.287 51.5308C216.039 51.5308 216.555 51.103 216.555 50.2037V44.5179C216.555 43.6034 216.017 43.1609 215.25 43.1609C214.484 43.1609 213.946 43.6034 213.946 44.5179V47.8733C213.946 48.7803 213.43 49.3851 212.619 49.3851C211.8 49.3851 211.307 48.8762 211.307 47.9247V44.5179C211.307 43.6034 210.761 43.1609 210.002 43.1609C209.235 43.1609 208.69 43.6034 208.69 44.5179V48.4925C208.69 50.3879 209.906 51.5161 211.631 51.5161ZM221.656 51.5531C223.233 51.5531 224.649 50.8082 225.18 49.7242C225.312 49.4659 225.364 49.245 225.364 49.0457C225.364 48.3966 224.855 48.0206 224.273 48.0206C223.72 48.0206 223.433 48.2494 223.093 48.7433C222.791 49.2152 222.386 49.5694 221.723 49.5694C220.764 49.5694 220.226 48.7803 220.226 47.3421C220.226 45.919 220.779 45.1299 221.737 45.1299C222.327 45.1299 222.747 45.4176 223.123 46.0738C223.374 46.4941 223.69 46.6934 224.192 46.6934C224.789 46.6934 225.312 46.3321 225.312 45.7053C225.312 45.506 225.253 45.2628 225.15 45.0416C224.656 43.8836 223.3 43.139 221.641 43.139C219.143 43.139 217.58 44.7463 217.58 47.3421C217.58 49.9677 219.143 51.5531 221.656 51.5531ZM227.059 49.208C227.059 50.6975 227.848 51.4644 229.396 51.4644H229.462C230.472 51.4644 231.298 51.0811 231.298 50.3215C231.298 49.717 230.959 49.4587 230.376 49.3923L230.215 49.3704C229.846 49.3334 229.676 49.1344 229.676 48.6326V45.2628H230.31C230.892 45.2628 231.276 44.8792 231.276 44.2966C231.276 43.7141 230.892 43.3304 230.31 43.3304H229.676V42.689C229.676 41.8409 229.197 41.3322 228.372 41.3322C227.539 41.3322 227.059 41.8409 227.059 42.689V43.3304H226.772C226.19 43.3304 225.806 43.7069 225.806 44.2966C225.806 44.8792 226.19 45.2628 226.772 45.2628H227.059V49.208ZM236.664 51.5237C237.519 51.5237 238.014 51.0147 238.014 50.115V47.3938H241.139C241.839 47.3938 242.267 47.0106 242.267 46.3616C242.267 45.7053 241.824 45.3217 241.139 45.3217H238.014V42.903H241.485C242.2 42.903 242.687 42.5047 242.687 41.8115C242.687 41.1183 242.215 40.7201 241.485 40.7201H236.664C235.809 40.7201 235.308 41.2363 235.308 42.1358V50.115C235.308 51.0147 235.809 51.5237 236.664 51.5237ZM247.235 51.5531C249.763 51.5531 251.341 50.0266 251.341 47.3421C251.341 44.7097 249.741 43.139 247.235 43.139C244.744 43.139 243.129 44.7169 243.129 47.3421C243.129 50.0191 244.707 51.5531 247.235 51.5531ZM247.235 49.6358C246.336 49.6358 245.783 48.8173 245.783 47.3496C245.783 45.9043 246.35 45.0563 247.235 45.0563C248.127 45.0563 248.694 45.9043 248.694 47.3496C248.694 48.8173 248.127 49.6358 247.235 49.6358ZM253.707 51.5308C254.466 51.5308 255.012 51.0883 255.012 50.1739V41.9074C255.012 40.993 254.466 40.5505 253.707 40.5505C252.94 40.5505 252.395 40.993 252.395 41.9074V50.1739C252.395 51.0883 252.94 51.5308 253.707 51.5308ZM257.673 51.5308C258.432 51.5308 258.978 51.0883 258.978 50.1739V48.9645L259.641 48.3525L261.219 50.6311C261.654 51.3171 261.978 51.5308 262.575 51.5308C263.319 51.5308 263.836 51.0517 263.836 50.329C263.836 49.9896 263.747 49.7612 263.452 49.3557L261.609 46.9147L263.305 45.3217C263.695 44.9604 263.821 44.7097 263.821 44.3042C263.821 43.6476 263.319 43.1609 262.642 43.1609C262.236 43.1609 261.941 43.3233 261.573 43.6993L259.022 46.3246H258.978V41.9074C258.978 40.993 258.432 40.5505 257.673 40.5505C256.906 40.5505 256.361 40.993 256.361 41.9074V50.1739C256.361 51.0883 256.906 51.5308 257.673 51.5308ZM268.295 51.5531C270.529 51.5531 272.025 50.491 272.025 48.8097C272.025 47.6079 271.281 46.9513 269.556 46.6123L268.162 46.3393C267.396 46.1845 267.153 45.9632 267.153 45.6166C267.153 45.1817 267.58 44.9015 268.214 44.9015C268.981 44.9015 269.379 45.3142 269.777 45.7125C269.998 45.919 270.374 46.0368 270.669 46.0368C271.347 46.0368 271.664 45.6683 271.664 45.1669C271.664 45.0416 271.642 44.9162 271.598 44.7909C271.31 43.9059 270.072 43.139 268.236 43.139C266.018 43.139 264.639 44.149 264.639 45.7642C264.639 46.9808 265.457 47.8141 267.042 48.124L268.443 48.4042C269.172 48.5518 269.431 48.7432 269.431 49.0974C269.431 49.5324 268.995 49.7906 268.318 49.7906C267.588 49.7906 267.086 49.5694 266.644 49.0827C266.268 48.7138 265.922 48.5443 265.509 48.5443C264.919 48.5443 264.492 48.9498 264.492 49.5252C264.492 49.6577 264.529 49.8125 264.588 49.9677C264.963 50.8893 266.246 51.5531 268.295 51.5531Z" fill="#018E98"/>
<path d="M167.033 36.9709C166.624 36.6997 166.216 36.5434 165.879 36.4538L165.878 33.1214C165.877 31.0091 165.534 29.2937 165.042 27.9165C165.028 27.8577 165.007 27.8016 164.981 27.7489C164.458 26.3491 163.782 25.3121 163.165 24.5754C161.789 22.9318 160.382 22.3585 160.323 22.3345C160.13 22.2576 159.916 22.2577 159.723 22.3343C159.664 22.358 158.258 22.9297 156.884 24.5722C156.267 25.3092 155.591 26.3472 155.07 27.7484C155.046 27.7986 155.026 27.8514 155.013 27.9073C154.521 29.2846 154.18 31.0012 154.181 33.1156L154.183 36.448C153.845 36.5374 153.439 36.693 153.03 36.964C152.176 37.5302 151.159 38.715 151.161 41.1448L151.162 43.1526C151.162 43.5958 151.523 43.9556 151.968 43.956L154.659 43.9575L156.44 45.7306C156.592 45.8816 156.797 45.9658 157.011 45.9658L163.061 45.9692C163.275 45.9692 163.48 45.8846 163.631 45.7344L165.41 43.9628L168.101 43.9643C168.546 43.9643 168.907 43.6049 168.907 43.1616L168.906 41.1539C168.905 38.724 167.886 37.538 167.033 36.9709ZM154.187 42.3502L152.775 42.3495L152.775 41.1448C152.774 39.2343 153.546 38.4601 154.184 38.1463L154.187 42.3502ZM158.063 25.6748C158.832 24.7331 159.611 24.2128 160.024 23.9795C160.439 24.214 161.217 24.7356 161.987 25.6772C162.39 26.1706 162.739 26.7124 163.035 27.2982L157.016 27.2948C157.313 26.7092 157.66 26.1675 158.063 25.6748ZM164.266 37.1355L164.269 42.8256L162.726 44.3619L157.345 44.3593L155.8 42.8211L155.797 37.1311L155.795 33.1158C155.793 31.5577 155.987 30.1502 156.372 28.9001L163.683 28.9037C164.068 30.1541 164.263 31.562 164.264 33.1201L164.266 37.1355ZM167.294 42.357L165.882 42.3563L165.88 38.1597C165.982 38.2093 166.088 38.2694 166.192 38.3434C166.922 38.861 167.293 39.8056 167.294 41.1524L167.294 42.357Z" fill="#018E97"/>
<path d="M160.055 46.3672C159.61 46.3672 159.249 46.727 159.249 47.1707L159.248 53.1962C159.248 53.6395 159.609 53.9997 160.054 53.9993C160.499 53.9993 160.86 53.6391 160.86 53.1959L160.861 47.1703C160.861 46.7266 160.5 46.3676 160.055 46.3672Z" fill="#F27B20"/>
<path d="M160.017 30.2974C159.094 30.2976 158.272 30.7425 157.757 31.4288C157.404 31.8983 157.195 32.4803 157.195 33.1103C157.195 33.5537 157.556 33.9136 158.001 33.9134C158.168 33.9133 158.323 33.863 158.452 33.7758C158.666 33.6311 158.808 33.3867 158.808 33.1093C158.808 32.6942 159.02 32.3268 159.341 32.11C159.534 31.9802 159.767 31.904 160.017 31.9035C160.684 31.9034 161.226 32.4435 161.226 33.1082C161.226 33.5516 161.587 33.9114 162.032 33.9113C162.28 33.9112 162.501 33.7995 162.649 33.6241C162.767 33.4843 162.838 33.3044 162.838 33.1078C162.839 31.5584 161.574 30.2971 160.017 30.2974Z" fill="#F48222"/>
<path d="M157.204 46.3047H157.204C156.778 46.3047 156.433 46.6503 156.433 47.0765V49.6364C156.433 50.0627 156.778 50.4082 157.204 50.4082H157.204C157.63 50.4082 157.976 50.0627 157.976 49.6364V47.0765C157.976 46.6503 157.63 46.3047 157.204 46.3047Z" fill="#F27B20"/>
<path d="M162.862 46.3047H162.862C162.436 46.3047 162.09 46.6503 162.09 47.0765V49.6364C162.09 50.0627 162.436 50.4082 162.862 50.4082H162.862C163.288 50.4082 163.633 50.0627 163.633 49.6364V47.0765C163.633 46.6503 163.288 46.3047 162.862 46.3047Z" fill="#F27B20"/>
</svg>
