<svg width="311" height="54" viewBox="0 0 311 54" fill="none" xmlns="http://www.w3.org/2000/svg">
<rect y="7.44287" width="30.5646" height="3.66775" fill="#211E1F"/>
<rect x="12.2261" y="27.0049" width="18.3387" height="3.66775" fill="#211E1F"/>
<rect width="24.4516" height="3.05645" transform="matrix(0 -1 -1 0 3.05664 37.0918)" fill="#211E1F"/>
<rect x="15.2827" y="32.2007" width="18.3387" height="3.05645" transform="rotate(90 15.2827 32.2007)" fill="#211E1F"/>
<rect x="0.000488281" y="38.6191" width="30.5646" height="3.66775" fill="#211E1F"/>
<path d="M51.3992 12.96C50.9893 9.55861 48.4149 7.60265 45.0064 7.60265C41.116 7.60265 38.1461 10.3496 38.1461 15.1676C38.1461 19.9712 41.0657 22.7326 45.0064 22.7326C48.7817 22.7326 51.0612 20.2229 51.3992 17.5119L48.2495 17.4975C47.9547 19.0724 46.7178 19.9784 45.0567 19.9784C42.8203 19.9784 41.303 18.3173 41.303 15.1676C41.303 12.1042 42.7987 10.3568 45.0783 10.3568C46.7826 10.3568 48.0122 11.342 48.2495 12.96H51.3992ZM58.5651 22.747C61.9161 22.747 64.0015 20.453 64.0015 17.0517C64.0015 13.6287 61.9161 11.342 58.5651 11.342C55.2141 11.342 53.1287 13.6287 53.1287 17.0517C53.1287 20.453 55.2141 22.747 58.5651 22.747ZM58.5795 20.3739C57.0334 20.3739 56.2424 18.9573 56.2424 17.0301C56.2424 15.1029 57.0334 13.6791 58.5795 13.6791C60.0968 13.6791 60.8878 15.1029 60.8878 17.0301C60.8878 18.9573 60.0968 20.3739 58.5795 20.3739ZM65.9934 22.5312H69.0568V15.9011C69.0568 14.6786 69.8334 13.866 70.8546 13.866C71.8613 13.866 72.5373 14.5564 72.5373 15.6422V22.5312H75.5072V15.7861C75.5072 14.6427 76.1616 13.866 77.2762 13.866C78.2541 13.866 78.9876 14.4773 78.9876 15.707V22.5312H82.0438V15.1029C82.0438 12.7083 80.62 11.342 78.5634 11.342C76.9454 11.342 75.6869 12.169 75.2339 13.4346H75.1189C74.7665 12.1546 73.6375 11.342 72.1202 11.342C70.6316 11.342 69.5027 12.133 69.0424 13.4346H68.913V11.4858H65.9934V22.5312ZM84.4636 22.5312H87.527V15.9011C87.527 14.6786 88.3036 13.866 89.3248 13.866C90.3315 13.866 91.0075 14.5564 91.0075 15.6422V22.5312H93.9774V15.7861C93.9774 14.6427 94.6317 13.866 95.7464 13.866C96.7243 13.866 97.4578 14.4773 97.4578 15.707V22.5312H100.514V15.1029C100.514 12.7083 99.0902 11.342 97.0335 11.342C95.4156 11.342 94.1571 12.169 93.7041 13.4346H93.589C93.2367 12.1546 92.1077 11.342 90.5904 11.342C89.1018 11.342 87.9728 12.133 87.5126 13.4346H87.3832V11.4858H84.4636V22.5312ZM110.017 17.8283C110.024 19.3097 109.01 20.0863 107.91 20.0863C106.752 20.0863 106.004 19.2737 105.997 17.9721V11.4858H102.934V18.5186C102.941 21.1002 104.451 22.6751 106.673 22.6751C108.334 22.6751 109.528 21.8193 110.024 20.5249H110.139V22.5312H113.08V11.4858H110.017V17.8283ZM118.594 16.1456C118.601 14.7218 119.45 13.8876 120.687 13.8876C121.916 13.8876 122.657 14.693 122.65 16.0449V22.5312H125.713V15.4984C125.713 12.924 124.203 11.342 121.902 11.342C120.262 11.342 119.076 12.1474 118.58 13.4346H118.45V11.4858H115.531V22.5312H118.594V16.1456ZM128.128 22.5312H131.191V11.4858H128.128V22.5312ZM129.666 10.062C130.58 10.062 131.328 9.36446 131.328 8.50872C131.328 7.66018 130.58 6.96265 129.666 6.96265C128.76 6.96265 128.013 7.66018 128.013 8.50872C128.013 9.36446 128.76 10.062 129.666 10.062ZM139.52 11.4858H137.442V8.83951H134.378V11.4858H132.868V13.7869H134.378V19.5398C134.364 21.7043 135.838 22.7757 138.06 22.6823C138.851 22.6535 139.412 22.4953 139.721 22.3946L139.24 20.1151C139.089 20.1438 138.765 20.2157 138.477 20.2157C137.866 20.2157 137.442 19.9856 137.442 19.1371V13.7869H139.52V11.4858ZM143.407 26.6733C145.686 26.6733 146.894 25.5083 147.52 23.725L151.813 11.5002L148.57 11.4858L146.262 19.5973H146.147L143.86 11.4858H140.638L144.6 22.8477L144.421 23.3151C144.018 24.3506 143.249 24.4009 142.17 24.0701L141.48 26.3569C141.918 26.5439 142.63 26.6733 143.407 26.6733ZM38.405 47.5312H41.5187V41.4476H47.5089V38.8804H41.5187V35.3712H48.1561V32.804H38.405V47.5312ZM56.584 42.8283C56.5911 44.3097 55.5772 45.0863 54.477 45.0863C53.3192 45.0863 52.5714 44.2737 52.5642 42.9721V36.4858H49.5008V43.5186C49.508 46.1002 51.0181 47.6751 53.2401 47.6751C54.9012 47.6751 56.095 46.8193 56.5911 45.5249H56.7062V47.5312H59.6473V36.4858H56.584V42.8283ZM65.1611 41.1456C65.1683 39.7218 66.0168 38.8876 67.2537 38.8876C68.4833 38.8876 69.224 39.693 69.2168 41.0449V47.5312H72.2802V40.4984C72.2802 37.924 70.7701 36.342 68.4689 36.342C66.8294 36.342 65.6429 37.1474 65.1467 38.4346H65.0172V36.4858H62.0977V47.5312H65.1611V41.1456ZM78.7647 47.711C80.5481 47.711 81.4757 46.6827 81.9 45.7623H82.0294V47.5312H85.0497V32.804H81.9935V38.3411H81.9C81.4901 37.4422 80.6056 36.342 78.7575 36.342C76.3341 36.342 74.2847 38.226 74.2847 42.0229C74.2847 45.7191 76.2479 47.711 78.7647 47.711ZM79.7355 45.2733C78.2326 45.2733 77.4128 43.9357 77.4128 42.0085C77.4128 40.0957 78.2182 38.7798 79.7355 38.7798C81.2241 38.7798 82.0582 40.0382 82.0582 42.0085C82.0582 43.9789 81.2097 45.2733 79.7355 45.2733Z" fill="#211E1F"/>
<rect x="169.216" width="3.78947" height="53.9999" fill="#211E1F"/>
<path d="M191.261 10H192.648V7.41354H194.113C195.881 7.41354 196.83 6.35205 196.83 4.87941C196.83 3.41799 195.892 2.34528 194.132 2.34528H191.261V10ZM192.648 6.27356V3.50395H193.919C194.958 3.50395 195.418 4.0646 195.418 4.87941C195.418 5.69422 194.958 6.27356 193.926 6.27356H192.648ZM200.397 10.1121C202.079 10.1121 203.148 8.92729 203.148 7.15191C203.148 5.37278 202.079 4.18421 200.397 4.18421C198.715 4.18421 197.646 5.37278 197.646 7.15191C197.646 8.92729 198.715 10.1121 200.397 10.1121ZM200.405 9.02821C199.474 9.02821 199.018 8.19845 199.018 7.14817C199.018 6.09789 199.474 5.25691 200.405 5.25691C201.32 5.25691 201.776 6.09789 201.776 7.14817C201.776 8.19845 201.32 9.02821 200.405 9.02821ZM205.327 10H206.74L207.816 6.12031H207.895L208.971 10H210.38L212.006 4.25896H210.623L209.629 8.2732H209.573L208.541 4.25896H207.177L206.146 8.29563H206.093L205.084 4.25896H203.705L205.327 10ZM215.338 10.1121C216.676 10.1121 217.596 9.45804 217.835 8.46009L216.572 8.31805C216.389 8.80395 215.94 9.05811 215.357 9.05811C214.482 9.05811 213.903 8.48251 213.892 7.49951H217.891V7.08463C217.891 5.07003 216.68 4.18421 215.267 4.18421C213.623 4.18421 212.55 5.39147 212.55 7.16312C212.55 8.96467 213.608 10.1121 215.338 10.1121ZM213.896 6.58752C213.937 5.85494 214.479 5.23823 215.286 5.23823C216.064 5.23823 216.587 5.80635 216.594 6.58752H213.896ZM219.036 10H220.389V6.6249C220.389 5.89605 220.938 5.38026 221.682 5.38026C221.91 5.38026 222.194 5.42137 222.31 5.45875V4.21411C222.187 4.19168 221.974 4.17673 221.824 4.17673C221.166 4.17673 220.617 4.5505 220.408 5.2158H220.348V4.25896H219.036V10ZM225.514 10.1121C226.852 10.1121 227.772 9.45804 228.011 8.46009L226.748 8.31805C226.564 8.80395 226.116 9.05811 225.533 9.05811C224.658 9.05811 224.079 8.48251 224.068 7.49951H228.067V7.08463C228.067 5.07003 226.856 4.18421 225.443 4.18421C223.799 4.18421 222.726 5.39147 222.726 7.16312C222.726 8.96467 223.784 10.1121 225.514 10.1121ZM224.071 6.58752C224.113 5.85494 224.655 5.23823 225.462 5.23823C226.239 5.23823 226.763 5.80635 226.77 6.58752H224.071ZM231.342 10.1009C232.329 10.1009 232.774 9.5141 232.987 9.09549H233.069V10H234.4V2.34528H233.043V5.20832H232.987C232.781 4.79344 232.359 4.18421 231.346 4.18421C230.019 4.18421 228.976 5.22327 228.976 7.13695C228.976 9.02821 229.989 10.1009 231.342 10.1009ZM231.72 8.99083C230.826 8.99083 230.355 8.20592 230.355 7.12948C230.355 6.06051 230.819 5.29429 231.72 5.29429C232.59 5.29429 233.069 6.01566 233.069 7.12948C233.069 8.2433 232.583 8.99083 231.72 8.99083ZM238.512 10H239.842V9.09549H239.921C240.134 9.5141 240.579 10.1009 241.566 10.1009C242.919 10.1009 243.931 9.02821 243.931 7.13695C243.931 5.22327 242.889 4.18421 241.562 4.18421C240.549 4.18421 240.127 4.79344 239.921 5.20832H239.865V2.34528H238.512V10ZM239.839 7.12948C239.839 6.01566 240.317 5.29429 241.188 5.29429C242.089 5.29429 242.552 6.06051 242.552 7.12948C242.552 8.20592 242.081 8.99083 241.188 8.99083C240.325 8.99083 239.839 8.2433 239.839 7.12948ZM245.727 12.1529C246.781 12.1529 247.391 11.6109 247.716 10.6952L250.022 4.26643L248.576 4.25896L247.249 8.59464H247.189L245.866 4.25896H244.43L246.512 10.1196L246.396 10.4298C246.146 11.0839 245.75 11.1288 245.159 10.9568L244.845 12.0109C245.028 12.0856 245.357 12.1529 245.727 12.1529Z" fill="#211E1F"/>
<path d="M217.718 33.4003C218.573 33.4003 219.067 32.8914 219.067 31.9918V24.7797H220.939C221.654 24.7797 222.141 24.3815 222.141 23.6882C222.141 22.9951 221.669 22.5968 220.939 22.5968H214.504C213.767 22.5968 213.295 22.9951 213.295 23.6882C213.295 24.3815 213.781 24.7797 214.504 24.7797H216.369V31.9918C216.369 32.8914 216.863 33.4003 217.718 33.4003ZM224.323 33.4076C225.082 33.4076 225.627 32.9652 225.627 32.0508V28.7102C225.627 27.8105 226.121 27.1837 226.999 27.1837C227.861 27.1837 228.31 27.7441 228.31 28.6512V32.0508C228.31 32.9652 228.849 33.4076 229.616 33.4076C230.382 33.4076 230.92 32.9652 230.92 32.0508V28.0834C230.92 26.1882 229.925 25.0525 228.134 25.0525C226.91 25.0525 226.033 25.6425 225.62 26.7191H225.569V23.762C225.569 22.9139 225.104 22.4272 224.293 22.4272C223.483 22.4272 223.011 22.9139 223.011 23.7546V32.0508C223.011 32.9652 223.556 33.4076 224.323 33.4076ZM236.006 33.4298C237.606 33.4298 238.903 32.862 239.434 31.918C239.552 31.7263 239.611 31.5272 239.611 31.3281C239.611 30.7529 239.161 30.4137 238.631 30.4137C238.306 30.4137 238.092 30.5022 237.82 30.7603C237.238 31.3502 236.744 31.5788 236.029 31.5788C235.085 31.5788 234.444 30.9151 234.444 29.9417V29.7942H238.808C239.486 29.7942 239.862 29.4255 239.862 28.7618C239.862 26.5937 238.292 25.0157 235.903 25.0157C233.456 25.0157 231.908 26.6601 231.908 29.2633C231.908 31.8738 233.434 33.4298 236.006 33.4298ZM234.481 28.3046C234.547 27.4639 235.144 26.874 235.955 26.874C236.773 26.874 237.355 27.4344 237.4 28.3046H234.481ZM215.256 51.5236C216.111 51.5236 216.605 51.0147 216.605 50.1149V48.2418H218.344C220.711 48.2418 222.34 46.7595 222.34 44.4884C222.34 42.2022 220.792 40.7201 218.507 40.7201H215.256C214.401 40.7201 213.9 41.2363 213.9 42.1358V50.1149C213.9 51.0147 214.401 51.5236 215.256 51.5236ZM216.605 46.2067V42.7924H217.791C218.927 42.7924 219.605 43.3897 219.605 44.4956C219.605 45.6094 218.927 46.2067 217.777 46.2067H216.605ZM224.677 51.5308C225.473 51.5308 225.981 51.0588 225.981 50.1738V47.04C225.981 46.1255 226.239 45.7272 227.139 45.7053C227.625 45.683 227.994 45.5724 228.237 45.3511C228.48 45.1374 228.606 44.8275 228.606 44.4148C228.606 43.9428 228.473 43.6109 228.215 43.4191C228.045 43.2791 227.809 43.2126 227.515 43.2126C226.711 43.2126 226.121 43.7876 225.922 44.8716H225.871V44.4737C225.871 43.6257 225.37 43.1609 224.64 43.1609C223.88 43.1609 223.364 43.6257 223.364 44.4661V50.1738C223.364 51.0588 223.873 51.5308 224.677 51.5308ZM232.962 51.5531C235.49 51.5531 237.068 50.0266 237.068 47.3421C237.068 44.7097 235.468 43.139 232.962 43.139C230.47 43.139 228.856 44.7168 228.856 47.3421C228.856 50.019 230.434 51.5531 232.962 51.5531ZM232.962 49.6358C232.063 49.6358 231.51 48.8172 231.51 47.3496C231.51 45.9043 232.078 45.0563 232.962 45.0563C233.854 45.0563 234.422 45.9043 234.422 47.3496C234.422 48.8172 233.854 49.6358 232.962 49.6358ZM241.034 51.4791C242.25 51.4791 243.157 50.8304 243.466 49.9601H243.518V50.1889C243.518 51.0958 244.064 51.5308 244.823 51.5308C245.589 51.5308 246.128 51.0958 246.128 50.1889V41.9074C246.128 40.9929 245.589 40.5505 244.823 40.5505C244.056 40.5505 243.518 40.9929 243.518 41.9074V44.7463H243.466C243.112 43.8469 242.228 43.2126 241.063 43.2126C239.058 43.2126 237.835 44.7614 237.835 47.3273C237.835 49.9231 239.036 51.4791 241.034 51.4791ZM242.014 49.4364C241.071 49.4364 240.511 48.6473 240.511 47.3496C240.511 46.0591 241.078 45.2552 242.014 45.2552C242.951 45.2552 243.525 46.0591 243.525 47.3496C243.525 48.6549 242.958 49.4364 242.014 49.4364ZM250.314 51.5161C251.523 51.5161 252.29 50.8969 252.651 49.8423H252.703V50.2108C252.703 51.103 253.219 51.5308 253.971 51.5308C254.723 51.5308 255.239 51.103 255.239 50.2036V44.5179C255.239 43.6034 254.7 43.1609 253.934 43.1609C253.167 43.1609 252.629 43.6034 252.629 44.5179V47.8733C252.629 48.7802 252.113 49.3851 251.302 49.3851C250.484 49.3851 249.99 48.8761 249.99 47.9246V44.5179C249.99 43.6034 249.445 43.1609 248.685 43.1609C247.919 43.1609 247.373 43.6034 247.373 44.5179V48.4925C247.373 50.3879 248.59 51.5161 250.314 51.5161ZM260.34 51.5531C261.917 51.5531 263.332 50.8081 263.863 49.7241C263.996 49.4659 264.047 49.245 264.047 49.0456C264.047 48.3966 263.539 48.0205 262.956 48.0205C262.404 48.0205 262.116 48.2494 261.777 48.7432C261.475 49.2152 261.069 49.5693 260.406 49.5693C259.447 49.5693 258.91 48.7802 258.91 47.3421C258.91 45.919 259.463 45.1299 260.421 45.1299C261.01 45.1299 261.43 45.4176 261.806 46.0738C262.057 46.494 262.374 46.6934 262.876 46.6934C263.473 46.6934 263.996 46.3321 263.996 45.7053C263.996 45.5059 263.937 45.2628 263.834 45.0415C263.34 43.8835 261.983 43.139 260.325 43.139C257.826 43.139 256.263 44.7463 256.263 47.3421C256.263 49.9677 257.826 51.5531 260.34 51.5531ZM265.743 49.208C265.743 50.6975 266.532 51.4643 268.08 51.4643H268.146C269.156 51.4643 269.982 51.0811 269.982 50.3214C269.982 49.717 269.642 49.4587 269.06 49.3922L268.898 49.3703C268.529 49.3333 268.36 49.1344 268.36 48.6326V45.2628H268.994C269.576 45.2628 269.959 44.8792 269.959 44.2966C269.959 43.714 269.576 43.3304 268.994 43.3304H268.36V42.6889C268.36 41.8409 267.881 41.3321 267.055 41.3321C266.222 41.3321 265.743 41.8409 265.743 42.6889V43.3304H265.455C264.873 43.3304 264.49 43.7068 264.49 44.2966C264.49 44.8792 264.873 45.2628 265.455 45.2628H265.743V49.208ZM275.348 51.5236C276.203 51.5236 276.697 51.0147 276.697 50.1149V47.3938H279.822C280.523 47.3938 280.95 47.0106 280.95 46.3615C280.95 45.7053 280.508 45.3217 279.822 45.3217H276.697V42.903H280.169C280.884 42.903 281.37 42.5047 281.37 41.8115C281.37 41.1183 280.898 40.7201 280.169 40.7201H275.348C274.493 40.7201 273.992 41.2363 273.992 42.1358V50.1149C273.992 51.0147 274.493 51.5236 275.348 51.5236ZM285.918 51.5531C288.447 51.5531 290.024 50.0266 290.024 47.3421C290.024 44.7097 288.425 43.139 285.918 43.139C283.427 43.139 281.813 44.7168 281.813 47.3421C281.813 50.019 283.39 51.5531 285.918 51.5531ZM285.918 49.6358C285.019 49.6358 284.467 48.8172 284.467 47.3496C284.467 45.9043 285.034 45.0563 285.918 45.0563C286.81 45.0563 287.378 45.9043 287.378 47.3496C287.378 48.8172 286.81 49.6358 285.918 49.6358ZM292.391 51.5308C293.15 51.5308 293.696 51.0883 293.696 50.1738V41.9074C293.696 40.9929 293.15 40.5505 292.391 40.5505C291.624 40.5505 291.079 40.9929 291.079 41.9074V50.1738C291.079 51.0883 291.624 51.5308 292.391 51.5308ZM296.356 51.5308C297.116 51.5308 297.661 51.0883 297.661 50.1738V48.9645L298.325 48.3524L299.902 50.631C300.337 51.3171 300.662 51.5308 301.259 51.5308C302.003 51.5308 302.519 51.0517 302.519 50.329C302.519 49.9896 302.43 49.7611 302.136 49.3556L300.293 46.9147L301.988 45.3217C302.379 44.9604 302.504 44.7097 302.504 44.3042C302.504 43.6476 302.003 43.1609 301.325 43.1609C300.919 43.1609 300.625 43.3232 300.256 43.6993L297.706 46.3245H297.661V41.9074C297.661 40.9929 297.116 40.5505 296.356 40.5505C295.59 40.5505 295.044 40.9929 295.044 41.9074V50.1738C295.044 51.0883 295.59 51.5308 296.356 51.5308ZM306.979 51.5531C309.212 51.5531 310.709 50.491 310.709 48.8097C310.709 47.6079 309.964 46.9513 308.239 46.6122L306.846 46.3392C306.079 46.1844 305.836 45.9632 305.836 45.6166C305.836 45.1816 306.264 44.9015 306.898 44.9015C307.664 44.9015 308.062 45.3141 308.46 45.7125C308.682 45.919 309.058 46.0368 309.352 46.0368C310.031 46.0368 310.348 45.6683 310.348 45.1669C310.348 45.0415 310.325 44.9162 310.281 44.7908C309.994 43.9058 308.755 43.139 306.92 43.139C304.701 43.139 303.322 44.149 303.322 45.7642C303.322 46.9807 304.141 47.814 305.726 48.124L307.126 48.4042C307.856 48.5518 308.114 48.7432 308.114 49.0974C308.114 49.5323 307.679 49.7906 307.001 49.7906C306.271 49.7906 305.77 49.5693 305.328 49.0826C304.952 48.7138 304.605 48.5442 304.192 48.5442C303.603 48.5442 303.175 48.9497 303.175 49.5252C303.175 49.6577 303.212 49.8125 303.271 49.9677C303.647 50.8893 304.929 51.5531 306.979 51.5531Z" fill="#018E98"/>
<path d="M205.716 36.9704C205.307 36.6992 204.9 36.5428 204.562 36.4533L204.561 33.1209C204.56 31.0086 204.217 29.2932 203.725 27.916C203.711 27.8572 203.691 27.8012 203.664 27.7484C203.141 26.3486 202.465 25.3116 201.848 24.5749C200.472 22.9313 199.065 22.358 199.006 22.334C198.813 22.2571 198.599 22.2572 198.406 22.3338C198.347 22.3575 196.941 22.9293 195.567 24.5717C194.95 25.3087 194.274 26.3467 193.753 27.7479C193.729 27.7981 193.709 27.851 193.696 27.9068C193.204 29.2841 192.863 31.0007 192.864 33.1151L192.866 36.4475C192.529 36.5369 192.122 36.6925 191.713 36.9635C190.859 37.5296 189.842 38.7145 189.844 41.1442L189.845 43.152C189.845 43.5953 190.206 43.9551 190.652 43.9555L193.342 43.957L195.124 45.7301C195.275 45.8811 195.48 45.9653 195.694 45.9653L201.744 45.9687C201.958 45.9687 202.163 45.8841 202.314 45.7338L204.093 43.9623L206.784 43.9638C207.229 43.9638 207.59 43.6044 207.59 43.1611L207.589 41.1534C207.588 38.7234 206.569 37.5375 205.716 36.9704ZM192.87 42.3497L191.458 42.349L191.458 41.1442C191.457 39.2338 192.229 38.4596 192.868 38.1458L192.87 42.3497ZM196.746 25.6743C197.515 24.7326 198.294 24.2123 198.707 23.979C199.122 24.2135 199.9 24.7351 200.67 25.6767C201.073 26.1701 201.422 26.7119 201.718 27.2977L195.699 27.2943C195.996 26.7087 196.343 26.167 196.746 25.6743ZM202.949 37.135L202.953 42.8251L201.409 44.3614L196.028 44.3587L194.483 42.8205L194.48 37.1306L194.478 33.1153C194.477 31.5571 194.671 30.1497 195.055 28.8996L202.366 28.9032C202.752 30.1536 202.946 31.5615 202.947 33.1196L202.949 37.135ZM205.977 42.3565L204.566 42.3557L204.563 38.1592C204.665 38.2088 204.771 38.2689 204.875 38.3429C205.605 38.8605 205.976 39.8051 205.977 41.1519L205.977 42.3565Z" fill="#018E97"/>
<path d="M198.739 46.3677C198.294 46.3677 197.933 46.7275 197.933 47.1711L197.931 53.1967C197.931 53.64 198.292 54.0002 198.737 53.9998C199.182 53.9998 199.543 53.6396 199.543 53.1964L199.545 47.1708C199.545 46.7271 199.184 46.3681 198.739 46.3677Z" fill="#F27B20"/>
<path d="M198.701 30.2979C197.777 30.2981 196.955 30.743 196.44 31.4293C196.088 31.8988 195.879 32.4808 195.878 33.1108C195.878 33.5542 196.239 33.914 196.684 33.9139C196.852 33.9138 197.006 33.8635 197.135 33.7763C197.35 33.6316 197.491 33.3871 197.491 33.1097C197.491 32.6947 197.703 32.3273 198.025 32.1104C198.218 31.9807 198.451 31.9045 198.7 31.9039C199.367 31.9039 199.91 32.444 199.909 33.1086C199.909 33.5521 200.27 33.9119 200.715 33.9118C200.964 33.9117 201.185 33.7999 201.333 33.6246C201.451 33.4847 201.522 33.3049 201.522 33.1083C201.523 31.5589 200.257 30.2976 198.701 30.2979Z" fill="#F48222"/>
<path d="M195.887 46.3042H195.887C195.461 46.3042 195.116 46.6498 195.116 47.076V49.6359C195.116 50.0622 195.461 50.4077 195.887 50.4077H195.887C196.313 50.4077 196.659 50.0622 196.659 49.6359V47.076C196.659 46.6498 196.313 46.3042 195.887 46.3042Z" fill="#F27B20"/>
<path d="M201.545 46.3042H201.545C201.119 46.3042 200.774 46.6498 200.774 47.076V49.6359C200.774 50.0622 201.119 50.4077 201.545 50.4077H201.545C201.972 50.4077 202.317 50.0622 202.317 49.6359V47.076C202.317 46.6498 201.972 46.3042 201.545 46.3042Z" fill="#F27B20"/>
</svg>
