<svg width="32" height="32" viewBox="0 0 32 32" fill="none" xmlns="http://www.w3.org/2000/svg">
<path fill-rule="evenodd" clip-rule="evenodd" d="M24.6766 8.65722L24.627 8.62414C23.6018 7.64849 22.3946 7.18547 21.0055 7.25161L20.9559 7.15239L20.989 7.13586C22.2458 6.85474 22.9899 6.55708 23.2214 6.22635C23.2876 5.96176 23.2049 5.81293 22.9238 5.77986C22.2954 5.86254 21.7001 5.99484 21.1874 6.20981C21.8489 5.77986 22.0969 5.4822 21.9481 5.33337C21.3032 5.34991 20.5921 5.68064 19.8645 6.3421C20.1291 5.87908 20.2448 5.6145 20.1787 5.58142C19.8149 5.81293 19.5172 6.07752 19.2527 6.35864C18.6904 6.98703 18.2439 7.56581 17.8967 8.09498L17.8801 8.12805C17.0037 9.56673 16.3753 11.0054 16.0115 12.4772L15.8792 12.5929L15.8461 12.6095C15.317 11.948 14.672 11.3857 13.9113 10.9393C13.0184 10.3439 11.96 9.79824 10.7363 9.25253C9.41341 8.558 8.05742 7.99576 6.70142 7.54927C6.68488 9.08717 7.44556 10.2943 8.91731 11.1873V11.2038C8.40468 11.2038 7.89205 11.2865 7.39595 11.4354C7.49517 12.8575 8.5039 13.8332 10.4056 14.3623L10.3891 14.3954C9.64492 14.3458 9.03307 14.6104 8.55351 15.1561C9.1819 16.3798 10.2898 16.9586 11.8939 16.9255C11.5797 17.0909 11.3316 17.2562 11.1663 17.4547C10.8686 17.7688 10.7694 18.1327 10.8686 18.5461C11.2159 19.1745 11.8277 19.4556 12.7373 19.406L12.7869 19.4721L12.7703 19.5052C11.1994 21.1258 9.29766 21.8534 7.08176 21.7045L7.04869 21.7211C5.69269 21.7045 4.23747 21.0596 2.6665 19.7698C4.23747 22.0353 6.33762 23.6724 8.93385 24.7142C11.8939 25.6899 14.8705 25.7725 17.8305 24.9292H17.8801C20.7575 24.1023 23.1883 22.3825 25.2058 19.8028C26.1318 18.4634 26.7106 17.1735 26.9421 15.9333C28.447 15.9829 29.5218 15.553 30.1998 14.6269L30.1833 14.5938C29.6707 14.7757 28.695 14.7261 27.2563 14.4285V14.2631C28.8438 14.0812 29.7864 13.5686 30.0841 12.7252C28.9761 13.1552 27.8847 13.1717 26.8098 12.7583C26.6114 11.27 25.9003 9.89746 24.6766 8.65722" fill="#211E1F"/>
<mask id="mask0" mask-type="alpha" maskUnits="userSpaceOnUse" x="2" y="5" width="29" height="21">
<path fill-rule="evenodd" clip-rule="evenodd" d="M24.6766 8.65722L24.627 8.62414C23.6018 7.64849 22.3946 7.18547 21.0055 7.25161L20.9559 7.15239L20.989 7.13586C22.2458 6.85474 22.9899 6.55708 23.2214 6.22635C23.2876 5.96176 23.2049 5.81293 22.9238 5.77986C22.2954 5.86254 21.7001 5.99484 21.1874 6.20981C21.8489 5.77986 22.0969 5.4822 21.9481 5.33337C21.3032 5.34991 20.5921 5.68064 19.8645 6.3421C20.1291 5.87908 20.2448 5.6145 20.1787 5.58142C19.8149 5.81293 19.5172 6.07752 19.2527 6.35864C18.6904 6.98703 18.2439 7.56581 17.8967 8.09498L17.8801 8.12805C17.0037 9.56673 16.3753 11.0054 16.0115 12.4772L15.8792 12.5929L15.8461 12.6095C15.317 11.948 14.672 11.3857 13.9113 10.9393C13.0184 10.3439 11.96 9.79824 10.7363 9.25253C9.41341 8.558 8.05742 7.99576 6.70142 7.54927C6.68488 9.08717 7.44556 10.2943 8.91731 11.1873V11.2038C8.40468 11.2038 7.89205 11.2865 7.39595 11.4354C7.49517 12.8575 8.5039 13.8332 10.4056 14.3623L10.3891 14.3954C9.64492 14.3458 9.03307 14.6104 8.55351 15.1561C9.1819 16.3798 10.2898 16.9586 11.8939 16.9255C11.5797 17.0909 11.3316 17.2562 11.1663 17.4547C10.8686 17.7688 10.7694 18.1327 10.8686 18.5461C11.2159 19.1745 11.8277 19.4556 12.7373 19.406L12.7869 19.4721L12.7703 19.5052C11.1994 21.1258 9.29766 21.8534 7.08176 21.7045L7.04869 21.7211C5.69269 21.7045 4.23747 21.0596 2.6665 19.7698C4.23747 22.0353 6.33762 23.6724 8.93385 24.7142C11.8939 25.6899 14.8705 25.7725 17.8305 24.9292H17.8801C20.7575 24.1023 23.1883 22.3825 25.2058 19.8028C26.1318 18.4634 26.7106 17.1735 26.9421 15.9333C28.447 15.9829 29.5218 15.553 30.1998 14.6269L30.1833 14.5938C29.6707 14.7757 28.695 14.7261 27.2563 14.4285V14.2631C28.8438 14.0812 29.7864 13.5686 30.0841 12.7252C28.9761 13.1552 27.8847 13.1717 26.8098 12.7583C26.6114 11.27 25.9003 9.89746 24.6766 8.65722" fill="white"/>
</mask>
<g mask="url(#mask0)">
<rect width="32" height="32" fill="#211E1F"/>
</g>
</svg>
