<svg width="122" height="54" viewBox="0 0 122 54" fill="none" xmlns="http://www.w3.org/2000/svg">
<path d="M2.26135 10H3.64802V7.41354H5.11319C6.8811 7.41354 7.83046 6.35205 7.83046 4.87941C7.83046 3.41799 6.89231 2.34528 5.13187 2.34528H2.26135V10ZM3.64802 6.27356V3.50395H4.91883C5.9579 3.50395 6.41763 4.0646 6.41763 4.87941C6.41763 5.69422 5.9579 6.27356 4.9263 6.27356H3.64802ZM11.3971 10.1121C13.0791 10.1121 14.148 8.92729 14.148 7.15191C14.148 5.37278 13.0791 4.18421 11.3971 4.18421C9.71518 4.18421 8.64621 5.37278 8.64621 7.15191C8.64621 8.92729 9.71518 10.1121 11.3971 10.1121ZM11.4046 9.02821C10.4739 9.02821 10.0179 8.19845 10.0179 7.14817C10.0179 6.09789 10.4739 5.25691 11.4046 5.25691C12.3203 5.25691 12.7763 6.09789 12.7763 7.14817C12.7763 8.19845 12.3203 9.02821 11.4046 9.02821ZM16.3271 10H17.7399L18.8164 6.12031H18.8949L19.9713 10H21.3804L23.0063 4.25896H21.6233L20.6291 8.2732H20.5731L19.5415 4.25896H18.1772L17.1456 8.29563H17.0933L16.0841 4.25896H14.7049L16.3271 10ZM26.3384 10.1121C27.6765 10.1121 28.5959 9.45804 28.8352 8.46009L27.5718 8.31805C27.3887 8.80395 26.9402 9.05811 26.3571 9.05811C25.4825 9.05811 24.9031 8.48251 24.8919 7.49951H28.8912V7.08463C28.8912 5.07003 27.6802 4.18421 26.2674 4.18421C24.6228 4.18421 23.5501 5.39147 23.5501 7.16312C23.5501 8.96467 24.6079 10.1121 26.3384 10.1121ZM24.8957 6.58752C24.9368 5.85494 25.4787 5.23823 26.2861 5.23823C27.0635 5.23823 27.5868 5.80635 27.5943 6.58752H24.8957ZM30.0359 10H31.3889V6.6249C31.3889 5.89605 31.9383 5.38026 32.6821 5.38026C32.9101 5.38026 33.1942 5.42137 33.3101 5.45875V4.21411C33.1867 4.19168 32.9737 4.17673 32.8242 4.17673C32.1663 4.17673 31.6169 4.5505 31.4076 5.2158H31.3478V4.25896H30.0359V10ZM36.5142 10.1121C37.8523 10.1121 38.7717 9.45804 39.0109 8.46009L37.7476 8.31805C37.5645 8.80395 37.1159 9.05811 36.5329 9.05811C35.6583 9.05811 35.0789 8.48251 35.0677 7.49951H39.067V7.08463C39.067 5.07003 37.856 4.18421 36.4432 4.18421C34.7986 4.18421 33.7259 5.39147 33.7259 7.16312C33.7259 8.96467 34.7836 10.1121 36.5142 10.1121ZM35.0714 6.58752C35.1126 5.85494 35.6545 5.23823 36.4618 5.23823C37.2393 5.23823 37.7626 5.80635 37.77 6.58752H35.0714ZM42.3421 10.1009C43.3289 10.1009 43.7736 9.5141 43.9867 9.09549H44.0689V10H45.3995V2.34528H44.0427V5.20832H43.9867C43.7811 4.79344 43.3588 4.18421 42.3459 4.18421C41.019 4.18421 39.9762 5.22327 39.9762 7.13695C39.9762 9.02821 40.9891 10.1009 42.3421 10.1009ZM42.7196 8.99083C41.8263 8.99083 41.3554 8.20592 41.3554 7.12948C41.3554 6.06051 41.8188 5.29429 42.7196 5.29429C43.5905 5.29429 44.0689 6.01566 44.0689 7.12948C44.0689 8.2433 43.583 8.99083 42.7196 8.99083ZM49.5119 10H50.8425V9.09549H50.921C51.134 9.5141 51.5788 10.1009 52.5655 10.1009C53.9186 10.1009 54.9315 9.02821 54.9315 7.13695C54.9315 5.22327 53.8887 4.18421 52.5618 4.18421C51.5489 4.18421 51.1265 4.79344 50.921 5.20832H50.8649V2.34528H49.5119V10ZM50.8387 7.12948C50.8387 6.01566 51.3172 5.29429 52.188 5.29429C53.0888 5.29429 53.5523 6.06051 53.5523 7.12948C53.5523 8.20592 53.0813 8.99083 52.188 8.99083C51.3246 8.99083 50.8387 8.2433 50.8387 7.12948ZM56.7274 12.1529C57.7814 12.1529 58.3907 11.6109 58.7159 10.6952L61.022 4.26643L59.5755 4.25896L58.2486 8.59464H58.1888L56.8657 4.25896H55.4305L57.5123 10.1196L57.3965 10.4298C57.146 11.0839 56.7498 11.1288 56.1593 10.9568L55.8453 12.0109C56.0285 12.0856 56.3574 12.1529 56.7274 12.1529Z" fill="#211E1F"/>
<path d="M28.7179 33.4003C29.5731 33.4003 30.0668 32.8914 30.0668 31.9918V24.7797H31.9391C32.6544 24.7797 33.1408 24.3815 33.1408 23.6882C33.1408 22.9951 32.6691 22.5968 31.9391 22.5968H25.5038C24.7667 22.5968 24.2949 22.9951 24.2949 23.6882C24.2949 24.3815 24.7814 24.7797 25.5038 24.7797H27.369V31.9918C27.369 32.8914 27.8627 33.4003 28.7179 33.4003ZM35.3227 33.4076C36.0821 33.4076 36.6274 32.9652 36.6274 32.0508V28.7102C36.6274 27.8105 37.1215 27.1837 37.9986 27.1837C38.861 27.1837 39.3105 27.7441 39.3105 28.6512V32.0508C39.3105 32.9652 39.8487 33.4076 40.6156 33.4076C41.3821 33.4076 41.9203 32.9652 41.9203 32.0508V28.0834C41.9203 26.1882 40.9251 25.0525 39.1339 25.0525C37.9103 25.0525 37.0328 25.6425 36.6203 26.7191H36.5686V23.762C36.5686 22.9139 36.104 22.4272 35.2933 22.4272C34.4826 22.4272 34.0108 22.9139 34.0108 23.7546V32.0508C34.0108 32.9652 34.5562 33.4076 35.3227 33.4076ZM47.0064 33.4298C48.6059 33.4298 49.9035 32.862 50.4341 31.918C50.5523 31.7263 50.6111 31.5272 50.6111 31.3281C50.6111 30.7529 50.1613 30.4137 49.6306 30.4137C49.3064 30.4137 49.0924 30.5022 48.8199 30.7603C48.2376 31.3502 47.7435 31.5788 47.0287 31.5788C46.0851 31.5788 45.4435 30.9151 45.4435 29.9417V29.7942H49.8076C50.4858 29.7942 50.8618 29.4255 50.8618 28.7618C50.8618 26.5937 49.2917 25.0157 46.9034 25.0157C44.4558 25.0157 42.908 26.6601 42.908 29.2633C42.908 31.8738 44.4339 33.4298 47.0064 33.4298ZM45.4805 28.3046C45.547 27.4639 46.144 26.874 46.9547 26.874C47.773 26.874 48.3553 27.4344 48.3999 28.3046H45.4805ZM26.256 51.5236C27.1108 51.5236 27.6049 51.0147 27.6049 50.1149V48.2418H29.3444C31.7108 48.2418 33.3397 46.7595 33.3397 44.4884C33.3397 42.2022 31.792 40.7201 29.5067 40.7201H26.256C25.4008 40.7201 24.8995 41.2363 24.8995 42.1358V50.1149C24.8995 51.0147 25.4008 51.5236 26.256 51.5236ZM27.6049 46.2067V42.7924H28.7915C29.9268 42.7924 30.605 43.3897 30.605 44.4956C30.605 45.6094 29.9268 46.2067 28.7768 46.2067H27.6049ZM35.6767 51.5308C36.4727 51.5308 36.9815 51.0588 36.9815 50.1738V47.04C36.9815 46.1255 37.2392 45.7272 38.1386 45.7053C38.6251 45.683 38.9938 45.5724 39.2369 45.3511C39.4803 45.1374 39.6056 44.8275 39.6056 44.4148C39.6056 43.9428 39.4728 43.6109 39.215 43.4191C39.0452 43.2791 38.8093 43.2126 38.5145 43.2126C37.711 43.2126 37.1215 43.7876 36.9222 44.8716H36.8709V44.4737C36.8709 43.6257 36.3697 43.1609 35.6397 43.1609C34.8804 43.1609 34.3644 43.6257 34.3644 44.4661V50.1738C34.3644 51.0588 34.8732 51.5308 35.6767 51.5308ZM43.9622 51.5531C46.4905 51.5531 48.0681 50.0266 48.0681 47.3421C48.0681 44.7097 46.4682 43.139 43.9622 43.139C41.4705 43.139 39.8562 44.7168 39.8562 47.3421C39.8562 50.019 41.4338 51.5531 43.9622 51.5531ZM43.9622 49.6358C43.0628 49.6358 42.5099 48.8172 42.5099 47.3496C42.5099 45.9043 43.0775 45.0563 43.9622 45.0563C44.854 45.0563 45.4217 45.9043 45.4217 47.3496C45.4217 48.8172 44.854 49.6358 43.9622 49.6358ZM52.0336 51.4791C53.2501 51.4791 54.1566 50.8304 54.4665 49.9601H54.5178V50.1889C54.5178 51.0958 55.0635 51.5308 55.8225 51.5308C56.5894 51.5308 57.1277 51.0958 57.1277 50.1889V41.9074C57.1277 40.9929 56.5894 40.5505 55.8225 40.5505C55.056 40.5505 54.5178 40.9929 54.5178 41.9074V44.7463H54.4665C54.1125 43.8469 53.2282 43.2126 52.0635 43.2126C50.0582 43.2126 48.8346 44.7614 48.8346 47.3273C48.8346 49.9231 50.036 51.4791 52.0336 51.4791ZM53.0142 49.4364C52.0706 49.4364 51.5105 48.6473 51.5105 47.3496C51.5105 46.0591 52.0782 45.2552 53.0142 45.2552C53.9505 45.2552 54.5254 46.0591 54.5254 47.3496C54.5254 48.6549 53.9577 49.4364 53.0142 49.4364ZM61.3144 51.5161C62.5232 51.5161 63.2901 50.8969 63.6513 49.8423H63.7026V50.2108C63.7026 51.103 64.219 51.5308 64.9708 51.5308C65.7226 51.5308 66.2385 51.103 66.2385 50.2036V44.5179C66.2385 43.6034 65.7003 43.1609 64.9338 43.1609C64.1673 43.1609 63.6291 43.6034 63.6291 44.5179V47.8733C63.6291 48.7802 63.1131 49.3851 62.302 49.3851C61.4838 49.3851 60.9901 48.8761 60.9901 47.9246V44.5179C60.9901 43.6034 60.4448 43.1609 59.6854 43.1609C58.9189 43.1609 58.3731 43.6034 58.3731 44.5179V48.4925C58.3731 50.3879 59.5895 51.5161 61.3144 51.5161ZM71.3397 51.5531C72.9169 51.5531 74.3322 50.8081 74.8633 49.7241C74.9957 49.4659 75.0475 49.245 75.0475 49.0456C75.0475 48.3966 74.5387 48.0205 73.9563 48.0205C73.4038 48.0205 73.1162 48.2494 72.7769 48.7432C72.475 49.2152 72.0693 49.5693 71.4061 49.5693C70.4475 49.5693 69.9097 48.7802 69.9097 47.3421C69.9097 45.919 70.4626 45.1299 71.4209 45.1299C72.0104 45.1299 72.4304 45.4176 72.8064 46.0738C73.0573 46.494 73.374 46.6934 73.8756 46.6934C74.4727 46.6934 74.9958 46.3321 74.9958 45.7053C74.9958 45.5059 74.9369 45.2628 74.8338 45.0415C74.3398 43.8835 72.9834 43.139 71.325 43.139C68.8261 43.139 67.2632 44.7463 67.2632 47.3421C67.2632 49.9677 68.8261 51.5531 71.3397 51.5531ZM76.7428 49.208C76.7428 50.6975 77.5316 51.4643 79.0798 51.4643H79.1458C80.1558 51.4643 80.9816 51.0811 80.9816 50.3214C80.9816 49.717 80.6423 49.4587 80.0599 49.3922L79.898 49.3703C79.5293 49.3333 79.3598 49.1344 79.3598 48.6326V45.2628H79.9935C80.5759 45.2628 80.9593 44.8792 80.9593 44.2966C80.9593 43.714 80.5759 43.3304 79.9935 43.3304H79.3598V42.6889C79.3598 41.8409 78.8805 41.3321 78.0551 41.3321C77.2221 41.3321 76.7428 41.8409 76.7428 42.6889V43.3304H76.4552C75.8732 43.3304 75.4898 43.7068 75.4898 44.2966C75.4898 44.8792 75.8732 45.2628 76.4552 45.2628H76.7428V49.208ZM86.3477 51.5236C87.203 51.5236 87.697 51.0147 87.697 50.1149V47.3938H90.8224C91.5225 47.3938 91.9501 47.0106 91.9501 46.3615C91.9501 45.7053 91.5078 45.3217 90.8224 45.3217H87.697V42.903H91.1689C91.8837 42.903 92.3702 42.5047 92.3702 41.8115C92.3702 41.1183 91.8984 40.7201 91.1689 40.7201H86.3477C85.4929 40.7201 84.9917 41.2363 84.9917 42.1358V50.1149C84.9917 51.0147 85.4929 51.5236 86.3477 51.5236ZM96.9185 51.5531C99.4468 51.5531 101.024 50.0266 101.024 47.3421C101.024 44.7097 99.4249 43.139 96.9185 43.139C94.4271 43.139 92.8125 44.7168 92.8125 47.3421C92.8125 50.019 94.3901 51.5531 96.9185 51.5531ZM96.9185 49.6358C96.0191 49.6358 95.4665 48.8172 95.4665 47.3496C95.4665 45.9043 96.0338 45.0563 96.9185 45.0563C97.8103 45.0563 98.3779 45.9043 98.3779 47.3496C98.3779 48.8172 97.8103 49.6358 96.9185 49.6358ZM103.391 51.5308C104.15 51.5308 104.696 51.0883 104.696 50.1738V41.9074C104.696 40.9929 104.15 40.5505 103.391 40.5505C102.624 40.5505 102.079 40.9929 102.079 41.9074V50.1738C102.079 51.0883 102.624 51.5308 103.391 51.5308ZM107.356 51.5308C108.116 51.5308 108.661 51.0883 108.661 50.1738V48.9645L109.325 48.3524L110.902 50.631C111.337 51.3171 111.662 51.5308 112.259 51.5308C113.003 51.5308 113.519 51.0517 113.519 50.329C113.519 49.9896 113.43 49.7611 113.136 49.3556L111.293 46.9147L112.988 45.3217C113.379 44.9604 113.504 44.7097 113.504 44.3042C113.504 43.6476 113.003 43.1609 112.325 43.1609C111.919 43.1609 111.625 43.3232 111.256 43.6993L108.706 46.3245H108.661V41.9074C108.661 40.9929 108.116 40.5505 107.356 40.5505C106.59 40.5505 106.044 40.9929 106.044 41.9074V50.1738C106.044 51.0883 106.59 51.5308 107.356 51.5308ZM117.979 51.5531C120.212 51.5531 121.709 50.491 121.709 48.8097C121.709 47.6079 120.964 46.9513 119.239 46.6122L117.846 46.3392C117.079 46.1844 116.836 45.9632 116.836 45.6166C116.836 45.1816 117.264 44.9015 117.898 44.9015C118.664 44.9015 119.062 45.3141 119.46 45.7125C119.682 45.919 120.058 46.0368 120.352 46.0368C121.031 46.0368 121.348 45.6683 121.348 45.1669C121.348 45.0415 121.325 44.9162 121.281 44.7908C120.994 43.9058 119.755 43.139 117.92 43.139C115.701 43.139 114.322 44.149 114.322 45.7642C114.322 46.9807 115.141 47.814 116.726 48.124L118.126 48.4042C118.856 48.5518 119.114 48.7432 119.114 49.0974C119.114 49.5323 118.679 49.7906 118.001 49.7906C117.271 49.7906 116.77 49.5693 116.328 49.0826C115.952 48.7138 115.605 48.5442 115.192 48.5442C114.603 48.5442 114.175 48.9497 114.175 49.5252C114.175 49.6577 114.212 49.8125 114.271 49.9677C114.647 50.8893 115.929 51.5531 117.979 51.5531Z" fill="#018E98"/>
<path d="M16.7157 36.9704C16.3068 36.6992 15.8995 36.5428 15.5622 36.4533L15.5606 33.1209C15.5596 31.0086 15.2172 29.2932 14.7247 27.916C14.7107 27.8572 14.6905 27.8012 14.6643 27.7484C14.1413 26.3486 13.4651 25.3116 12.8484 24.5749C11.4718 22.9313 10.0651 22.358 10.0056 22.334C9.8132 22.2571 9.59864 22.2572 9.40631 22.3338C9.34706 22.3575 7.94083 22.9293 6.56699 24.5717C5.95048 25.3087 5.27441 26.3467 4.7529 27.7479C4.72867 27.7981 4.70923 27.851 4.69568 27.9068C4.20428 29.2841 3.86276 31.0007 3.8643 33.1151L3.86585 36.4475C3.52859 36.5369 3.12181 36.6925 2.71291 36.9635C1.85935 37.5296 0.842016 38.7145 0.843752 41.1442L0.844658 43.152C0.844922 43.5953 1.20638 43.9551 1.65158 43.9555L4.34227 43.957L6.12353 45.7301C6.27476 45.8811 6.48 45.9653 6.69403 45.9653L12.7437 45.9687C12.9578 45.9687 13.1628 45.8841 13.3142 45.7338L15.0934 43.9623L17.784 43.9638C18.2292 43.9638 18.5904 43.6044 18.5901 43.1611L18.5892 41.1534C18.588 38.7234 17.5693 37.5375 16.7157 36.9704ZM3.8697 42.3497L2.45816 42.349L2.4577 41.1442C2.45669 39.2338 3.22873 38.4596 3.86755 38.1458L3.8697 42.3497ZM7.7459 25.6743C8.51519 24.7326 9.29433 24.2123 9.70707 23.979C10.1216 24.2135 10.9002 24.7351 11.6701 25.6767C12.0731 26.1701 12.4217 26.7119 12.7182 27.2977L6.69932 27.2943C6.99578 26.7087 7.34342 26.167 7.7459 25.6743ZM13.9492 37.135L13.9525 42.8251L12.4092 44.3614L7.02801 44.3587L5.48331 42.8205L5.47999 37.1306L5.47769 33.1153C5.47656 31.5571 5.67051 30.1497 6.0551 28.8996L13.3656 28.9032C13.7515 30.1536 13.9463 31.5615 13.9474 33.1196L13.9492 37.135ZM16.9771 42.3565L15.5655 42.3557L15.5631 38.1592C15.6654 38.2088 15.7711 38.2689 15.8755 38.3429C16.6051 38.8605 16.9757 39.8051 16.9766 41.1519L16.9771 42.3565Z" fill="#018E97"/>
<path d="M9.73886 46.3677C9.29385 46.3677 8.93255 46.7275 8.93251 47.1711L8.93115 53.1967C8.93111 53.64 9.29212 54.0002 9.73713 53.9998C10.1821 53.9998 10.5434 53.6396 10.5434 53.1964L10.5448 47.1708C10.5449 46.7271 10.184 46.3681 9.73886 46.3677Z" fill="#F27B20"/>
<path d="M9.70098 30.2979C8.77728 30.2981 7.95545 30.743 7.44013 31.4293C7.08762 31.8988 6.87876 32.4808 6.87842 33.1108C6.87838 33.5542 7.23938 33.914 7.68439 33.9139C7.85155 33.9138 8.00641 33.8635 8.13541 33.7763C8.35005 33.6316 8.49116 33.3871 8.49113 33.1097C8.49135 32.6947 8.70342 32.3273 9.02483 32.1104C9.21777 31.9807 9.45071 31.9045 9.70049 31.9039C10.3675 31.9039 10.9097 32.444 10.9095 33.1086C10.9094 33.5521 11.2704 33.9119 11.7154 33.9118C11.9636 33.9117 12.1848 33.7999 12.333 33.6246C12.4508 33.4847 12.5219 33.3049 12.5218 33.1083C12.5226 31.5589 11.2574 30.2976 9.70098 30.2979Z" fill="#F48222"/>
<path d="M6.88727 46.3042H6.88726C6.46115 46.3042 6.11572 46.6498 6.11572 47.076V49.6359C6.11572 50.0622 6.46115 50.4077 6.88726 50.4077H6.88727C7.31338 50.4077 7.65881 50.0622 7.65881 49.6359V47.076C7.65881 46.6498 7.31338 46.3042 6.88727 46.3042Z" fill="#F27B20"/>
<path d="M12.5455 46.3042H12.5455C12.1194 46.3042 11.7739 46.6498 11.7739 47.076V49.6359C11.7739 50.0622 12.1194 50.4077 12.5455 50.4077H12.5455C12.9716 50.4077 13.317 50.0622 13.317 49.6359V47.076C13.317 46.6498 12.9716 46.3042 12.5455 46.3042Z" fill="#F27B20"/>
</svg>
