<svg width="22" height="22" viewBox="0 0 22 22" fill="none" xmlns="http://www.w3.org/2000/svg">
<path fill-rule="evenodd" clip-rule="evenodd" d="M16.9642 5.95213L16.9301 5.9294C16.2253 5.25863 15.3953 4.94031 14.4403 4.98578L14.4062 4.91757L14.429 4.9062C15.293 4.71293 15.8046 4.50829 15.9638 4.28091C16.0093 4.09901 15.9524 3.99669 15.7591 3.97395C15.3271 4.0308 14.9178 4.12175 14.5654 4.26954C15.0202 3.97395 15.1907 3.76931 15.0884 3.66699C14.645 3.67836 14.1561 3.90574 13.6559 4.36049C13.8378 4.04216 13.9174 3.86026 13.8719 3.83753C13.6218 3.99669 13.4172 4.17859 13.2352 4.37186C12.8487 4.80388 12.5417 5.20179 12.303 5.56559L12.2916 5.58833C11.6891 6.57742 11.2571 7.56651 11.007 8.57834L10.916 8.65793L10.8933 8.66929C10.5295 8.21454 10.0861 7.828 9.56311 7.52104C8.94919 7.11176 8.22158 6.73659 7.38028 6.36141C6.47077 5.88392 5.53853 5.49738 4.60628 5.19042C4.59491 6.24773 5.11788 7.07765 6.12971 7.69157V7.70294C5.77727 7.70294 5.42484 7.75979 5.08377 7.8621C5.15198 8.83983 5.84549 9.51059 7.1529 9.87439L7.14154 9.89713C6.62994 9.86303 6.20929 10.0449 5.87959 10.4201C6.31161 11.2614 7.07332 11.6593 8.1761 11.6366C7.96009 11.7503 7.78956 11.8639 7.67587 12.0004C7.47123 12.2164 7.40302 12.4665 7.47123 12.7507C7.70998 13.1827 8.13063 13.376 8.75592 13.3419L8.79002 13.3874L8.77865 13.4101C7.69861 14.5243 6.39119 15.0245 4.86776 14.9222L4.84503 14.9335C3.91278 14.9222 2.91232 14.4788 1.83228 13.592C2.91232 15.1495 4.35616 16.2751 6.14108 16.9913C8.1761 17.6621 10.2225 17.7189 12.2575 17.1391H12.2916C14.2698 16.5707 15.941 15.3883 17.328 13.6148C17.9647 12.6939 18.3626 11.8071 18.5218 10.9544C19.5563 10.9885 20.2953 10.693 20.7614 10.0563L20.7501 10.0336C20.3976 10.1586 19.7269 10.1245 18.7378 9.91987V9.80618C19.8292 9.68112 20.4772 9.32869 20.6819 8.74888C19.9201 9.04447 19.1698 9.05584 18.4308 8.77161C18.2944 7.74842 17.8055 6.8048 16.9642 5.95213" fill="white"/>
<mask id="mask0" mask-type="alpha" maskUnits="userSpaceOnUse" x="1" y="3" width="20" height="15">
<path fill-rule="evenodd" clip-rule="evenodd" d="M16.9642 5.95213L16.9301 5.9294C16.2253 5.25863 15.3953 4.94031 14.4403 4.98578L14.4062 4.91757L14.429 4.9062C15.293 4.71293 15.8046 4.50829 15.9638 4.28091C16.0093 4.09901 15.9524 3.99669 15.7591 3.97395C15.3271 4.0308 14.9178 4.12175 14.5654 4.26954C15.0202 3.97395 15.1907 3.76931 15.0884 3.66699C14.645 3.67836 14.1561 3.90574 13.6559 4.36049C13.8378 4.04216 13.9174 3.86026 13.8719 3.83753C13.6218 3.99669 13.4172 4.17859 13.2352 4.37186C12.8487 4.80388 12.5417 5.20179 12.303 5.56559L12.2916 5.58833C11.6891 6.57742 11.2571 7.56651 11.007 8.57834L10.916 8.65793L10.8933 8.66929C10.5295 8.21454 10.0861 7.828 9.56311 7.52104C8.94919 7.11176 8.22158 6.73659 7.38028 6.36141C6.47077 5.88392 5.53853 5.49738 4.60628 5.19042C4.59491 6.24773 5.11788 7.07765 6.12971 7.69157V7.70294C5.77727 7.70294 5.42484 7.75979 5.08377 7.8621C5.15198 8.83983 5.84549 9.51059 7.1529 9.87439L7.14154 9.89713C6.62994 9.86303 6.20929 10.0449 5.87959 10.4201C6.31161 11.2614 7.07332 11.6593 8.1761 11.6366C7.96009 11.7503 7.78956 11.8639 7.67587 12.0004C7.47123 12.2164 7.40302 12.4665 7.47123 12.7507C7.70998 13.1827 8.13063 13.376 8.75592 13.3419L8.79002 13.3874L8.77865 13.4101C7.69861 14.5243 6.39119 15.0245 4.86776 14.9222L4.84503 14.9335C3.91278 14.9222 2.91232 14.4788 1.83228 13.592C2.91232 15.1495 4.35616 16.2751 6.14108 16.9913C8.1761 17.6621 10.2225 17.7189 12.2575 17.1391H12.2916C14.2698 16.5707 15.941 15.3883 17.328 13.6148C17.9647 12.6939 18.3626 11.8071 18.5218 10.9544C19.5563 10.9885 20.2953 10.693 20.7614 10.0563L20.7501 10.0336C20.3976 10.1586 19.7269 10.1245 18.7378 9.91987V9.80618C19.8292 9.68112 20.4772 9.32869 20.6819 8.74888C19.9201 9.04447 19.1698 9.05584 18.4308 8.77161C18.2944 7.74842 17.8055 6.8048 16.9642 5.95213Z" fill="white"/>
</mask>
<g mask="url(#mask0)">
<rect width="22" height="22" fill="white"/>
</g>
</svg>
