<svg width="32" height="32" viewBox="0 0 32 32" fill="none" xmlns="http://www.w3.org/2000/svg">
<path fill-rule="evenodd" clip-rule="evenodd" d="M24.6769 8.65716L24.6273 8.62408C23.602 7.64843 22.3948 7.18541 21.0058 7.25155L20.9562 7.15233L20.9892 7.1358C22.246 6.85467 22.9902 6.55702 23.2217 6.22629C23.2878 5.9617 23.2051 5.81287 22.924 5.7798C22.2956 5.86248 21.7003 5.99477 21.1877 6.20975C21.8491 5.7798 22.0972 5.48214 21.9484 5.33331C21.3034 5.34985 20.5924 5.68058 19.8647 6.34204C20.1293 5.87902 20.2451 5.61443 20.1789 5.58136C19.8151 5.81287 19.5175 6.07746 19.2529 6.35858C18.6907 6.98697 18.2442 7.56575 17.8969 8.09491L17.8804 8.12799C17.0039 9.56667 16.3755 11.0053 16.0117 12.4771L15.8794 12.5929L15.8464 12.6094C15.3172 11.9479 14.6723 11.3857 13.9116 10.9392C13.0186 10.3439 11.9603 9.79818 10.7366 9.25247C9.41366 8.55794 8.05766 7.9957 6.70166 7.54921C6.68513 9.08711 7.44581 10.2943 8.91756 11.1872V11.2038C8.40493 11.2038 7.89229 11.2865 7.3962 11.4353C7.49542 12.8574 8.50415 13.8331 10.4058 14.3623L10.3893 14.3953C9.64517 14.3457 9.03331 14.6103 8.55375 15.156C9.18214 16.3797 10.2901 16.9585 11.8941 16.9254C11.5799 17.0908 11.3319 17.2562 11.1665 17.4546C10.8689 17.7688 10.7697 18.1326 10.8689 18.546C11.2161 19.1744 11.828 19.4555 12.7375 19.4059L12.7871 19.4721L12.7706 19.5051C11.1996 21.1257 9.2979 21.8533 7.082 21.7045L7.04893 21.721C5.69293 21.7045 4.23772 21.0596 2.66675 19.7697C4.23772 22.0352 6.33786 23.6723 8.9341 24.7141C11.8941 25.6898 14.8707 25.7725 17.8308 24.9291H17.8804C20.7577 24.1023 23.1886 22.3825 25.206 19.8028C26.1321 18.4633 26.7109 17.1735 26.9424 15.9332C28.4472 15.9828 29.5221 15.5529 30.2001 14.6268L30.1835 14.5938C29.6709 14.7757 28.6953 14.7261 27.2566 14.4284V14.263C28.8441 14.0811 29.7867 13.5685 30.0843 12.7251C28.9764 13.1551 27.885 13.1716 26.8101 12.7582C26.6117 11.2699 25.9006 9.8974 24.6769 8.65716" fill="#1EA1F2"/>
<mask id="mask0" mask-type="alpha" maskUnits="userSpaceOnUse" x="2" y="5" width="29" height="21">
<path fill-rule="evenodd" clip-rule="evenodd" d="M24.6769 8.65716L24.6273 8.62408C23.602 7.64843 22.3948 7.18541 21.0058 7.25155L20.9562 7.15233L20.9892 7.1358C22.246 6.85467 22.9902 6.55702 23.2217 6.22629C23.2878 5.9617 23.2051 5.81287 22.924 5.7798C22.2956 5.86248 21.7003 5.99477 21.1877 6.20975C21.8491 5.7798 22.0972 5.48214 21.9484 5.33331C21.3034 5.34985 20.5924 5.68058 19.8647 6.34204C20.1293 5.87902 20.2451 5.61443 20.1789 5.58136C19.8151 5.81287 19.5175 6.07746 19.2529 6.35858C18.6907 6.98697 18.2442 7.56575 17.8969 8.09491L17.8804 8.12799C17.0039 9.56667 16.3755 11.0053 16.0117 12.4771L15.8794 12.5929L15.8464 12.6094C15.3172 11.9479 14.6723 11.3857 13.9116 10.9392C13.0186 10.3439 11.9603 9.79818 10.7366 9.25247C9.41366 8.55794 8.05766 7.9957 6.70166 7.54921C6.68513 9.08711 7.44581 10.2943 8.91756 11.1872V11.2038C8.40493 11.2038 7.89229 11.2865 7.3962 11.4353C7.49542 12.8574 8.50415 13.8331 10.4058 14.3623L10.3893 14.3953C9.64517 14.3457 9.03331 14.6103 8.55375 15.156C9.18214 16.3797 10.2901 16.9585 11.8941 16.9254C11.5799 17.0908 11.3319 17.2562 11.1665 17.4546C10.8689 17.7688 10.7697 18.1326 10.8689 18.546C11.2161 19.1744 11.828 19.4555 12.7375 19.4059L12.7871 19.4721L12.7706 19.5051C11.1996 21.1257 9.2979 21.8533 7.082 21.7045L7.04893 21.721C5.69293 21.7045 4.23772 21.0596 2.66675 19.7697C4.23772 22.0352 6.33786 23.6723 8.9341 24.7141C11.8941 25.6898 14.8707 25.7725 17.8308 24.9291H17.8804C20.7577 24.1023 23.1886 22.3825 25.206 19.8028C26.1321 18.4633 26.7109 17.1735 26.9424 15.9332C28.4472 15.9828 29.5221 15.5529 30.2001 14.6268L30.1835 14.5938C29.6709 14.7757 28.6953 14.7261 27.2566 14.4284V14.263C28.8441 14.0811 29.7867 13.5685 30.0843 12.7251C28.9764 13.1551 27.885 13.1716 26.8101 12.7582C26.6117 11.2699 25.9006 9.8974 24.6769 8.65716" fill="white"/>
</mask>
<g mask="url(#mask0)">
<rect width="32" height="32" fill="#1EA1F2"/>
</g>
</svg>
